<svg width="685" height="524" viewBox="0 0 685 524" fill="none" xmlns="http://www.w3.org/2000/svg">
<g style="mix-blend-mode:luminosity" opacity="0.1" clip-path="url(#clip0_1077_463205)">
<path d="M155.636 174.634C154.739 174.651 153.861 174.37 153.141 173.834C152.421 173.298 151.901 172.538 151.661 171.674C151.421 170.81 151.477 169.891 151.818 169.061C152.159 168.232 152.767 167.54 153.545 167.093L217.567 128.721C218.492 128.166 219.599 128 220.646 128.26C221.693 128.52 222.594 129.185 223.15 130.109C223.706 131.032 223.872 132.138 223.611 133.184C223.351 134.23 222.685 135.129 221.76 135.685L157.727 174.057C157.096 174.436 156.373 174.635 155.636 174.634Z" fill="#333333"/>
<path d="M544.93 182.44C544.196 182.44 543.475 182.241 542.845 181.863L478.795 143.491C477.87 142.937 477.204 142.039 476.942 140.994C476.681 139.95 476.845 138.844 477.4 137.92C477.954 136.997 478.853 136.331 479.899 136.07C480.945 135.809 482.052 135.973 482.977 136.527L547.004 174.899C547.783 175.346 548.391 176.039 548.732 176.869C549.073 177.699 549.128 178.619 548.888 179.483C548.647 180.348 548.126 181.107 547.405 181.643C546.684 182.178 545.805 182.459 544.907 182.44H544.93Z" fill="#333333"/>
<path d="M530.939 159.468L493.271 181.861L495.971 186.393L533.639 164L530.939 159.468Z" fill="#FFCC00"/>
<path d="M532.293 254.69L512.099 242.69L514.803 238.161L532.281 248.552L568.485 226.853L571.2 231.376L532.293 254.69Z" fill="#FFCC00"/>
<path d="M573.522 232.403C571.457 232.439 569.42 231.925 567.619 230.915C565.707 229.761 564.615 228.076 564.615 226.259C564.615 224.441 565.707 222.745 567.619 221.597C570.929 219.612 576.116 219.612 579.425 221.597C581.331 222.751 582.429 224.441 582.429 226.259C582.429 228.076 581.331 229.772 579.425 230.915C577.624 231.924 575.587 232.438 573.522 232.403ZM573.522 224.193C572.198 224.159 570.888 224.471 569.722 225.099C568.971 225.549 568.705 226.005 568.705 226.253C568.705 226.501 568.971 226.957 569.722 227.407C571.743 228.624 575.295 228.624 577.323 227.407C578.074 226.957 578.339 226.507 578.339 226.253C578.339 225.999 578.074 225.543 577.323 225.099C576.156 224.473 574.846 224.16 573.522 224.193Z" fill="#FFCC00"/>
<path d="M611.546 283.012C609.481 283.048 607.443 282.534 605.643 281.524C603.731 280.37 602.639 278.68 602.639 276.862C602.639 275.045 603.731 273.349 605.643 272.206C608.952 270.222 614.139 270.222 617.449 272.206C619.355 273.36 620.453 275.045 620.453 276.862C620.453 278.68 619.355 280.381 617.449 281.524C615.648 282.534 613.611 283.047 611.546 283.012ZM611.546 274.797C610.221 274.764 608.911 275.079 607.745 275.708C606.994 276.158 606.729 276.614 606.729 276.862C606.729 277.11 606.994 277.572 607.745 278.016C609.767 279.228 613.319 279.228 615.346 278.016C616.097 277.566 616.363 277.11 616.363 276.862C616.363 276.614 616.097 276.158 615.346 275.708C614.179 275.083 612.869 274.773 611.546 274.808V274.797Z" fill="#D18700"/>
<path d="M489.607 192.86C487.541 192.894 485.502 192.381 483.699 191.371C481.792 190.217 480.701 188.532 480.701 186.715C480.701 184.898 481.792 183.196 483.699 182.053C487.014 180.069 492.201 180.069 495.511 182.053C497.417 183.207 498.514 184.898 498.514 186.715C498.514 188.532 497.417 190.229 495.511 191.371C493.709 192.38 491.672 192.894 489.607 192.86ZM489.607 184.644C488.283 184.612 486.972 184.926 485.807 185.555C485.056 186.005 484.784 186.461 484.784 186.709C484.784 186.957 485.056 187.413 485.807 187.863C487.828 189.075 491.381 189.075 493.408 187.863C494.159 187.413 494.425 186.957 494.425 186.709C494.425 186.461 494.159 186 493.408 185.555C492.242 184.927 490.932 184.613 489.607 184.644Z" fill="#FFCC00"/>
<path d="M545.56 159.38C543.495 159.415 541.458 158.901 539.657 157.891C537.745 156.737 536.653 155.047 536.653 153.229C536.653 151.412 537.745 149.716 539.657 148.573C542.967 146.589 548.154 146.589 551.463 148.573C553.375 149.727 554.467 151.412 554.467 153.229C554.467 155.047 553.375 156.749 551.463 157.891C549.663 158.901 547.625 159.415 545.56 159.38ZM545.56 151.164C544.235 151.132 542.925 151.447 541.759 152.075C541.008 152.525 540.743 152.976 540.743 153.229C540.743 153.483 541.008 153.939 541.759 154.383C543.787 155.595 547.333 155.595 549.361 154.383C550.112 153.933 550.377 153.477 550.377 153.229C550.377 152.981 550.112 152.525 549.361 152.075C548.195 151.447 546.885 151.132 545.56 151.164Z" fill="#FFCC00"/>
<path d="M668.03 203.931C665.963 203.966 663.924 203.452 662.121 202.442C660.215 201.288 659.123 199.604 659.123 197.786C659.123 195.969 660.215 194.267 662.121 193.125C665.436 191.14 670.623 191.14 673.933 193.125C675.839 194.279 676.937 195.969 676.937 197.786C676.937 199.604 675.839 201.3 673.933 202.442C672.132 203.452 670.095 203.966 668.03 203.931ZM668.03 195.715C666.705 195.683 665.395 195.997 664.229 196.627C663.478 197.077 663.213 197.533 663.213 197.781C663.213 198.029 663.478 198.485 664.229 198.935C666.251 200.152 669.803 200.152 671.83 198.935C672.581 198.485 672.847 198.035 672.847 197.781C672.847 197.527 672.581 197.071 671.83 196.627C670.664 195.998 669.354 195.684 668.03 195.715Z" fill="#FFCC00"/>
<path d="M509.662 244.005C507.597 244.039 505.56 243.526 503.759 242.517C501.853 241.363 500.755 239.672 500.755 237.855C500.755 236.037 501.853 234.341 503.759 233.199C507.068 231.214 512.255 231.214 515.571 233.199C517.477 234.353 518.569 236.037 518.569 237.855C518.569 239.672 517.477 241.374 515.571 242.517C513.768 243.526 511.729 244.04 509.662 244.005ZM509.662 235.789C508.337 235.759 507.027 236.073 505.861 236.701C505.11 237.151 504.845 237.607 504.845 237.855C504.845 238.103 505.11 238.564 505.861 239.009C507.889 240.22 511.441 240.22 513.463 239.009C514.213 238.559 514.485 238.103 514.485 237.855C514.485 237.607 514.213 237.151 513.463 236.701C512.297 236.071 510.987 235.757 509.662 235.789Z" fill="#FFCC00"/>
<path d="M529.266 280.352C527.711 280.294 526.239 279.631 525.165 278.506C522.387 275.823 521.047 270.821 522.104 267.112C522.716 264.977 524.079 263.483 525.835 263.01C527.591 262.537 529.52 263.154 531.12 264.7C533.893 267.383 535.239 272.385 534.176 276.095C533.564 278.229 532.2 279.724 530.444 280.197C530.06 280.3 529.664 280.352 529.266 280.352ZM527.019 266.939C526.977 266.932 526.934 266.932 526.892 266.939C526.65 267.002 526.28 267.377 526.037 268.219C525.39 270.487 526.309 273.914 528.007 275.552C528.636 276.129 529.162 276.302 529.387 276.233C529.613 276.164 530 275.795 530.242 274.952C530.895 272.685 529.971 269.258 528.278 267.619C527.953 267.25 527.507 267.009 527.019 266.939Z" fill="#FFCC00"/>
<path d="M569.652 277.45C568.095 277.393 566.621 276.73 565.545 275.604C562.767 272.927 561.427 267.919 562.49 264.21C563.102 262.075 564.459 260.581 566.215 260.108C567.971 259.635 569.9 260.258 571.5 261.798C574.279 264.481 575.619 269.489 574.556 273.193C573.944 275.333 572.586 276.827 570.83 277.295C570.446 277.398 570.05 277.45 569.652 277.45ZM567.399 264.042H567.278C567.03 264.106 566.66 264.481 566.417 265.323C565.77 267.591 566.689 271.018 568.387 272.656C569.017 273.268 569.542 273.406 569.767 273.343C569.993 273.279 570.386 272.898 570.628 272.062C571.275 269.794 570.357 266.367 568.658 264.723C568.335 264.352 567.888 264.11 567.399 264.042Z" fill="#FFCC00"/>
<path d="M601.709 307.503C601.319 307.503 600.931 307.453 600.554 307.353C598.821 306.88 597.435 305.386 596.823 303.251C595.76 299.542 597.106 294.534 599.878 291.857C601.478 290.311 603.407 289.693 605.163 290.166C606.919 290.639 608.282 292.128 608.894 294.268C609.951 297.972 608.611 302.98 605.833 305.663C604.751 306.79 603.271 307.45 601.709 307.503ZM603.956 294.095C603.468 294.17 603.023 294.418 602.703 294.793C601.004 296.432 600.08 299.859 600.733 302.126C600.976 302.969 601.345 303.344 601.588 303.407C601.83 303.471 602.339 303.332 602.968 302.726C604.666 301.082 605.585 297.655 604.938 295.388C604.695 294.551 604.326 294.176 604.083 294.107L603.956 294.095Z" fill="#FFCC00"/>
<path d="M662.416 254.777C662.026 254.774 661.638 254.724 661.26 254.627C659.528 254.154 658.141 252.659 657.529 250.519C656.466 246.815 657.812 241.807 660.585 239.13C662.185 237.584 664.114 236.967 665.87 237.44C667.626 237.913 668.989 239.401 669.595 241.542C670.658 245.246 669.318 250.254 666.54 252.931C665.46 254.061 663.979 254.724 662.416 254.777ZM664.663 241.369C664.173 241.444 663.726 241.691 663.403 242.067C661.711 243.705 660.787 247.132 661.439 249.4C661.682 250.236 662.052 250.611 662.294 250.681C662.537 250.75 663.045 250.606 663.675 250C665.373 248.356 666.291 244.928 665.644 242.661C665.402 241.825 665.032 241.45 664.79 241.38L664.663 241.369Z" fill="#D18700"/>
<path d="M533.228 322.244C531.671 322.187 530.197 321.524 529.121 320.398C526.343 317.721 525.003 312.713 526.066 309.009C526.678 306.869 528.036 305.375 529.791 304.907C531.547 304.44 533.476 305.051 535.076 306.598C537.855 309.275 539.195 314.282 538.132 317.986C537.52 320.127 536.162 321.621 534.406 322.094C534.022 322.196 533.626 322.246 533.228 322.244ZM530.976 308.836H530.854C530.606 308.905 530.236 309.28 529.999 310.117C529.347 312.384 530.265 315.811 531.963 317.456C532.593 318.033 533.118 318.2 533.344 318.136C533.569 318.073 533.962 317.698 534.204 316.856C534.851 314.588 533.933 311.161 532.235 309.523C531.907 309.159 531.461 308.924 530.976 308.859V308.836Z" fill="#FFCC00"/>
<path d="M457.14 212.441C462.388 212.441 466.642 209.892 466.642 206.747C466.642 203.602 462.388 201.052 457.14 201.052C451.893 201.052 447.639 203.602 447.639 206.747C447.639 209.892 451.893 212.441 457.14 212.441Z" fill="#FFCC00"/>
<path d="M575.354 208.49C576.712 203.427 575.348 198.663 572.307 197.849C569.265 197.035 565.699 200.48 564.341 205.543C562.983 210.606 564.347 215.37 567.388 216.184C570.43 216.998 573.996 213.553 575.354 208.49Z" fill="#D18700"/>
<path d="M496.51 333.944C493.403 330.944 489.914 331.879 488.724 336.027C487.534 340.175 489.093 345.991 492.189 348.991C495.285 351.991 498.792 351.056 499.976 346.908C501.16 342.76 499.618 336.944 496.51 333.944Z" fill="#FFCC00"/>
<path d="M609.787 193.248C612.828 192.434 614.192 187.67 612.834 182.607C611.476 177.544 607.91 174.1 604.868 174.914C601.827 175.728 600.463 180.492 601.821 185.555C603.179 190.618 606.745 194.062 609.787 193.248Z" fill="#FFCC00"/>
<path d="M626.061 201.104C631.309 201.104 635.563 198.555 635.563 195.41C635.563 192.265 631.309 189.715 626.061 189.715C620.814 189.715 616.56 192.265 616.56 195.41C616.56 198.555 620.814 201.104 626.061 201.104Z" fill="#FFCC00"/>
<path d="M625.01 245.136C630.257 245.136 634.511 242.586 634.511 239.441C634.511 236.297 630.257 233.747 625.01 233.747C619.762 233.747 615.508 236.297 615.508 239.441C615.508 242.586 619.762 245.136 625.01 245.136Z" fill="#FFCC00"/>
<path d="M588.586 268.6C593.834 268.6 598.088 266.051 598.088 262.906C598.088 259.761 593.834 257.211 588.586 257.211C583.338 257.211 579.084 259.761 579.084 262.906C579.084 266.051 583.338 268.6 588.586 268.6Z" fill="#D18700"/>
<path d="M645.064 302.345C650.312 302.345 654.566 299.796 654.566 296.651C654.566 293.506 650.312 290.957 645.064 290.957C639.817 290.957 635.563 293.506 635.563 296.651C635.563 299.796 639.817 302.345 645.064 302.345Z" fill="#D18700"/>
<path d="M513.359 291.008C518.606 291.008 522.86 288.459 522.86 285.314C522.86 282.169 518.606 279.62 513.359 279.62C508.111 279.62 503.857 282.169 503.857 285.314C503.857 288.459 508.111 291.008 513.359 291.008Z" fill="#D18700"/>
<path d="M550.84 336.09C556.087 336.09 560.341 333.541 560.341 330.396C560.341 327.251 556.087 324.702 550.84 324.702C545.592 324.702 541.338 327.251 541.338 330.396C541.338 333.541 545.592 336.09 550.84 336.09Z" fill="#D18700"/>
<path d="M527.879 169.995C533.127 169.995 537.381 167.446 537.381 164.301C537.381 161.156 533.127 158.606 527.879 158.606C522.632 158.606 518.378 161.156 518.378 164.301C518.378 167.446 522.632 169.995 527.879 169.995Z" fill="#FFCC00"/>
<path d="M533.415 271.704L530.703 276.228L568.481 298.82L571.193 294.296L533.415 271.704Z" fill="#FFCC00"/>
<path d="M646.409 181.884L643.66 186.386L662.278 197.724L665.026 193.221L646.409 181.884Z" fill="#FFCC00"/>
<path d="M571.796 139.094L567.707 139.101L567.825 206.966L571.915 206.959L571.796 139.094Z" fill="#D18700"/>
<path d="M589.531 261.045L587.416 264.541L606.119 275.828L608.233 272.332L589.531 261.045Z" fill="#D18700"/>
<path d="M645.82 294.753L643.716 298.256L681.276 320.762L683.38 317.26L645.82 294.753Z" fill="#D18700"/>
<path d="M474.661 238.175L455.774 249.492L458.49 254.014L477.377 242.697L474.661 238.175Z" fill="#D18700"/>
<path d="M516.739 282.111L460.359 316.162L463.104 320.697L519.484 286.646L516.739 282.111Z" fill="#D18700"/>
<path d="M552.286 327.943L549.57 332.465L605.808 366.164L608.524 361.642L552.286 327.943Z" fill="#D18700"/>
<path d="M609.848 184.35H604.568V229.241H609.848V184.35Z" fill="#FFCC00"/>
<path d="M660.957 217.877L660.89 240.4L666.169 240.416L666.236 217.892L660.957 217.877Z" fill="#D18700"/>
<path d="M624.723 215.557L568.371 249.245L571.082 253.769L627.434 220.082L624.723 215.557Z" fill="#D18700"/>
<path d="M629.758 221.332C627.693 221.367 625.656 220.853 623.855 219.843C621.943 218.689 620.851 217.005 620.851 215.187C620.851 213.37 621.943 211.668 623.855 210.526C627.164 208.541 632.351 208.541 635.661 210.526C637.567 211.679 638.665 213.37 638.665 215.187C638.665 217.005 637.567 218.701 635.661 219.843C633.86 220.853 631.823 221.367 629.758 221.332ZM629.758 213.116C628.433 213.084 627.123 213.398 625.957 214.028C625.206 214.478 624.941 214.933 624.941 215.182C624.941 215.43 625.206 215.885 625.957 216.335C627.979 217.553 631.531 217.553 633.559 216.335C634.309 215.885 634.575 215.43 634.575 215.182C634.575 214.933 634.309 214.472 633.559 214.028C632.393 213.399 631.083 213.085 629.758 213.116Z" fill="#D18700"/>
<path d="M569.843 257.263C575.09 257.263 579.344 254.714 579.344 251.569C579.344 248.424 575.09 245.875 569.843 245.875C564.595 245.875 560.341 248.424 560.341 251.569C560.341 254.714 564.595 257.263 569.843 257.263Z" fill="#D18700"/>
<path d="M493.408 343.827L454.605 320.571V201.998L494.881 226.085L568.486 181.817L571.206 186.334L494.887 232.23L459.884 211.304V317.588L496.123 339.304L493.408 343.827Z" fill="#FFCC00"/>
<path d="M569.843 189.773C575.09 189.773 579.344 187.224 579.344 184.079C579.344 180.934 575.09 178.384 569.843 178.384C564.595 178.384 560.341 180.934 560.341 184.079C560.341 187.224 564.595 189.773 569.843 189.773Z" fill="#FFCC00"/>
<path d="M627.442 197.671L624.727 193.148L639.854 184.078L569.739 142.227L552.411 152.693L549.679 148.181L569.721 136.071L650.13 184.073L627.442 197.671Z" fill="#FFCC00"/>
<path d="M497.405 251.621H492.126V296.594H497.405V251.621Z" fill="#FFCC00"/>
<path d="M495.482 311.195C493.926 311.137 492.455 310.475 491.381 309.349C488.602 306.672 487.262 301.664 488.319 297.96C488.932 295.82 490.295 294.326 492.051 293.853C493.807 293.38 495.736 294.003 497.336 295.549C500.108 298.226 501.454 303.234 500.391 306.938C499.779 309.078 498.416 310.572 496.66 311.04C496.276 311.143 495.88 311.196 495.482 311.195ZM493.235 297.787H493.108C492.865 297.851 492.496 298.226 492.253 299.068C491.606 301.336 492.524 304.763 494.223 306.401C494.852 307.013 495.378 307.151 495.603 307.088C495.828 307.024 496.215 306.643 496.458 305.807C497.111 303.54 496.186 300.112 494.488 298.468C494.167 298.097 493.721 297.855 493.235 297.787Z" fill="#FFCC00"/>
<path d="M496.51 244.04C493.403 241.04 489.914 241.98 488.724 246.129C487.534 250.277 489.093 256.092 492.189 259.092C495.285 262.092 498.792 261.158 499.976 257.01C501.16 252.861 499.618 247.04 496.51 244.04Z" fill="#FFCC00"/>
<path d="M572.488 391.217L529.647 365.543V319.077H534.926V362.555L567.203 381.9L567.087 274.156L572.367 274.15L572.488 391.217Z" fill="#FFCC00"/>
<path d="M591.976 376.678C593.334 371.615 591.97 366.851 588.929 366.037C585.887 365.223 582.321 368.668 580.963 373.731C579.604 378.794 580.969 383.558 584.01 384.372C587.051 385.186 590.618 381.741 591.976 376.678Z" fill="#FFCC00"/>
<path d="M482.974 242.753C484.332 237.69 482.967 232.926 479.926 232.112C476.885 231.298 473.318 234.742 471.96 239.805C470.602 244.868 471.966 249.633 475.008 250.446C478.049 251.26 481.615 247.816 482.974 242.753Z" fill="#D18700"/>
<path d="M624.719 350.603L587.199 373.086L589.915 377.608L627.435 355.125L624.719 350.603Z" fill="#FFCC00"/>
<path d="M666.188 285.383H660.908V330.356H666.188V285.383Z" fill="#FFCC00"/>
<path d="M669.047 281.248C670.405 276.185 669.04 271.421 665.999 270.607C662.958 269.793 659.391 273.238 658.033 278.301C656.675 283.363 658.039 288.128 661.081 288.942C664.122 289.756 667.688 286.311 669.047 281.248Z" fill="#FFCC00"/>
<path d="M623.445 357.467V290.005L608.681 298.855L605.966 294.332L628.724 280.693V348.149L679.721 317.588V211.304L627.459 242.627L624.744 238.109L685 201.993V320.571L623.445 357.467Z" fill="#FFCC00"/>
<path d="M481.325 388.183C480.427 388.201 479.548 387.921 478.827 387.386C478.107 386.85 477.585 386.09 477.344 385.226C477.104 384.361 477.159 383.441 477.5 382.612C477.841 381.782 478.449 381.089 479.228 380.642L543.256 342.276C544.18 341.722 545.287 341.557 546.333 341.819C547.379 342.08 548.278 342.746 548.832 343.669C549.387 344.592 549.552 345.698 549.29 346.743C549.028 347.787 548.362 348.685 547.437 349.239L483.416 387.606C482.784 387.985 482.061 388.184 481.325 388.183Z" fill="#333333"/>
<path d="M211.56 373.944C210.823 373.944 210.101 373.744 209.469 373.367L145.447 334.995C144.52 334.441 143.852 333.542 143.588 332.495C143.325 331.449 143.489 330.341 144.043 329.416C144.598 328.49 145.498 327.822 146.545 327.559C147.593 327.296 148.702 327.46 149.629 328.014L213.674 366.403C214.452 366.85 215.06 367.542 215.401 368.371C215.742 369.201 215.797 370.12 215.558 370.984C215.318 371.848 214.797 372.608 214.078 373.144C213.358 373.68 212.48 373.961 211.583 373.944H211.56Z" fill="#333333"/>
<path d="M305.099 23.3746L267.431 45.7676L270.131 50.299L307.799 27.906L305.099 23.3746Z" fill="#FFCC00"/>
<path d="M306.454 118.619L286.267 106.613L288.965 102.084L306.443 112.48L342.653 90.7759L345.368 95.2991L306.454 118.619Z" fill="#FFCC00"/>
<path d="M347.679 96.3317C345.614 96.3667 343.576 95.853 341.775 94.8432C339.869 93.6893 338.772 92.0047 338.772 90.1873C338.772 88.3699 339.869 86.668 341.775 85.5256C345.085 83.5409 350.272 83.5409 353.582 85.5256C355.494 86.6795 356.585 88.3699 356.585 90.1873C356.585 92.0047 355.494 93.7009 353.582 94.8432C351.781 95.8535 349.744 96.3672 347.679 96.3317ZM347.679 88.1161C346.354 88.0846 345.044 88.3988 343.878 89.0277C343.127 89.4777 342.861 89.9335 342.861 90.1815C342.861 90.4296 343.127 90.8854 343.878 91.3354C345.905 92.547 349.458 92.547 351.479 91.3354C352.23 90.8854 352.496 90.4296 352.496 90.1815C352.496 89.9335 352.23 89.4719 351.479 89.0277C350.313 88.3988 349.003 88.0846 347.679 88.1161Z" fill="#FFCC00"/>
<path d="M385.708 146.952C383.643 146.987 381.606 146.474 379.805 145.464C377.898 144.31 376.801 142.62 376.801 140.802C376.801 138.985 377.898 137.289 379.805 136.146C383.114 134.162 388.301 134.162 391.611 136.146C393.523 137.3 394.614 138.985 394.614 140.802C394.614 142.62 393.523 144.316 391.611 145.464C389.81 146.474 387.773 146.988 385.708 146.952ZM385.708 138.737C384.383 138.703 383.072 139.017 381.907 139.648C381.156 140.098 380.89 140.548 380.89 140.802C380.89 141.056 381.156 141.512 381.907 141.956C383.934 143.168 387.487 143.168 389.508 141.956C390.259 141.506 390.525 141.05 390.525 140.802C390.525 140.554 390.259 140.098 389.508 139.648C388.344 139.016 387.033 138.702 385.708 138.737Z" fill="#D18700"/>
<path d="M263.769 56.7882C261.704 56.8238 259.667 56.31 257.866 55.2997C255.954 54.1458 254.863 52.4554 254.863 50.6381C254.863 48.8207 255.954 47.1245 257.866 45.9822C261.176 43.9975 266.363 43.9975 269.672 45.9822C271.584 47.136 272.676 48.8207 272.676 50.6381C272.676 52.4554 271.584 54.1574 269.672 55.2997C267.872 56.31 265.834 56.8238 263.769 56.7882ZM263.769 48.5726C262.445 48.5412 261.135 48.8554 259.969 49.4842C259.218 49.9342 258.952 50.3842 258.952 50.6381C258.952 50.8919 259.218 51.3477 259.969 51.7919C261.99 53.0035 265.543 53.0035 267.57 51.7919C268.321 51.3419 268.587 50.8861 268.587 50.6381C268.587 50.39 268.321 49.9342 267.57 49.4842C266.404 48.8554 265.094 48.5412 263.769 48.5726Z" fill="#FFCC00"/>
<path d="M319.722 23.3024C317.657 23.3365 315.62 22.8229 313.819 21.8139C311.913 20.66 310.815 18.9754 310.815 17.158C310.815 15.3406 311.913 13.6444 313.819 12.4963C317.129 10.5116 322.316 10.5116 325.631 12.4963C327.537 13.6502 328.629 15.3406 328.629 17.158C328.629 18.9754 327.537 20.6716 325.631 21.8139C323.828 22.8236 321.789 23.3373 319.722 23.3024ZM319.722 15.0925C318.398 15.0599 317.088 15.372 315.921 15.9983C315.171 16.4484 314.905 16.9041 314.905 17.1522C314.905 17.4003 315.171 17.8561 315.921 18.3061C317.949 19.5235 321.501 19.5235 323.523 18.3061C324.274 17.8561 324.545 17.4061 324.545 17.1522C324.545 16.8984 324.274 16.4426 323.523 15.9983C322.357 15.3708 321.046 15.0585 319.722 15.0925Z" fill="#FFCC00"/>
<path d="M442.192 67.8596C440.127 67.8951 438.089 67.3813 436.289 66.371C434.383 65.2172 433.285 63.5267 433.285 61.7094C433.285 59.892 434.383 58.1958 436.289 57.0534C439.598 55.0688 444.785 55.0688 448.095 57.0534C450.007 58.2073 451.098 59.892 451.098 61.7094C451.098 63.5267 450.007 65.2287 448.095 66.371C446.294 67.3813 444.257 67.8951 442.192 67.8596ZM442.192 59.6439C440.867 59.6125 439.557 59.9267 438.391 60.5555C437.64 61.0055 437.375 61.4613 437.375 61.7094C437.375 61.9574 437.64 62.419 438.391 62.8632C440.419 64.0748 443.971 64.0748 445.992 62.8632C446.743 62.4132 447.009 61.9574 447.009 61.7094C447.009 61.4613 446.743 61.0055 445.992 60.5555C444.826 59.9267 443.516 59.6125 442.192 59.6439Z" fill="#FFCC00"/>
<path d="M283.83 107.934C281.767 107.977 279.729 107.471 277.927 106.469C276.015 105.315 274.923 103.624 274.923 101.807C274.923 99.9897 276.015 98.2934 277.927 97.1511C281.236 95.1664 286.423 95.1664 289.733 97.1511C291.639 98.305 292.736 99.9897 292.736 101.807C292.736 103.624 291.639 105.326 289.733 106.469C287.93 107.47 285.893 107.976 283.83 107.934ZM283.83 99.7185C282.505 99.6835 281.194 99.998 280.029 100.63C279.278 101.08 279.012 101.53 279.012 101.784C279.012 102.038 279.278 102.494 280.029 102.938C282.051 104.149 285.603 104.149 287.63 102.938C288.381 102.488 288.647 102.032 288.647 101.784C288.647 101.536 288.381 101.08 287.63 100.63C286.465 99.9985 285.155 99.6841 283.83 99.7185Z" fill="#FFCC00"/>
<path d="M303.434 144.276C301.877 144.218 300.405 143.558 299.327 142.435C296.548 139.752 295.208 134.744 296.271 131.041C296.883 128.9 298.241 127.406 299.997 126.938C301.753 126.471 303.682 127.083 305.282 128.629C308.06 131.306 309.4 136.314 308.337 140.023C307.725 142.158 306.368 143.652 304.612 144.126C304.227 144.227 303.831 144.277 303.434 144.276ZM301.181 130.867H301.06C300.811 130.937 300.442 131.312 300.199 132.154C299.552 134.421 300.47 137.848 302.169 139.487C302.798 140.064 303.324 140.231 303.549 140.168C303.774 140.104 304.167 139.729 304.41 138.887C305.057 136.62 304.138 133.193 302.44 131.554C302.116 131.182 301.67 130.938 301.181 130.867Z" fill="#FFCC00"/>
<path d="M343.814 141.379C342.257 141.32 340.784 140.658 339.707 139.533C336.935 136.85 335.589 131.848 336.651 128.139C337.264 126.004 338.627 124.51 340.383 124.036C342.139 123.563 344.062 124.181 345.662 125.727C348.44 128.41 349.781 133.412 348.724 137.121C348.111 139.256 346.748 140.75 344.992 141.224C344.608 141.327 344.212 141.379 343.814 141.379ZM341.561 127.965C341.521 127.959 341.48 127.959 341.44 127.965C341.197 128.029 340.828 128.404 340.585 129.246C339.932 131.514 340.856 134.941 342.549 136.579C343.184 137.156 343.704 137.329 343.935 137.26C344.166 137.191 344.547 136.821 344.79 135.979C345.437 133.712 344.519 130.285 342.82 128.646C342.496 128.276 342.049 128.034 341.561 127.965Z" fill="#FFCC00"/>
<path d="M375.871 171.432C375.481 171.43 375.093 171.378 374.716 171.276C372.983 170.809 371.603 169.315 370.99 167.174C369.928 163.464 371.268 158.462 374.046 155.78C375.646 154.239 377.569 153.622 379.325 154.089C381.081 154.557 382.444 156.057 383.057 158.191C384.119 161.901 382.774 166.909 380.001 169.586C378.919 170.716 377.436 171.379 375.871 171.432ZM378.124 158.024C377.634 158.094 377.186 158.34 376.865 158.716C375.167 160.355 374.248 163.782 374.895 166.049C375.138 166.892 375.507 167.267 375.75 167.336C375.993 167.405 376.507 167.261 377.136 166.649C378.834 165.011 379.753 161.584 379.1 159.316C378.863 158.474 378.488 158.099 378.245 158.035C378.206 158.025 378.165 158.021 378.124 158.024Z" fill="#FFCC00"/>
<path d="M436.578 118.705C436.187 118.704 435.799 118.651 435.422 118.55C433.69 118.082 432.309 116.582 431.697 114.448C430.634 110.738 431.974 105.736 434.752 103.053C436.352 101.513 438.276 100.895 440.032 101.363C441.788 101.83 443.151 103.33 443.763 105.465C444.826 109.174 443.48 114.176 440.708 116.859C439.625 117.99 438.143 118.652 436.578 118.705ZM438.83 105.292C438.34 105.365 437.893 105.613 437.571 105.99C435.873 107.628 434.955 111.055 435.601 113.323C435.844 114.165 436.214 114.54 436.456 114.603C436.699 114.667 437.213 114.534 437.843 113.923C439.541 112.284 440.459 108.857 439.806 106.59C439.57 105.747 439.194 105.372 438.952 105.309C438.911 105.304 438.87 105.306 438.83 105.315V105.292Z" fill="#D18700"/>
<path d="M307.39 186.196C305.833 186.137 304.36 185.475 303.284 184.35C300.511 181.673 299.165 176.665 300.228 172.955C300.84 170.821 302.204 169.326 303.959 168.853C305.715 168.38 307.639 169.003 309.239 170.544C312.017 173.226 313.357 178.228 312.3 181.938C311.688 184.079 310.325 185.573 308.569 186.04C308.185 186.144 307.788 186.196 307.39 186.196ZM305.138 172.817C305.098 172.811 305.057 172.811 305.017 172.817C304.774 172.88 304.404 173.255 304.162 174.098C303.509 176.365 304.433 179.792 306.131 181.43C306.761 182.042 307.287 182.181 307.512 182.111C307.737 182.042 308.124 181.673 308.367 180.83C309.014 178.563 308.095 175.136 306.397 173.498C306.073 173.126 305.626 172.884 305.138 172.817Z" fill="#FFCC00"/>
<path d="M231.308 76.3697C236.556 76.3697 240.81 73.8203 240.81 70.6754C240.81 67.5304 236.556 64.981 231.308 64.981C226.061 64.981 221.807 67.5304 221.807 70.6754C221.807 73.8203 226.061 76.3697 231.308 76.3697Z" fill="#FFCC00"/>
<path d="M349.517 72.4161C350.875 67.3531 349.51 62.589 346.469 61.775C343.428 60.961 339.861 64.4055 338.503 69.4685C337.145 74.5314 338.509 79.2956 341.551 80.1096C344.592 80.9235 348.158 77.479 349.517 72.4161Z" fill="#D18700"/>
<path d="M270.678 197.867C267.57 194.867 264.076 195.802 262.886 199.956C261.696 204.11 263.261 209.92 266.351 212.92C269.442 215.92 272.953 214.985 274.143 210.831C275.333 206.677 273.779 200.867 270.678 197.867Z" fill="#FFCC00"/>
<path d="M383.947 57.1727C386.989 56.3588 388.353 51.5946 386.995 46.5317C385.637 41.4687 382.07 38.0242 379.029 38.8382C375.988 39.6522 374.623 44.4163 375.981 49.4793C377.34 54.5422 380.906 57.9867 383.947 57.1727Z" fill="#FFCC00"/>
<path d="M400.229 65.0328C405.476 65.0328 409.73 62.4834 409.73 59.3384C409.73 56.1935 405.476 53.644 400.229 53.644C394.981 53.644 390.727 56.1935 390.727 59.3384C390.727 62.4834 394.981 65.0328 400.229 65.0328Z" fill="#FFCC00"/>
<path d="M399.172 109.059C404.419 109.059 408.673 106.509 408.673 103.364C408.673 100.219 404.419 97.6699 399.172 97.6699C393.924 97.6699 389.67 100.219 389.67 103.364C389.67 106.509 393.924 109.059 399.172 109.059Z" fill="#FFCC00"/>
<path d="M362.748 132.523C367.996 132.523 372.25 129.974 372.25 126.829C372.25 123.684 367.996 121.134 362.748 121.134C357.5 121.134 353.246 123.684 353.246 126.829C353.246 129.974 357.5 132.523 362.748 132.523Z" fill="#D18700"/>
<path d="M419.232 166.268C424.48 166.268 428.734 163.719 428.734 160.574C428.734 157.429 424.48 154.879 419.232 154.879C413.985 154.879 409.73 157.429 409.73 160.574C409.73 163.719 413.985 166.268 419.232 166.268Z" fill="#D18700"/>
<path d="M287.526 154.931C292.774 154.931 297.028 152.382 297.028 149.237C297.028 146.092 292.774 143.542 287.526 143.542C282.279 143.542 278.025 146.092 278.025 149.237C278.025 152.382 282.279 154.931 287.526 154.931Z" fill="#D18700"/>
<path d="M325.007 200.014C330.255 200.014 334.509 197.464 334.509 194.319C334.509 191.174 330.255 188.625 325.007 188.625C319.76 188.625 315.506 191.174 315.506 194.319C315.506 197.464 319.76 200.014 325.007 200.014Z" fill="#D18700"/>
<path d="M302.041 33.9239C307.289 33.9239 311.543 31.3745 311.543 28.2295C311.543 25.0846 307.289 22.5352 302.041 22.5352C296.794 22.5352 292.54 25.0846 292.54 28.2295C292.54 31.3745 296.794 33.9239 302.041 33.9239Z" fill="#FFCC00"/>
<path d="M307.582 135.635L304.87 140.16L342.648 162.752L345.36 158.228L307.582 135.635Z" fill="#FFCC00"/>
<path d="M420.56 45.7935L417.812 50.2959L436.429 61.6335L439.178 57.1311L420.56 45.7935Z" fill="#FFCC00"/>
<path d="M345.957 3.03584L341.868 3.04297L341.987 70.9083L346.076 70.9012L345.957 3.03584Z" fill="#D18700"/>
<path d="M363.7 124.982L361.585 128.479L380.287 139.765L382.402 136.269L363.7 124.982Z" fill="#D18700"/>
<path d="M419.995 158.701L417.891 162.204L455.451 184.711L457.554 181.208L419.995 158.701Z" fill="#D18700"/>
<path d="M248.831 102.079L229.944 113.396L232.66 117.918L251.546 106.601L248.831 102.079Z" fill="#D18700"/>
<path d="M289.59 146.392L233.21 180.443L235.955 184.978L292.335 150.927L289.59 146.392Z" fill="#D18700"/>
<path d="M326.454 191.891L323.739 196.413L379.976 230.112L382.692 225.59L326.454 191.891Z" fill="#D18700"/>
<path d="M384.015 48.2783H378.736V93.17H384.015V48.2783Z" fill="#FFCC00"/>
<path d="M435.119 81.8045L435.052 104.328L440.331 104.344L440.398 81.8202L435.119 81.8045Z" fill="#D18700"/>
<path d="M398.888 79.5031L342.536 113.19L345.247 117.715L401.599 84.0279L398.888 79.5031Z" fill="#D18700"/>
<path d="M403.92 85.2604C401.855 85.2954 399.818 84.7817 398.017 83.7719C396.111 82.618 395.013 80.9276 395.013 79.1102C395.013 77.2929 396.111 75.5967 398.017 74.4543C401.326 72.4697 406.513 72.4697 409.823 74.4543C411.735 75.6082 412.827 77.2929 412.827 79.1102C412.827 80.9276 411.735 82.6296 409.823 83.7719C408.022 84.7822 405.985 85.2959 403.92 85.2604ZM403.92 77.0448C402.595 77.0139 401.285 77.328 400.119 77.9564C399.368 78.4064 399.103 78.8622 399.103 79.1102C399.103 79.3583 399.368 79.8199 400.119 80.2641C402.147 81.4757 405.699 81.4757 407.72 80.2641C408.471 79.8141 408.737 79.3583 408.737 79.1102C408.737 78.8622 408.471 78.4064 407.72 77.9564C406.555 77.3268 405.245 77.0125 403.92 77.0448Z" fill="#D18700"/>
<path d="M344.01 121.186C349.258 121.186 353.512 118.637 353.512 115.492C353.512 112.347 349.258 109.797 344.01 109.797C338.763 109.797 334.509 112.347 334.509 115.492C334.509 118.637 338.763 121.186 344.01 121.186Z" fill="#D18700"/>
<path d="M267.57 207.75L228.772 184.5V65.927L269.043 90.0085L342.647 45.7456L345.368 50.263L269.055 96.1586L234.052 75.2272V181.511L270.291 203.227L267.57 207.75Z" fill="#FFCC00"/>
<path d="M344.01 53.6959C349.258 53.6959 353.512 51.1465 353.512 48.0015C353.512 44.8566 349.258 42.3071 344.01 42.3071C338.763 42.3071 334.509 44.8566 334.509 48.0015C334.509 51.1465 338.763 53.6959 344.01 53.6959Z" fill="#FFCC00"/>
<path d="M401.604 61.5941L398.889 57.0767L414.016 48.0072L343.901 6.15018L326.573 16.6216L323.841 12.11L343.889 0L424.292 47.9956L401.604 61.5941Z" fill="#FFCC00"/>
<path d="M271.567 115.549H266.288V160.522H271.567V115.549Z" fill="#FFCC00"/>
<path d="M269.65 175.124C268.092 175.067 266.619 174.404 265.543 173.278C262.765 170.595 261.425 165.593 262.487 161.884C263.1 159.749 264.457 158.255 266.213 157.782C267.969 157.309 269.898 157.926 271.498 159.472C274.276 162.155 275.616 167.157 274.553 170.867C273.941 173.001 272.584 174.496 270.828 174.969C270.444 175.072 270.047 175.124 269.65 175.124ZM267.391 161.711C267.351 161.704 267.31 161.704 267.27 161.711C267.021 161.774 266.652 162.149 266.409 162.991C265.762 165.259 266.681 168.686 268.379 170.324C269.008 170.901 269.534 171.074 269.759 171.005C269.985 170.936 270.377 170.567 270.614 169.724C271.267 167.457 270.348 164.03 268.65 162.391C268.326 162.021 267.879 161.779 267.391 161.711Z" fill="#FFCC00"/>
<path d="M270.678 107.969C267.57 104.969 264.076 105.903 262.886 110.052C261.696 114.2 263.261 120.021 266.351 123.021C269.442 126.021 272.953 125.081 274.143 120.933C275.333 116.784 273.779 110.969 270.678 107.969Z" fill="#FFCC00"/>
<path d="M346.65 255.146L303.809 229.472V183.005H309.088V226.483L341.365 245.828L341.255 138.079L346.535 138.073L346.65 255.146Z" fill="#FFCC00"/>
<path d="M366.139 240.608C367.497 235.545 366.133 230.781 363.091 229.967C360.05 229.153 356.484 232.597 355.125 237.66C353.767 242.723 355.132 247.487 358.173 248.301C361.214 249.115 364.781 245.671 366.139 240.608Z" fill="#FFCC00"/>
<path d="M257.136 106.683C258.494 101.62 257.13 96.8556 254.089 96.0416C251.047 95.2277 247.481 98.6721 246.123 103.735C244.764 108.798 246.129 113.562 249.17 114.376C252.211 115.19 255.778 111.746 257.136 106.683Z" fill="#D18700"/>
<path d="M398.889 214.519L361.369 237.002L364.085 241.524L401.605 219.041L398.889 214.519Z" fill="#FFCC00"/>
<path d="M440.349 149.312H435.07V194.285H440.349V149.312Z" fill="#FFCC00"/>
<path d="M443.215 145.179C444.573 140.116 443.209 135.352 440.167 134.538C437.126 133.724 433.559 137.169 432.201 142.232C430.843 147.295 432.208 152.059 435.249 152.873C438.29 153.687 441.857 150.242 443.215 145.179Z" fill="#FFCC00"/>
<path d="M397.607 221.389V153.933L382.849 162.778L380.128 158.26L402.886 144.621V212.077L453.889 181.511V75.2327L401.627 106.555L398.912 102.032L459.168 65.9209V184.499L397.607 221.389Z" fill="#FFCC00"/>
<path d="M83.2807 158.292L45.6129 180.685L48.313 185.216L85.9808 162.823L83.2807 158.292Z" fill="#FFCC00"/>
<path d="M84.6482 253.537L64.4551 241.536L67.1583 237.007L84.6366 247.398L120.841 225.699L123.556 230.222L84.6482 253.537Z" fill="#FFCC00"/>
<path d="M125.878 231.249C123.813 231.285 121.775 230.771 119.975 229.761C118.063 228.607 116.971 226.922 116.971 225.105C116.971 223.287 118.063 221.591 119.975 220.443C123.284 218.458 128.471 218.458 131.781 220.443C133.687 221.597 134.784 223.287 134.784 225.105C134.784 226.922 133.687 228.618 131.781 229.761C129.98 230.77 127.943 231.284 125.878 231.249ZM125.878 223.039C124.553 223.005 123.243 223.318 122.077 223.945C121.326 224.395 121.06 224.851 121.06 225.099C121.06 225.347 121.326 225.803 122.077 226.253C124.099 227.47 127.651 227.47 129.678 226.253C130.429 225.803 130.695 225.353 130.695 225.099C130.695 224.845 130.429 224.389 129.678 223.945C128.512 223.319 127.202 223.007 125.878 223.039Z" fill="#FFCC00"/>
<path d="M163.901 281.858C161.836 281.894 159.799 281.38 157.998 280.37C156.086 279.216 154.995 277.525 154.995 275.708C154.995 273.891 156.086 272.194 157.998 271.052C161.308 269.067 166.495 269.067 169.804 271.052C171.711 272.206 172.808 273.891 172.808 275.708C172.808 277.525 171.711 279.227 169.804 280.37C168.003 281.379 165.966 281.893 163.901 281.858ZM163.901 273.642C162.577 273.61 161.266 273.924 160.101 274.554C159.35 275.004 159.084 275.46 159.084 275.708C159.084 275.956 159.35 276.418 160.101 276.862C162.122 278.073 165.675 278.073 167.702 276.862C168.453 276.412 168.719 275.956 168.719 275.708C168.719 275.46 168.453 275.004 167.702 274.554C166.535 273.929 165.225 273.619 163.901 273.654V273.642Z" fill="#D18700"/>
<path d="M41.963 191.706C39.8962 191.741 37.8571 191.227 36.0541 190.217C34.148 189.063 33.0563 187.379 33.0563 185.561C33.0563 183.744 34.148 182.042 36.0541 180.9C39.3695 178.915 44.5564 178.915 47.8661 180.9C49.7722 182.054 50.8697 183.744 50.8697 185.561C50.8697 187.379 49.7722 189.075 47.8661 190.217C46.0648 191.226 44.0279 191.74 41.963 191.706ZM41.963 183.49C40.6382 183.458 39.328 183.772 38.1623 184.402C37.4114 184.852 37.14 185.307 37.14 185.556C37.14 185.804 37.4114 186.259 38.1623 186.709C40.1839 187.921 43.7362 187.921 45.7636 186.709C46.5145 186.259 46.7802 185.804 46.7802 185.556C46.7802 185.307 46.5145 184.846 45.7636 184.402C44.5975 183.773 43.2876 183.459 41.963 183.49Z" fill="#FFCC00"/>
<path d="M97.9156 158.226C95.8506 158.261 93.8132 157.748 92.0125 156.737C90.1006 155.583 89.0089 153.893 89.0089 152.076C89.0089 150.258 90.1006 148.562 92.0125 147.42C95.3222 145.435 100.509 145.435 103.819 147.42C105.731 148.574 106.822 150.258 106.822 152.076C106.822 153.893 105.731 155.595 103.819 156.737C102.018 157.748 99.9807 158.261 97.9156 158.226ZM97.9156 150.01C96.5909 149.979 95.2809 150.293 94.115 150.922C93.3641 151.372 93.0984 151.822 93.0984 152.076C93.0984 152.329 93.3641 152.785 94.115 153.229C96.1424 154.441 99.6889 154.441 101.716 153.229C102.467 152.779 102.733 152.324 102.733 152.076C102.733 151.827 102.467 151.372 101.716 150.922C100.55 150.293 99.2403 149.979 97.9156 150.01Z" fill="#FFCC00"/>
<path d="M220.385 202.777C218.319 202.812 216.28 202.298 214.477 201.288C212.57 200.135 211.479 198.45 211.479 196.633C211.479 194.815 212.57 193.113 214.477 191.971C217.792 189.986 222.979 189.986 226.289 191.971C228.195 193.125 229.292 194.815 229.292 196.633C229.292 198.45 228.195 200.146 226.289 201.288C224.488 202.298 222.45 202.812 220.385 202.777ZM220.385 194.561C219.061 194.529 217.75 194.843 216.585 195.473C215.834 195.923 215.568 196.379 215.568 196.627C215.568 196.875 215.834 197.331 216.585 197.781C218.606 198.998 222.159 198.998 224.186 197.781C224.937 197.331 225.203 196.881 225.203 196.627C225.203 196.373 224.937 195.917 224.186 195.473C223.02 194.845 221.71 194.53 220.385 194.561Z" fill="#FFCC00"/>
<path d="M62.0175 242.851C59.9526 242.885 57.9156 242.372 56.1144 241.363C54.2083 240.209 53.1108 238.518 53.1108 236.701C53.1108 234.884 54.2083 233.187 56.1144 232.045C59.4241 230.06 64.611 230.06 67.9264 232.045C69.8325 233.199 70.9242 234.884 70.9242 236.701C70.9242 238.518 69.8325 240.22 67.9264 241.363C66.1234 242.372 64.0843 242.886 62.0175 242.851ZM62.0175 234.636C60.6929 234.605 59.383 234.919 58.2169 235.547C57.466 235.997 57.2003 236.453 57.2003 236.701C57.2003 236.949 57.466 237.411 58.2169 237.855C60.2443 239.066 63.7966 239.066 65.8182 237.855C66.5691 237.405 66.8405 236.949 66.8405 236.701C66.8405 236.453 66.5691 235.997 65.8182 235.547C64.6525 234.918 63.3423 234.603 62.0175 234.636Z" fill="#FFCC00"/>
<path d="M81.6214 279.199C80.0659 279.14 78.5947 278.478 77.5204 277.352C74.7422 274.67 73.4021 269.668 74.4591 265.958C75.0714 263.823 76.4345 262.329 78.1905 261.856C79.9464 261.383 81.8756 262 83.4756 263.546C86.2481 266.229 87.5939 271.231 86.5311 274.941C85.9188 277.075 84.5557 278.57 82.7997 279.043C82.4155 279.146 82.0194 279.199 81.6214 279.199ZM79.3745 265.785C79.3324 265.778 79.2896 265.778 79.2475 265.785C79.0049 265.848 78.6352 266.223 78.3926 267.066C77.7457 269.333 78.6641 272.76 80.3623 274.398C80.9918 274.975 81.5175 275.148 81.7427 275.079C81.968 275.01 82.355 274.641 82.5976 273.798C83.2503 271.531 82.3261 268.104 80.6337 266.466C80.3082 266.096 79.8619 265.855 79.3745 265.785Z" fill="#FFCC00"/>
<path d="M122.008 276.297C120.45 276.239 118.977 275.577 117.901 274.45C115.123 271.773 113.783 266.766 114.845 263.056C115.458 260.921 116.815 259.427 118.571 258.954C120.327 258.481 122.256 259.104 123.856 260.644C126.634 263.327 127.974 268.335 126.911 272.039C126.299 274.179 124.942 275.674 123.186 276.141C122.802 276.244 122.405 276.296 122.008 276.297ZM119.755 262.889H119.634C119.385 262.952 119.016 263.327 118.773 264.169C118.126 266.437 119.044 269.864 120.743 271.502C121.372 272.114 121.898 272.252 122.123 272.189C122.348 272.125 122.741 271.745 122.984 270.908C123.631 268.641 122.712 265.214 121.014 263.569C120.691 263.198 120.243 262.956 119.755 262.889Z" fill="#FFCC00"/>
<path d="M154.065 306.349C153.675 306.349 153.286 306.299 152.909 306.199C151.176 305.726 149.79 304.232 149.178 302.097C148.115 298.387 149.461 293.38 152.234 290.703C153.833 289.156 155.763 288.539 157.519 289.012C159.275 289.485 160.638 290.974 161.25 293.114C162.307 296.818 160.967 301.826 158.189 304.509C157.107 305.636 155.627 306.296 154.065 306.349ZM156.311 292.941C155.823 293.015 155.378 293.263 155.058 293.639C153.36 295.278 152.436 298.705 153.088 300.972C153.331 301.814 153.701 302.189 153.943 302.253C154.186 302.316 154.694 302.178 155.324 301.572C157.022 299.928 157.94 296.501 157.293 294.233C157.051 293.397 156.681 293.022 156.438 292.953L156.311 292.941Z" fill="#FFCC00"/>
<path d="M214.771 253.623C214.381 253.62 213.994 253.57 213.616 253.473C211.883 253 210.497 251.506 209.885 249.365C208.822 245.661 210.168 240.653 212.94 237.976C214.54 236.43 216.469 235.813 218.225 236.286C219.981 236.759 221.344 238.248 221.951 240.388C223.014 244.092 221.674 249.1 218.895 251.777C217.815 252.908 216.335 253.57 214.771 253.623ZM217.018 240.215C216.528 240.29 216.082 240.538 215.759 240.913C214.067 242.552 213.142 245.979 213.795 248.246C214.038 249.083 214.407 249.458 214.65 249.527C214.892 249.596 215.401 249.452 216.03 248.846C217.729 247.202 218.647 243.775 218 241.507C217.757 240.671 217.388 240.296 217.145 240.227L217.018 240.215Z" fill="#D18700"/>
<path d="M85.5838 321.09C84.0264 321.032 82.553 320.37 81.477 319.244C78.6987 316.567 77.3587 311.559 78.4215 307.855C79.0338 305.715 80.3911 304.22 82.147 303.753C83.9029 303.286 85.8322 303.897 87.4321 305.443C90.2104 308.12 91.5504 313.128 90.4876 316.832C89.8754 318.973 88.518 320.467 86.7621 320.94C86.3776 321.041 85.9814 321.092 85.5838 321.09ZM83.3311 307.682H83.2098C82.9615 307.751 82.5918 308.126 82.355 308.963C81.7023 311.23 82.6207 314.657 84.3188 316.301C84.9484 316.878 85.474 317.046 85.6993 316.982C85.9246 316.919 86.3173 316.544 86.5599 315.701C87.2068 313.434 86.2885 310.007 84.5903 308.368C84.2631 308.005 83.8166 307.769 83.3311 307.705V307.682Z" fill="#FFCC00"/>
<path d="M9.49564 211.287C14.7432 211.287 18.9973 208.738 18.9973 205.593C18.9973 202.448 14.7432 199.898 9.49564 199.898C4.24804 199.898 -0.00598145 202.448 -0.00598145 205.593C-0.00598145 208.738 4.24804 211.287 9.49564 211.287Z" fill="#FFCC00"/>
<path d="M127.706 207.334C129.064 202.271 127.7 197.506 124.658 196.692C121.617 195.879 118.051 199.323 116.692 204.386C115.334 209.449 116.699 214.213 119.74 215.027C122.781 215.841 126.348 212.397 127.706 207.334Z" fill="#D18700"/>
<path d="M48.8657 332.791C45.7581 329.79 42.2694 330.725 41.0795 334.873C39.8897 339.021 41.4492 344.837 44.5452 347.837C47.6411 350.837 51.1472 349.903 52.3313 345.754C53.5154 341.606 51.9732 335.791 48.8657 332.791Z" fill="#FFCC00"/>
<path d="M162.137 192.09C165.178 191.276 166.542 186.512 165.184 181.449C163.826 176.386 160.259 172.942 157.218 173.756C154.177 174.57 152.812 179.334 154.171 184.397C155.529 189.46 159.095 192.904 162.137 192.09Z" fill="#FFCC00"/>
<path d="M178.417 199.95C183.664 199.95 187.918 197.401 187.918 194.256C187.918 191.111 183.664 188.562 178.417 188.562C173.169 188.562 168.915 191.111 168.915 194.256C168.915 197.401 173.169 199.95 178.417 199.95Z" fill="#FFCC00"/>
<path d="M177.365 243.982C182.613 243.982 186.867 241.433 186.867 238.288C186.867 235.143 182.613 232.593 177.365 232.593C172.118 232.593 167.864 235.143 167.864 238.288C167.864 241.433 172.118 243.982 177.365 243.982Z" fill="#FFCC00"/>
<path d="M140.942 267.446C146.189 267.446 150.443 264.897 150.443 261.752C150.443 258.607 146.189 256.058 140.942 256.058C135.694 256.058 131.44 258.607 131.44 261.752C131.44 264.897 135.694 267.446 140.942 267.446Z" fill="#D18700"/>
<path d="M197.42 301.192C202.668 301.192 206.922 298.642 206.922 295.497C206.922 292.352 202.668 289.803 197.42 289.803C192.172 289.803 187.918 292.352 187.918 295.497C187.918 298.642 192.172 301.192 197.42 301.192Z" fill="#D18700"/>
<path d="M65.7141 289.855C70.9617 289.855 75.2158 287.305 75.2158 284.16C75.2158 281.015 70.9617 278.466 65.7141 278.466C60.4665 278.466 56.2125 281.015 56.2125 284.16C56.2125 287.305 60.4665 289.855 65.7141 289.855Z" fill="#D18700"/>
<path d="M103.195 334.937C108.443 334.937 112.697 332.387 112.697 329.242C112.697 326.097 108.443 323.548 103.195 323.548C97.9474 323.548 93.6934 326.097 93.6934 329.242C93.6934 332.387 97.9474 334.937 103.195 334.937Z" fill="#D18700"/>
<path d="M80.2353 168.841C85.4829 168.841 89.7369 166.292 89.7369 163.147C89.7369 160.002 85.4829 157.453 80.2353 157.453C74.9877 157.453 70.7336 160.002 70.7336 163.147C70.7336 166.292 74.9877 168.841 80.2353 168.841Z" fill="#FFCC00"/>
<path d="M85.7785 270.551L83.0665 275.076L120.844 297.668L123.556 293.144L85.7785 270.551Z" fill="#FFCC00"/>
<path d="M198.733 180.714L195.985 185.216L214.602 196.554L217.35 192.052L198.733 180.714Z" fill="#FFCC00"/>
<path d="M124.156 137.97L120.067 137.978L120.185 205.843L124.275 205.836L124.156 137.97Z" fill="#D18700"/>
<path d="M141.899 259.898L139.784 263.395L158.487 274.681L160.601 271.185L141.899 259.898Z" fill="#D18700"/>
<path d="M198.201 293.619L196.098 297.122L233.657 319.628L235.761 316.125L198.201 293.619Z" fill="#D18700"/>
<path d="M26.9978 236.99L8.11157 248.307L10.8275 252.829L29.7137 241.512L26.9978 236.99Z" fill="#D18700"/>
<path d="M67.4946 282.63L11.1145 316.681L13.8597 321.216L70.2398 287.165L67.4946 282.63Z" fill="#D18700"/>
<path d="M104.667 326.809L101.951 331.331L158.189 365.03L160.905 360.508L104.667 326.809Z" fill="#D18700"/>
<path d="M162.203 183.196H156.924V228.088H162.203V183.196Z" fill="#FFCC00"/>
<path d="M213.318 216.723L213.251 239.247L218.531 239.262L218.598 216.739L213.318 216.723Z" fill="#D18700"/>
<path d="M177.097 214.431L120.745 248.119L123.456 252.643L179.809 218.956L177.097 214.431Z" fill="#D18700"/>
<path d="M182.113 220.177C180.048 220.213 178.011 219.699 176.21 218.689C174.298 217.535 173.207 215.85 173.207 214.033C173.207 212.216 174.298 210.514 176.21 209.371C179.52 207.387 184.707 207.387 188.017 209.371C189.923 210.525 191.02 212.216 191.02 214.033C191.02 215.85 189.923 217.547 188.017 218.689C186.216 219.699 184.178 220.212 182.113 220.177ZM182.113 211.962C180.789 211.93 179.478 212.244 178.313 212.873C177.562 213.323 177.296 213.779 177.296 214.027C177.296 214.275 177.562 214.731 178.313 215.181C180.334 216.398 183.887 216.398 185.914 215.181C186.665 214.731 186.931 214.275 186.931 214.027C186.931 213.779 186.665 213.318 185.914 212.873C184.748 212.245 183.438 211.93 182.113 211.962Z" fill="#D18700"/>
<path d="M122.198 256.109C127.446 256.109 131.7 253.56 131.7 250.415C131.7 247.27 127.446 244.721 122.198 244.721C116.951 244.721 112.697 247.27 112.697 250.415C112.697 253.56 116.951 256.109 122.198 256.109Z" fill="#D18700"/>
<path d="M45.7636 342.674L6.96008 319.417V200.844L47.2365 224.932L120.841 180.663L123.561 185.181L47.2423 231.076L12.2394 210.15V316.434L48.4784 338.15L45.7636 342.674Z" fill="#FFCC00"/>
<path d="M122.198 188.619C127.446 188.619 131.7 186.069 131.7 182.924C131.7 179.779 127.446 177.23 122.198 177.23C116.951 177.23 112.697 179.779 112.697 182.924C112.697 186.069 116.951 188.619 122.198 188.619Z" fill="#FFCC00"/>
<path d="M179.797 196.517L177.083 191.994L192.21 182.925L122.094 141.073L104.766 151.539L102.034 147.027L122.077 134.917L202.486 182.919L179.797 196.517Z" fill="#FFCC00"/>
<path d="M49.7608 250.467H44.4814V295.439H49.7608V250.467Z" fill="#FFCC00"/>
<path d="M47.8371 310.042C46.2816 309.983 44.8104 309.321 43.7361 308.196C40.9578 305.519 39.6178 300.511 40.6748 296.807C41.2871 294.666 42.6502 293.172 44.4062 292.699C46.1621 292.226 48.0913 292.849 49.6912 294.395C52.4637 297.072 53.8096 302.08 52.7468 305.784C52.1345 307.924 50.7714 309.419 49.0154 309.886C48.6312 309.989 48.2351 310.042 47.8371 310.042ZM45.5902 296.634H45.4632C45.2206 296.697 44.8509 297.072 44.6083 297.914C43.9614 300.182 44.8798 303.609 46.5779 305.247C47.2075 305.859 47.7332 305.997 47.9584 305.934C48.1837 305.87 48.5707 305.49 48.8133 304.653C49.466 302.386 48.5418 298.959 46.8437 297.314C46.5222 296.943 46.0768 296.701 45.5902 296.634Z" fill="#FFCC00"/>
<path d="M48.8657 242.886C45.7581 239.886 42.2694 240.827 41.0795 244.975C39.8897 249.123 41.4492 254.938 44.5452 257.939C47.6411 260.939 51.1472 260.004 52.3313 255.856C53.5154 251.708 51.9732 245.886 48.8657 242.886Z" fill="#FFCC00"/>
<path d="M124.844 390.063L82.0026 364.39V317.923H87.2819V361.401L119.559 380.746L119.443 273.002L124.722 272.997L124.844 390.063Z" fill="#FFCC00"/>
<path d="M144.334 375.527C145.692 370.464 144.328 365.7 141.286 364.886C138.245 364.072 134.678 367.516 133.32 372.579C131.962 377.642 133.327 382.406 136.368 383.22C139.409 384.034 142.976 380.59 144.334 375.527Z" fill="#FFCC00"/>
<path d="M35.3309 241.602C36.6891 236.539 35.3247 231.775 32.2834 230.961C29.2421 230.147 25.6757 233.591 24.3175 238.654C22.9593 243.717 24.3237 248.481 27.365 249.295C30.4063 250.109 33.9727 246.665 35.3309 241.602Z" fill="#D18700"/>
<path d="M177.062 349.429L139.542 371.912L142.258 376.434L179.778 353.951L177.062 349.429Z" fill="#FFCC00"/>
<path d="M218.543 284.229H213.264V329.202H218.543V284.229Z" fill="#FFCC00"/>
<path d="M221.404 280.091C222.762 275.028 221.398 270.264 218.356 269.45C215.315 268.636 211.749 272.081 210.391 277.144C209.032 282.207 210.397 286.971 213.438 287.785C216.479 288.599 220.046 285.154 221.404 280.091Z" fill="#FFCC00"/>
<path d="M175.8 356.312V288.851L161.037 297.701L158.322 293.178L181.079 279.539V346.995L232.076 316.434V210.15L179.814 241.472L177.1 236.955L237.356 200.838V319.417L175.8 356.312Z" fill="#FFCC00"/>
<path d="M308.552 292.236L270.884 314.629L273.584 319.16L311.252 296.767L308.552 292.236Z" fill="#FFCC00"/>
<path d="M309.92 387.473L289.733 375.467L292.43 370.938L309.909 381.334L346.119 359.636L348.834 364.153L309.92 387.473Z" fill="#FFCC00"/>
<path d="M351.144 365.186C349.079 365.221 347.042 364.707 345.241 363.697C343.335 362.543 342.237 360.859 342.237 359.041C342.237 357.224 343.335 355.522 345.241 354.38C348.55 352.395 353.737 352.395 357.047 354.38C358.959 355.534 360.051 357.224 360.051 359.041C360.051 360.859 358.959 362.555 357.047 363.697C355.246 364.708 353.209 365.221 351.144 365.186ZM351.144 356.97C349.819 356.939 348.509 357.253 347.343 357.882C346.592 358.332 346.327 358.787 346.327 359.036C346.327 359.284 346.592 359.739 347.343 360.189C349.371 361.401 352.923 361.401 354.945 360.189C355.695 359.739 355.961 359.284 355.961 359.036C355.961 358.787 355.695 358.326 354.945 357.882C353.779 357.253 352.469 356.939 351.144 356.97Z" fill="#FFCC00"/>
<path d="M389.173 415.806C387.109 415.841 385.071 415.328 383.27 414.318C381.364 413.164 380.267 411.473 380.267 409.656C380.267 407.839 381.364 406.143 383.27 405C386.58 403.016 391.767 403.016 395.077 405C396.989 406.154 398.08 407.839 398.08 409.656C398.08 411.473 396.989 413.17 395.077 414.318C393.276 415.328 391.239 415.842 389.173 415.806ZM389.173 407.591C387.849 407.557 386.538 407.871 385.373 408.502C384.622 408.952 384.356 409.402 384.356 409.656C384.356 409.91 384.622 410.366 385.373 410.81C387.4 412.022 390.953 412.022 392.974 410.81C393.725 410.36 393.991 409.904 393.991 409.656C393.991 409.408 393.725 408.952 392.974 408.502C391.809 407.87 390.499 407.556 389.173 407.591Z" fill="#D18700"/>
<path d="M267.235 325.642C265.17 325.678 263.133 325.164 261.332 324.154C259.42 323 258.328 321.309 258.328 319.492C258.328 317.675 259.42 315.979 261.332 314.836C264.642 312.851 269.829 312.851 273.138 314.836C275.05 315.99 276.142 317.675 276.142 319.492C276.142 321.309 275.05 323.011 273.138 324.154C271.337 325.164 269.3 325.678 267.235 325.642ZM267.235 317.427C265.91 317.395 264.6 317.709 263.434 318.338C262.684 318.788 262.418 319.238 262.418 319.492C262.418 319.746 262.684 320.202 263.434 320.646C265.456 321.858 269.008 321.858 271.036 320.646C271.787 320.196 272.052 319.74 272.052 319.492C272.052 319.244 271.787 318.788 271.036 318.338C269.87 317.709 268.56 317.395 267.235 317.427Z" fill="#FFCC00"/>
<path d="M323.188 292.157C321.123 292.191 319.086 291.677 317.285 290.668C315.379 289.515 314.281 287.83 314.281 286.012C314.281 284.195 315.379 282.499 317.285 281.351C320.595 279.366 325.781 279.366 329.097 281.351C331.003 282.505 332.095 284.195 332.095 286.012C332.095 287.83 331.003 289.526 329.097 290.668C327.294 291.678 325.255 292.192 323.188 292.157ZM323.188 283.947C321.864 283.914 320.554 284.227 319.387 284.853C318.636 285.303 318.371 285.759 318.371 286.007C318.371 286.255 318.636 286.711 319.387 287.161C321.415 288.378 324.967 288.378 326.989 287.161C327.74 286.711 328.011 286.261 328.011 286.007C328.011 285.753 327.74 285.297 326.989 284.853C325.822 284.225 324.512 283.913 323.188 283.947Z" fill="#FFCC00"/>
<path d="M445.658 336.714C443.592 336.749 441.555 336.235 439.754 335.225C437.848 334.071 436.751 332.381 436.751 330.563C436.751 328.746 437.848 327.05 439.754 325.907C443.064 323.923 448.251 323.923 451.561 325.907C453.473 327.061 454.564 328.746 454.564 330.563C454.564 332.381 453.473 334.083 451.561 335.225C449.76 336.235 447.723 336.749 445.658 336.714ZM445.658 328.498C444.333 328.467 443.023 328.781 441.857 329.409C441.106 329.86 440.84 330.315 440.84 330.563C440.84 330.811 441.106 331.273 441.857 331.717C443.884 332.929 447.437 332.929 449.458 331.717C450.209 331.267 450.475 330.811 450.475 330.563C450.475 330.315 450.209 329.86 449.458 329.409C448.292 328.781 446.982 328.467 445.658 328.498Z" fill="#FFCC00"/>
<path d="M287.296 376.788C285.231 376.824 283.193 376.31 281.392 375.3C279.481 374.146 278.389 372.455 278.389 370.638C278.389 368.821 279.481 367.124 281.392 365.982C284.702 363.997 289.889 363.997 293.199 365.982C295.105 367.136 296.202 368.821 296.202 370.638C296.202 372.455 295.105 374.157 293.199 375.3C291.398 376.309 289.361 376.823 287.296 376.788ZM287.296 368.573C285.971 368.538 284.66 368.852 283.495 369.484C282.744 369.934 282.478 370.384 282.478 370.638C282.478 370.892 282.744 371.348 283.495 371.792C285.517 373.003 289.069 373.003 291.096 371.792C291.847 371.342 292.113 370.886 292.113 370.638C292.113 370.39 291.847 369.934 291.096 369.484C289.931 368.853 288.621 368.538 287.296 368.573Z" fill="#FFCC00"/>
<path d="M306.899 413.13C305.343 413.071 303.87 412.411 302.792 411.289C300.014 408.606 298.674 403.598 299.737 399.894C300.349 397.754 301.707 396.26 303.462 395.792C305.218 395.325 307.148 395.937 308.748 397.483C311.526 400.16 312.866 405.168 311.803 408.877C311.191 411.012 309.833 412.506 308.078 412.979C307.693 413.081 307.297 413.131 306.899 413.13ZM304.647 399.721H304.525C304.277 399.791 303.907 400.166 303.665 401.008C303.018 403.275 303.936 406.702 305.634 408.341C306.264 408.918 306.789 409.085 307.015 409.022C307.24 408.958 307.633 408.583 307.875 407.741C308.522 405.473 307.604 402.046 305.906 400.408C305.582 400.036 305.135 399.792 304.647 399.721Z" fill="#FFCC00"/>
<path d="M347.28 410.233C345.722 410.174 344.249 409.512 343.173 408.387C340.4 405.704 339.054 400.702 340.117 396.993C340.729 394.858 342.093 393.364 343.849 392.89C345.604 392.417 347.528 393.035 349.128 394.581C351.906 397.264 353.246 402.266 352.189 405.976C351.577 408.11 350.214 409.604 348.458 410.078C348.074 410.181 347.677 410.233 347.28 410.233ZM345.027 396.819C344.987 396.813 344.946 396.813 344.906 396.819C344.663 396.883 344.293 397.258 344.051 398.1C343.398 400.368 344.322 403.795 346.015 405.433C346.65 406.01 347.17 406.183 347.401 406.114C347.632 406.045 348.013 405.676 348.256 404.833C348.903 402.566 347.984 399.139 346.286 397.5C345.962 397.13 345.515 396.888 345.027 396.819Z" fill="#FFCC00"/>
<path d="M379.337 440.286C378.947 440.284 378.559 440.232 378.182 440.13C376.449 439.663 375.069 438.169 374.456 436.028C373.393 432.318 374.734 427.316 377.512 424.634C379.112 423.093 381.035 422.476 382.791 422.943C384.547 423.411 385.91 424.911 386.522 427.045C387.585 430.755 386.239 435.763 383.467 438.44C382.384 439.57 380.902 440.233 379.337 440.286ZM381.59 426.878C381.1 426.948 380.652 427.194 380.331 427.57C378.632 429.209 377.714 432.636 378.361 434.903C378.603 435.745 378.973 436.12 379.216 436.19C379.458 436.259 379.972 436.115 380.602 435.503C382.3 433.865 383.219 430.438 382.566 428.17C382.329 427.328 381.954 426.953 381.711 426.889C381.671 426.879 381.63 426.875 381.59 426.878Z" fill="#FFCC00"/>
<path d="M440.043 387.559C439.653 387.557 439.265 387.505 438.888 387.404C437.155 386.936 435.775 385.436 435.162 383.302C434.1 379.592 435.44 374.59 438.218 371.907C439.818 370.367 441.741 369.749 443.497 370.217C445.253 370.684 446.616 372.184 447.229 374.319C448.291 378.028 446.946 383.03 444.173 385.713C443.091 386.844 441.608 387.506 440.043 387.559ZM442.296 374.146C441.806 374.219 441.358 374.467 441.037 374.844C439.338 376.482 438.42 379.909 439.067 382.177C439.31 383.019 439.679 383.394 439.922 383.457C440.164 383.521 440.678 383.388 441.308 382.777C443.006 381.138 443.925 377.711 443.272 375.444C443.035 374.601 442.66 374.226 442.417 374.163C442.377 374.158 442.336 374.16 442.296 374.169V374.146Z" fill="#D18700"/>
<path d="M310.856 455.05C309.299 454.991 307.826 454.329 306.749 453.204C303.977 450.527 302.631 445.519 303.693 441.809C304.306 439.675 305.669 438.18 307.425 437.707C309.181 437.234 311.104 437.857 312.704 439.398C315.482 442.08 316.823 447.082 315.765 450.792C315.153 452.933 313.79 454.427 312.034 454.894C311.65 454.998 311.254 455.05 310.856 455.05ZM308.603 441.642C308.563 441.636 308.522 441.636 308.482 441.642C308.239 441.705 307.87 442.08 307.627 442.923C306.974 445.19 307.898 448.617 309.597 450.256C310.226 450.867 310.752 451.006 310.977 450.936C311.202 450.867 311.589 450.498 311.832 449.656C312.479 447.388 311.561 443.961 309.862 442.323C309.534 441.962 309.087 441.731 308.603 441.671V441.642Z" fill="#FFCC00"/>
<path d="M234.773 345.224C240.021 345.224 244.275 342.674 244.275 339.529C244.275 336.384 240.021 333.835 234.773 333.835C229.526 333.835 225.272 336.384 225.272 339.529C225.272 342.674 229.526 345.224 234.773 345.224Z" fill="#FFCC00"/>
<path d="M356.058 339.59C357.423 334.505 356.053 329.721 352.999 328.903C349.945 328.086 346.363 331.544 344.998 336.629C343.634 341.713 345.004 346.497 348.058 347.315C351.112 348.133 354.694 344.674 356.058 339.59Z" fill="#D18700"/>
<path d="M274.143 466.721C271.036 463.721 267.541 464.656 266.352 468.81C265.162 472.964 266.727 478.774 269.817 481.774C272.907 484.774 276.419 483.839 277.609 479.685C278.799 475.531 277.245 469.721 274.143 466.721Z" fill="#FFCC00"/>
<path d="M387.41 326.026C390.452 325.212 391.816 320.448 390.458 315.385C389.1 310.322 385.533 306.877 382.492 307.691C379.451 308.505 378.086 313.269 379.445 318.332C380.803 323.395 384.369 326.84 387.41 326.026Z" fill="#FFCC00"/>
<path d="M403.694 333.887C408.942 333.887 413.196 331.337 413.196 328.192C413.196 325.048 408.942 322.498 403.694 322.498C398.447 322.498 394.193 325.048 394.193 328.192C394.193 331.337 398.447 333.887 403.694 333.887Z" fill="#FFCC00"/>
<path d="M402.638 377.913C407.885 377.913 412.139 375.364 412.139 372.219C412.139 369.074 407.885 366.524 402.638 366.524C397.39 366.524 393.136 369.074 393.136 372.219C393.136 375.364 397.39 377.913 402.638 377.913Z" fill="#FFCC00"/>
<path d="M366.214 401.377C371.461 401.377 375.715 398.828 375.715 395.683C375.715 392.538 371.461 389.988 366.214 389.988C360.966 389.988 356.712 392.538 356.712 395.683C356.712 398.828 360.966 401.377 366.214 401.377Z" fill="#D18700"/>
<path d="M422.698 435.122C427.945 435.122 432.199 432.573 432.199 429.428C432.199 426.283 427.945 423.733 422.698 423.733C417.45 423.733 413.196 426.283 413.196 429.428C413.196 432.573 417.45 435.122 422.698 435.122Z" fill="#D18700"/>
<path d="M290.992 423.785C296.24 423.785 300.494 421.236 300.494 418.091C300.494 414.946 296.24 412.396 290.992 412.396C285.745 412.396 281.491 414.946 281.491 418.091C281.491 421.236 285.745 423.785 290.992 423.785Z" fill="#D18700"/>
<path d="M328.473 468.868C333.72 468.868 337.974 466.318 337.974 463.173C337.974 460.028 333.72 457.479 328.473 457.479C323.225 457.479 318.971 460.028 318.971 463.173C318.971 466.318 323.225 468.868 328.473 468.868Z" fill="#D18700"/>
<path d="M305.507 302.778C310.755 302.778 315.009 300.228 315.009 297.084C315.009 293.939 310.755 291.389 305.507 291.389C300.26 291.389 296.006 293.939 296.006 297.084C296.006 300.228 300.26 302.778 305.507 302.778Z" fill="#FFCC00"/>
<path d="M311.053 404.485L308.341 409.009L346.118 431.601L348.83 427.077L311.053 404.485Z" fill="#FFCC00"/>
<path d="M424.018 314.67L421.269 319.172L439.887 330.51L442.635 326.008L424.018 314.67Z" fill="#FFCC00"/>
<path d="M349.443 271.889L345.353 271.896L345.472 339.761L349.561 339.754L349.443 271.889Z" fill="#D18700"/>
<path d="M367.174 393.829L365.059 397.326L383.762 408.612L385.876 405.116L367.174 393.829Z" fill="#D18700"/>
<path d="M423.468 427.54L421.365 431.043L458.924 453.549L461.028 450.047L423.468 427.54Z" fill="#D18700"/>
<path d="M252.275 370.946L233.389 382.263L236.105 386.785L254.991 375.468L252.275 370.946Z" fill="#D18700"/>
<path d="M294.078 416.192L237.698 450.243L240.443 454.778L296.823 420.727L294.078 416.192Z" fill="#D18700"/>
<path d="M329.928 460.73L327.212 465.252L383.45 498.951L386.166 494.429L329.928 460.73Z" fill="#D18700"/>
<path d="M387.481 317.132H382.202V362.024H387.481V317.132Z" fill="#FFCC00"/>
<path d="M438.582 350.654L438.515 373.178L443.794 373.193L443.861 350.67L438.582 350.654Z" fill="#D18700"/>
<path d="M402.376 348.344L346.024 382.031L348.735 386.556L405.087 352.869L402.376 348.344Z" fill="#D18700"/>
<path d="M407.385 354.114C405.32 354.149 403.283 353.636 401.482 352.626C399.576 351.472 398.479 349.782 398.479 347.964C398.479 346.147 399.576 344.451 401.482 343.308C404.792 341.324 409.979 341.324 413.288 343.308C415.2 344.462 416.292 346.147 416.292 347.964C416.292 349.782 415.2 351.484 413.288 352.626C411.488 353.636 409.45 354.15 407.385 354.114ZM407.385 345.899C406.061 345.868 404.751 346.182 403.585 346.81C402.834 347.26 402.568 347.716 402.568 347.964C402.568 348.212 402.834 348.674 403.585 349.118C405.612 350.33 409.164 350.33 411.186 349.118C411.937 348.668 412.203 348.212 412.203 347.964C412.203 347.716 411.937 347.26 411.186 346.81C410.02 346.181 408.71 345.867 407.385 345.899Z" fill="#D18700"/>
<path d="M347.476 390.04C352.724 390.04 356.978 387.491 356.978 384.346C356.978 381.201 352.724 378.651 347.476 378.651C342.228 378.651 337.974 381.201 337.974 384.346C337.974 387.491 342.228 390.04 347.476 390.04Z" fill="#D18700"/>
<path d="M271.036 476.604L232.238 453.354V334.781L272.509 358.862L346.113 314.6L348.834 319.117L272.52 365.013L237.517 344.081V450.365L273.756 472.081L271.036 476.604Z" fill="#FFCC00"/>
<path d="M347.476 322.55C352.724 322.55 356.978 320.001 356.978 316.856C356.978 313.711 352.724 311.161 347.476 311.161C342.228 311.161 337.974 313.711 337.974 316.856C337.974 320.001 342.228 322.55 347.476 322.55Z" fill="#FFCC00"/>
<path d="M405.069 330.448L402.354 325.931L417.482 316.861L347.366 275.004L330.038 285.476L327.306 280.964L347.355 268.854L427.757 316.855L405.069 330.448Z" fill="#FFCC00"/>
<path d="M275.033 384.404H269.753V429.376H275.033V384.404Z" fill="#FFCC00"/>
<path d="M273.115 443.979C271.558 443.921 270.084 443.258 269.008 442.132C266.23 439.45 264.89 434.447 265.953 430.738C266.565 428.603 267.922 427.109 269.678 426.636C271.434 426.163 273.363 426.78 274.963 428.326C277.742 431.009 279.082 436.011 278.019 439.721C277.407 441.855 276.049 443.35 274.293 443.823C273.909 443.926 273.513 443.978 273.115 443.979ZM270.862 430.565C270.822 430.558 270.781 430.558 270.741 430.565C270.493 430.628 270.123 431.003 269.88 431.845C269.234 434.113 270.152 437.54 271.85 439.178C272.48 439.755 273.005 439.928 273.231 439.859C273.456 439.79 273.849 439.421 274.085 438.578C274.738 436.311 273.82 432.884 272.122 431.245C271.796 430.874 271.347 430.632 270.857 430.565H270.862Z" fill="#FFCC00"/>
<path d="M274.143 376.823C271.036 373.823 267.541 374.757 266.352 378.905C265.162 383.054 266.727 388.875 269.817 391.875C272.907 394.875 276.419 393.935 277.609 389.787C278.799 385.638 277.245 379.823 274.143 376.823Z" fill="#FFCC00"/>
<path d="M350.116 524L307.275 498.326V451.859H312.554V495.338L344.831 514.682L344.721 406.933H350L350.116 524Z" fill="#FFCC00"/>
<path d="M369.601 509.464C370.959 504.401 369.595 499.637 366.554 498.823C363.513 498.009 359.946 501.454 358.588 506.517C357.23 511.58 358.594 516.344 361.635 517.158C364.677 517.972 368.243 514.527 369.601 509.464Z" fill="#FFCC00"/>
<path d="M260.598 375.534C261.956 370.471 260.592 365.707 257.551 364.893C254.509 364.079 250.943 367.523 249.585 372.586C248.227 377.649 249.591 382.413 252.632 383.227C255.674 384.041 259.24 380.597 260.598 375.534Z" fill="#D18700"/>
<path d="M402.34 483.379L364.82 505.862L367.535 510.384L405.055 487.901L402.34 483.379Z" fill="#FFCC00"/>
<path d="M443.815 418.166H438.536V463.138H443.815V418.166Z" fill="#FFCC00"/>
<path d="M446.677 414.03C448.035 408.967 446.671 404.203 443.629 403.389C440.588 402.575 437.022 406.02 435.664 411.083C434.305 416.146 435.67 420.91 438.711 421.724C441.752 422.538 445.319 419.093 446.677 414.03Z" fill="#FFCC00"/>
<path d="M401.072 490.243V422.788L386.314 431.632L383.594 427.115L406.351 413.476V480.932L457.354 450.365V344.087L405.092 375.409L402.378 370.886L462.633 334.775V453.354L401.072 490.243Z" fill="#FFCC00"/>
</g>
<defs>
<clipPath id="clip0_1077_463205">
<rect width="685" height="524" fill="white"/>
</clipPath>
</defs>
</svg>
