<svg width="475" height="365" viewBox="0 0 475 365" fill="none" xmlns="http://www.w3.org/2000/svg">
<g clip-path="url(#clip0_1141_553505)">
<path d="M107.923 121.398C107.3 121.411 106.692 121.215 106.193 120.843C105.694 120.471 105.333 119.943 105.166 119.342C105 118.742 105.038 118.104 105.275 117.527C105.512 116.951 105.933 116.47 106.473 116.16L150.868 89.5048C151.509 89.1189 152.277 89.0037 153.003 89.1845C153.729 89.3652 154.353 89.8272 154.739 90.4686C155.124 91.1101 155.239 91.8786 155.059 92.605C154.878 93.3314 154.417 93.9563 153.775 94.3421L109.373 120.998C108.935 121.261 108.434 121.4 107.923 121.398Z" fill="#222222" fill-opacity="0.3"/>
<path d="M377.872 126.821C377.362 126.821 376.862 126.683 376.426 126.42L332.011 99.7646C331.37 99.3799 330.908 98.756 330.726 98.0303C330.545 97.3047 330.659 96.5366 331.044 95.8952C331.428 95.2537 332.052 94.7913 332.777 94.6098C333.502 94.4283 334.27 94.5425 334.911 94.9273L379.309 121.583C379.85 121.893 380.271 122.374 380.508 122.951C380.744 123.527 380.782 124.166 380.616 124.767C380.449 125.367 380.087 125.895 379.587 126.267C379.088 126.639 378.478 126.834 377.855 126.821H377.872Z" fill="#222222" fill-opacity="0.3"/>
<path d="M368.169 110.864L342.049 126.419L343.922 129.567L370.042 114.012L368.169 110.864Z" fill="#222222"/>
<path d="M369.108 177.01L355.105 168.674L356.98 165.528L369.1 172.746L394.205 157.673L396.088 160.815L369.108 177.01Z" fill="#222222"/>
<path d="M397.698 161.528C396.266 161.553 394.853 161.196 393.604 160.494C392.279 159.693 391.522 158.522 391.522 157.26C391.522 155.997 392.279 154.819 393.604 154.022C395.899 152.643 399.496 152.643 401.791 154.022C403.113 154.823 403.874 155.997 403.874 157.26C403.874 158.522 403.113 159.701 401.791 160.494C400.542 161.196 399.13 161.552 397.698 161.528ZM397.698 155.825C396.78 155.801 395.871 156.018 395.062 156.454C394.542 156.767 394.357 157.083 394.357 157.256C394.357 157.428 394.542 157.745 395.062 158.057C396.464 158.903 398.927 158.903 400.333 158.057C400.854 157.745 401.038 157.432 401.038 157.256C401.038 157.079 400.854 156.763 400.333 156.454C399.524 156.019 398.616 155.802 397.698 155.825Z" fill="#222222"/>
<path d="M424.065 196.684C422.633 196.709 421.22 196.352 419.971 195.65C418.645 194.849 417.888 193.674 417.888 192.412C417.888 191.149 418.645 189.971 419.971 189.178C422.266 187.799 425.863 187.799 428.158 189.178C429.48 189.979 430.241 191.149 430.241 192.412C430.241 193.674 429.48 194.857 428.158 195.65C426.909 196.352 425.496 196.708 424.065 196.684ZM424.065 190.977C423.146 190.955 422.237 191.173 421.429 191.61C420.908 191.923 420.724 192.24 420.724 192.412C420.724 192.584 420.908 192.905 421.429 193.213C422.831 194.055 425.294 194.055 426.7 193.213C427.221 192.901 427.405 192.584 427.405 192.412C427.405 192.24 427.221 191.923 426.7 191.61C425.891 191.176 424.982 190.961 424.065 190.985V190.977Z" fill="#222222" fill-opacity="0.6"/>
<path d="M339.509 134.059C338.076 134.083 336.662 133.726 335.411 133.025C334.09 132.223 333.333 131.053 333.333 129.791C333.333 128.528 334.09 127.346 335.411 126.552C337.71 125.174 341.307 125.174 343.602 126.552C344.924 127.354 345.685 128.528 345.685 129.791C345.685 131.053 344.924 132.231 343.602 133.025C342.353 133.726 340.941 134.083 339.509 134.059ZM339.509 128.352C338.59 128.33 337.682 128.548 336.873 128.985C336.353 129.298 336.164 129.614 336.164 129.787C336.164 129.959 336.353 130.276 336.873 130.588C338.275 131.43 340.738 131.43 342.144 130.588C342.665 130.276 342.849 129.959 342.849 129.787C342.849 129.614 342.665 129.294 342.144 128.985C341.336 128.549 340.427 128.33 339.509 128.352Z" fill="#222222"/>
<path d="M378.308 110.802C376.876 110.827 375.463 110.47 374.215 109.768C372.889 108.966 372.132 107.792 372.132 106.53C372.132 105.267 372.889 104.089 374.215 103.295C376.51 101.917 380.106 101.917 382.401 103.295C383.727 104.097 384.484 105.267 384.484 106.53C384.484 107.792 383.727 108.974 382.401 109.768C381.153 110.47 379.74 110.827 378.308 110.802ZM378.308 105.095C377.389 105.073 376.481 105.291 375.673 105.728C375.152 106.041 374.968 106.353 374.968 106.53C374.968 106.706 375.152 107.023 375.673 107.331C377.078 108.173 379.538 108.173 380.944 107.331C381.464 107.019 381.648 106.702 381.648 106.53C381.648 106.357 381.464 106.041 380.944 105.728C380.135 105.291 379.227 105.073 378.308 105.095Z" fill="#222222"/>
<path d="M463.232 141.75C461.799 141.774 460.385 141.417 459.135 140.716C457.813 139.914 457.056 138.744 457.056 137.482C457.056 136.219 457.813 135.037 459.135 134.243C461.434 132.865 465.031 132.865 467.326 134.243C468.648 135.045 469.409 136.219 469.409 137.482C469.409 138.744 468.648 139.922 467.326 140.716C466.077 141.417 464.664 141.774 463.232 141.75ZM463.232 136.043C462.314 136.02 461.405 136.239 460.597 136.676C460.076 136.989 459.892 137.305 459.892 137.478C459.892 137.65 460.076 137.967 460.597 138.279C461.999 139.125 464.462 139.125 465.868 138.279C466.389 137.967 466.573 137.654 466.573 137.478C466.573 137.301 466.389 136.985 465.868 136.676C465.059 136.24 464.151 136.021 463.232 136.043Z" fill="#222222"/>
<path d="M353.415 169.588C351.983 169.611 350.571 169.255 349.322 168.554C348 167.752 347.239 166.578 347.239 165.315C347.239 164.053 348 162.875 349.322 162.081C351.617 160.703 355.214 160.703 357.513 162.081C358.834 162.883 359.591 164.053 359.591 165.315C359.591 166.578 358.834 167.76 357.513 168.554C356.262 169.255 354.848 169.612 353.415 169.588ZM353.415 163.881C352.497 163.859 351.588 164.077 350.78 164.514C350.259 164.827 350.075 165.143 350.075 165.315C350.075 165.488 350.259 165.808 350.78 166.117C352.186 166.959 354.649 166.959 356.051 166.117C356.571 165.804 356.76 165.488 356.76 165.315C356.76 165.143 356.571 164.827 356.051 164.514C355.242 164.077 354.334 163.858 353.415 163.881Z" fill="#222222"/>
<path d="M367.009 194.837C365.931 194.796 364.911 194.336 364.166 193.554C362.239 191.69 361.31 188.216 362.043 185.639C362.467 184.156 363.413 183.118 364.63 182.789C365.848 182.461 367.186 182.889 368.295 183.964C370.218 185.827 371.151 189.302 370.414 191.879C369.989 193.362 369.044 194.4 367.826 194.728C367.56 194.8 367.285 194.837 367.009 194.837ZM365.451 185.519C365.422 185.514 365.392 185.514 365.363 185.519C365.195 185.563 364.939 185.823 364.77 186.408C364.322 187.983 364.959 190.364 366.136 191.502C366.573 191.903 366.937 192.023 367.093 191.975C367.25 191.927 367.518 191.67 367.686 191.085C368.139 189.51 367.498 187.13 366.324 185.991C366.099 185.735 365.789 185.567 365.451 185.519Z" fill="#222222"/>
<path d="M395.014 192.821C393.934 192.781 392.913 192.32 392.166 191.538C390.24 189.679 389.311 186.2 390.048 183.623C390.472 182.14 391.413 181.102 392.631 180.773C393.849 180.445 395.186 180.878 396.296 181.948C398.222 183.811 399.152 187.29 398.415 189.863C397.99 191.35 397.049 192.388 395.831 192.712C395.565 192.784 395.29 192.82 395.014 192.821ZM393.452 183.507H393.368C393.196 183.551 392.939 183.811 392.771 184.396C392.323 185.971 392.959 188.352 394.137 189.49C394.574 189.915 394.938 190.011 395.094 189.967C395.25 189.923 395.523 189.659 395.691 189.077C396.14 187.502 395.503 185.122 394.325 183.98C394.101 183.721 393.791 183.553 393.452 183.507Z" fill="#222222"/>
<path d="M417.244 213.697C416.973 213.697 416.704 213.662 416.442 213.593C415.241 213.264 414.28 212.226 413.855 210.743C413.118 208.166 414.051 204.688 415.974 202.828C417.083 201.754 418.421 201.325 419.639 201.654C420.856 201.982 421.802 203.016 422.226 204.503C422.959 207.076 422.03 210.555 420.103 212.419C419.353 213.201 418.327 213.66 417.244 213.697ZM418.802 204.383C418.463 204.435 418.154 204.607 417.932 204.868C416.755 206.006 416.114 208.387 416.567 209.962C416.735 210.547 416.991 210.807 417.159 210.851C417.328 210.896 417.68 210.799 418.117 210.379C419.294 209.236 419.931 206.856 419.482 205.281C419.314 204.7 419.058 204.439 418.89 204.391L418.802 204.383Z" fill="#222222"/>
<path d="M459.339 177.07C459.069 177.068 458.8 177.033 458.538 176.966C457.337 176.637 456.375 175.599 455.951 174.112C455.214 171.539 456.147 168.061 458.07 166.201C459.179 165.127 460.517 164.698 461.734 165.027C462.952 165.356 463.897 166.39 464.318 167.876C465.055 170.449 464.126 173.928 462.199 175.788C461.45 176.573 460.424 177.034 459.339 177.07ZM460.897 167.756C460.558 167.808 460.248 167.98 460.024 168.241C458.851 169.379 458.21 171.76 458.662 173.335C458.831 173.916 459.087 174.177 459.255 174.225C459.423 174.273 459.776 174.173 460.212 173.752C461.39 172.61 462.027 170.229 461.578 168.654C461.41 168.073 461.154 167.812 460.986 167.764L460.897 167.756Z" fill="#222222" fill-opacity="0.6"/>
<path d="M369.757 223.937C368.677 223.897 367.655 223.437 366.909 222.654C364.982 220.795 364.053 217.316 364.79 214.743C365.215 213.256 366.156 212.218 367.374 211.894C368.591 211.569 369.929 211.994 371.038 213.068C372.965 214.927 373.894 218.406 373.157 220.979C372.733 222.466 371.791 223.504 370.574 223.833C370.307 223.903 370.032 223.938 369.757 223.937ZM368.195 214.623H368.111C367.938 214.671 367.682 214.931 367.518 215.513C367.065 217.088 367.702 219.468 368.88 220.61C369.316 221.011 369.681 221.127 369.837 221.083C369.993 221.039 370.265 220.779 370.434 220.194C370.882 218.619 370.245 216.238 369.068 215.1C368.841 214.847 368.531 214.684 368.195 214.639V214.623Z" fill="#222222"/>
<path d="M316.995 147.661C320.634 147.661 323.584 145.89 323.584 143.706C323.584 141.521 320.634 139.75 316.995 139.75C313.356 139.75 310.406 141.521 310.406 143.706C310.406 145.89 313.356 147.661 316.995 147.661Z" fill="#222222"/>
<path d="M398.968 144.917C399.91 141.4 398.964 138.091 396.855 137.525C394.746 136.96 392.273 139.352 391.331 142.869C390.389 146.386 391.336 149.696 393.444 150.261C395.553 150.827 398.026 148.434 398.968 144.917Z" fill="#222222" fill-opacity="0.6"/>
<path d="M344.295 232.065C342.14 229.981 339.721 230.63 338.896 233.511C338.071 236.393 339.152 240.433 341.299 242.517C343.446 244.601 345.877 243.952 346.699 241.07C347.52 238.188 346.45 234.149 344.295 232.065Z" fill="#222222"/>
<path d="M422.845 134.329C424.954 133.764 425.9 130.454 424.958 126.937C424.016 123.42 421.543 121.027 419.434 121.593C417.325 122.158 416.379 125.468 417.321 128.985C418.263 132.502 420.736 134.894 422.845 134.329Z" fill="#222222"/>
<path d="M434.13 139.786C437.769 139.786 440.719 138.015 440.719 135.83C440.719 133.646 437.769 131.875 434.13 131.875C430.491 131.875 427.541 133.646 427.541 135.83C427.541 138.015 430.491 139.786 434.13 139.786Z" fill="#222222"/>
<path d="M433.401 170.373C437.04 170.373 439.99 168.602 439.99 166.418C439.99 164.233 437.04 162.462 433.401 162.462C429.762 162.462 426.812 164.233 426.812 166.418C426.812 168.602 429.762 170.373 433.401 170.373Z" fill="#222222"/>
<path d="M408.144 186.673C411.782 186.673 414.732 184.902 414.732 182.717C414.732 180.532 411.782 178.761 408.144 178.761C404.505 178.761 401.555 180.532 401.555 182.717C401.555 184.902 404.505 186.673 408.144 186.673Z" fill="#222222" fill-opacity="0.6"/>
<path d="M447.308 210.114C450.946 210.114 453.896 208.343 453.896 206.158C453.896 203.974 450.946 202.203 447.308 202.203C443.669 202.203 440.719 203.974 440.719 206.158C440.719 208.343 443.669 210.114 447.308 210.114Z" fill="#222222" fill-opacity="0.6"/>
<path d="M355.979 202.239C359.618 202.239 362.567 200.468 362.567 198.283C362.567 196.099 359.618 194.328 355.979 194.328C352.34 194.328 349.39 196.099 349.39 198.283C349.39 200.468 352.34 202.239 355.979 202.239Z" fill="#222222" fill-opacity="0.6"/>
<path d="M381.969 233.555C385.608 233.555 388.558 231.784 388.558 229.6C388.558 227.415 385.608 225.644 381.969 225.644C378.33 225.644 375.38 227.415 375.38 229.6C375.38 231.784 378.33 233.555 381.969 233.555Z" fill="#222222" fill-opacity="0.6"/>
<path d="M366.048 118.176C369.687 118.176 372.636 116.405 372.636 114.221C372.636 112.036 369.687 110.265 366.048 110.265C362.409 110.265 359.459 112.036 359.459 114.221C359.459 116.405 362.409 118.176 366.048 118.176Z" fill="#222222"/>
<path d="M369.886 188.828L368.006 191.971L394.202 207.665L396.082 204.522L369.886 188.828Z" fill="#222222"/>
<path d="M448.24 126.435L446.334 129.562L459.244 137.438L461.149 134.31L448.24 126.435Z" fill="#222222"/>
<path d="M396.501 96.7103L393.665 96.7153L393.748 143.858L396.583 143.853L396.501 96.7103Z" fill="#222222" fill-opacity="0.6"/>
<path d="M408.799 181.424L407.333 183.853L420.301 191.693L421.768 189.265L408.799 181.424Z" fill="#222222" fill-opacity="0.6"/>
<path d="M447.831 204.84L446.373 207.273L472.418 222.907L473.876 220.474L447.831 204.84Z" fill="#222222" fill-opacity="0.6"/>
<path d="M329.144 165.538L316.048 173.399L317.931 176.541L331.027 168.679L329.144 165.538Z" fill="#222222" fill-opacity="0.6"/>
<path d="M358.323 196.058L319.227 219.712L321.131 222.862L360.226 199.208L358.323 196.058Z" fill="#222222" fill-opacity="0.6"/>
<path d="M382.972 227.896L381.089 231.037L420.086 254.446L421.969 251.305L382.972 227.896Z" fill="#222222" fill-opacity="0.6"/>
<path d="M422.887 128.148H419.226V159.332H422.887V128.148Z" fill="#222222"/>
<path d="M458.328 151.437L458.281 167.083L461.942 167.094L461.988 151.448L458.328 151.437Z" fill="#222222" fill-opacity="0.6"/>
<path d="M433.202 149.826L394.126 173.227L396.006 176.37L435.082 152.969L433.202 149.826Z" fill="#222222" fill-opacity="0.6"/>
<path d="M436.693 153.837C435.261 153.862 433.849 153.505 432.6 152.803C431.274 152.002 430.517 150.831 430.517 149.569C430.517 148.307 431.274 147.124 432.6 146.331C434.895 144.952 438.492 144.952 440.787 146.331C442.109 147.132 442.87 148.307 442.87 149.569C442.87 150.831 442.109 152.01 440.787 152.803C439.538 153.505 438.125 153.862 436.693 153.837ZM436.693 148.13C435.775 148.108 434.866 148.326 434.058 148.763C433.537 149.076 433.353 149.393 433.353 149.565C433.353 149.737 433.537 150.054 434.058 150.367C435.46 151.212 437.923 151.212 439.329 150.367C439.85 150.054 440.034 149.737 440.034 149.565C440.034 149.393 439.85 149.072 439.329 148.763C438.52 148.327 437.612 148.108 436.693 148.13Z" fill="#222222" fill-opacity="0.6"/>
<path d="M395.146 178.798C398.785 178.798 401.735 177.026 401.735 174.842C401.735 172.657 398.785 170.886 395.146 170.886C391.508 170.886 388.558 172.657 388.558 174.842C388.558 177.026 391.508 178.798 395.146 178.798Z" fill="#222222" fill-opacity="0.6"/>
<path d="M342.144 238.93L315.237 222.775V140.407L343.166 157.14L394.205 126.388L396.092 129.526L343.17 161.408L318.898 146.872V220.703L344.027 235.788L342.144 238.93Z" fill="#222222"/>
<path d="M395.146 131.915C398.785 131.915 401.735 130.144 401.735 127.959C401.735 125.775 398.785 124.004 395.146 124.004C391.508 124.004 388.558 125.775 388.558 127.959C388.558 130.144 391.508 131.915 395.146 131.915Z" fill="#222222"/>
<path d="M435.087 137.401L433.205 134.259L443.695 127.959L395.074 98.887L383.058 106.157L381.164 103.023L395.062 94.6107L450.82 127.955L435.087 137.401Z" fill="#222222"/>
<path d="M344.916 174.878H341.255V206.118H344.916V174.878Z" fill="#222222"/>
<path d="M343.582 216.262C342.504 216.221 341.483 215.761 340.739 214.98C338.812 213.12 337.883 209.641 338.616 207.068C339.04 205.581 339.985 204.543 341.203 204.215C342.421 203.886 343.759 204.319 344.868 205.393C346.791 207.253 347.724 210.731 346.987 213.304C346.562 214.791 345.617 215.829 344.399 216.154C344.133 216.226 343.858 216.262 343.582 216.262ZM342.024 206.948H341.936C341.768 206.992 341.512 207.253 341.343 207.838C340.895 209.413 341.532 211.793 342.709 212.932C343.146 213.356 343.51 213.453 343.666 213.408C343.823 213.364 344.091 213.1 344.259 212.519C344.712 210.944 344.071 208.563 342.893 207.421C342.671 207.163 342.362 206.995 342.024 206.948Z" fill="#222222"/>
<path d="M344.295 169.612C342.14 167.528 339.721 168.181 338.896 171.063C338.071 173.944 339.152 177.984 341.299 180.068C343.446 182.152 345.877 181.503 346.699 178.621C347.52 175.74 346.45 171.696 344.295 169.612Z" fill="#222222"/>
<path d="M396.981 271.849L367.274 254.015V221.737H370.934V251.939L393.316 265.377L393.236 190.532L396.897 190.528L396.981 271.849Z" fill="#222222"/>
<path d="M410.494 261.75C411.436 258.233 410.49 254.923 408.381 254.358C406.272 253.792 403.799 256.185 402.857 259.702C401.915 263.219 402.862 266.529 404.971 267.094C407.079 267.66 409.553 265.267 410.494 261.75Z" fill="#222222"/>
<path d="M334.909 168.718C335.851 165.201 334.904 161.891 332.796 161.326C330.687 160.76 328.214 163.153 327.272 166.67C326.33 170.187 327.276 173.497 329.385 174.062C331.494 174.628 333.967 172.235 334.909 168.718Z" fill="#222222" fill-opacity="0.6"/>
<path d="M433.199 243.637L407.182 259.254L409.065 262.396L435.083 246.778L433.199 243.637Z" fill="#222222"/>
<path d="M461.955 198.331H458.294V229.572H461.955V198.331Z" fill="#222222"/>
<path d="M463.937 195.459C464.879 191.942 463.933 188.632 461.824 188.067C459.715 187.501 457.242 189.894 456.3 193.411C455.359 196.928 456.305 200.238 458.414 200.803C460.523 201.368 462.996 198.976 463.937 195.459Z" fill="#222222"/>
<path d="M432.316 248.404V201.542L422.078 207.689L420.196 204.547L435.976 195.073V241.932L471.339 220.703V146.872L435.099 168.63L433.217 165.492L475 140.403V222.775L432.316 248.404Z" fill="#222222"/>
<path d="M333.765 269.741C333.143 269.754 332.533 269.56 332.034 269.188C331.534 268.816 331.172 268.288 331.005 267.687C330.839 267.087 330.877 266.448 331.113 265.871C331.35 265.295 331.771 264.813 332.311 264.503L376.71 237.852C377.351 237.467 378.119 237.353 378.844 237.534C379.569 237.716 380.193 238.178 380.577 238.82C380.962 239.461 381.076 240.229 380.895 240.955C380.713 241.681 380.251 242.304 379.61 242.689L335.215 269.341C334.777 269.604 334.276 269.742 333.765 269.741Z" fill="#222222" fill-opacity="0.3"/>
<path d="M146.702 259.85C146.191 259.85 145.69 259.712 145.252 259.449L100.857 232.794C100.215 232.409 99.7512 231.785 99.5687 231.058C99.3862 230.331 99.4996 229.562 99.8842 228.918C100.269 228.275 100.893 227.812 101.619 227.629C102.346 227.446 103.115 227.56 103.757 227.945L148.168 254.612C148.708 254.922 149.129 255.403 149.366 255.979C149.602 256.555 149.641 257.194 149.474 257.794C149.308 258.394 148.947 258.922 148.448 259.295C147.949 259.667 147.34 259.862 146.718 259.85H146.702Z" fill="#222222" fill-opacity="0.3"/>
<path d="M211.565 16.3252L185.445 31.8806L187.317 35.0284L213.437 19.4729L211.565 16.3252Z" fill="#222222"/>
<path d="M212.505 82.4873L198.506 74.1471L200.377 71.0011L212.497 78.223L237.606 63.1459L239.489 66.2879L212.505 82.4873Z" fill="#222222"/>
<path d="M241.091 67.0053C239.659 67.0296 238.246 66.6728 236.998 65.9713C235.676 65.1697 234.915 63.9995 234.915 62.7371C234.915 61.4746 235.676 60.2923 236.998 59.4988C239.293 58.1201 242.889 58.1201 245.184 59.4988C246.51 60.3003 247.267 61.4746 247.267 62.7371C247.267 63.9995 246.51 65.1778 245.184 65.9713C243.936 66.6731 242.523 67.03 241.091 67.0053ZM241.091 61.2983C240.172 61.2764 239.264 61.4947 238.455 61.9315C237.935 62.2441 237.751 62.5607 237.751 62.733C237.751 62.9054 237.935 63.222 238.455 63.5346C239.861 64.3762 242.325 64.3762 243.726 63.5346C244.247 63.222 244.431 62.9054 244.431 62.733C244.431 62.5607 244.247 62.2401 243.726 61.9315C242.918 61.4947 242.01 61.2764 241.091 61.2983Z" fill="#222222"/>
<path d="M267.462 102.169C266.03 102.194 264.617 101.837 263.368 101.135C262.046 100.334 261.285 99.1595 261.285 97.8971C261.285 96.6346 262.046 95.4563 263.368 94.6628C265.663 93.2841 269.26 93.2841 271.555 94.6628C272.881 95.4643 273.638 96.6346 273.638 97.8971C273.638 99.1595 272.881 100.338 271.555 101.135C270.306 101.837 268.894 102.194 267.462 102.169ZM267.462 96.4623C266.543 96.4389 265.634 96.6573 264.826 97.0955C264.305 97.4081 264.121 97.7207 264.121 97.8971C264.121 98.0734 264.305 98.39 264.826 98.6986C266.232 99.5402 268.695 99.5402 270.097 98.6986C270.618 98.386 270.802 98.0694 270.802 97.8971C270.802 97.7247 270.618 97.4081 270.097 97.0955C269.289 96.6564 268.38 96.438 267.462 96.4623Z" fill="#222222" fill-opacity="0.6"/>
<path d="M182.906 39.5362C181.474 39.5609 180.061 39.204 178.812 38.5022C177.487 37.7006 176.73 36.5264 176.73 35.2639C176.73 34.0015 177.487 32.8232 178.812 32.0297C181.107 30.651 184.704 30.651 186.999 32.0297C188.325 32.8312 189.082 34.0015 189.082 35.2639C189.082 36.5264 188.325 37.7086 186.999 38.5022C185.75 39.204 184.338 39.5609 182.906 39.5362ZM182.906 33.8291C181.987 33.8073 181.079 34.0256 180.27 34.4624C179.75 34.775 179.565 35.0876 179.565 35.2639C179.565 35.4403 179.75 35.7569 180.27 36.0655C181.672 36.9071 184.135 36.9071 185.541 36.0655C186.062 35.7529 186.246 35.4363 186.246 35.2639C186.246 35.0916 186.062 34.775 185.541 34.4624C184.733 34.0256 183.824 33.8073 182.906 33.8291Z" fill="#222222"/>
<path d="M221.705 16.2752C220.273 16.2989 218.861 15.9421 217.612 15.2412C216.29 14.4396 215.529 13.2694 215.529 12.007C215.529 10.7445 216.29 9.56622 217.612 8.76868C219.907 7.39001 223.504 7.39001 225.803 8.76868C227.124 9.57023 227.881 10.7445 227.881 12.007C227.881 13.2694 227.124 14.4477 225.803 15.2412C224.552 15.9426 223.138 16.2994 221.705 16.2752ZM221.705 10.5722C220.787 10.5495 219.879 10.7663 219.07 11.2014C218.549 11.514 218.365 11.8306 218.365 12.0029C218.365 12.1753 218.549 12.4919 219.07 12.8045C220.476 13.6501 222.939 13.6501 224.341 12.8045C224.861 12.4919 225.05 12.1793 225.05 12.0029C225.05 11.8266 224.861 11.51 224.341 11.2014C223.532 10.7654 222.623 10.5485 221.705 10.5722Z" fill="#222222"/>
<path d="M306.629 47.2271C305.197 47.2517 303.785 46.8949 302.536 46.1931C301.214 45.3915 300.453 44.2172 300.453 42.9548C300.453 41.6923 301.214 40.5141 302.536 39.7205C304.831 38.3419 308.428 38.3419 310.723 39.7205C312.048 40.5221 312.805 41.6923 312.805 42.9548C312.805 44.2172 312.048 45.3995 310.723 46.1931C309.474 46.8949 308.061 47.2517 306.629 47.2271ZM306.629 41.52C305.711 41.4982 304.802 41.7164 303.994 42.1532C303.473 42.4658 303.289 42.7825 303.289 42.9548C303.289 43.1271 303.473 43.4477 303.994 43.7563C305.4 44.598 307.863 44.598 309.265 43.7563C309.785 43.4437 309.97 43.1271 309.97 42.9548C309.97 42.7825 309.785 42.4658 309.265 42.1532C308.456 41.7164 307.548 41.4982 306.629 41.52Z" fill="#222222"/>
<path d="M196.816 75.0649C195.386 75.0945 193.973 74.7432 192.723 74.0469C191.397 73.2454 190.64 72.0711 190.64 70.8087C190.64 69.5462 191.397 68.3679 192.723 67.5744C195.018 66.1957 198.615 66.1957 200.91 67.5744C202.231 68.376 202.992 69.5462 202.992 70.8087C202.992 72.0711 202.231 73.2534 200.91 74.0469C199.659 74.7428 198.247 75.0941 196.816 75.0649ZM196.816 69.3579C195.897 69.3336 194.988 69.552 194.181 69.9911C193.66 70.3037 193.476 70.6163 193.476 70.7926C193.476 70.969 193.66 71.2856 194.181 71.5942C195.583 72.4358 198.046 72.4358 199.452 71.5942C199.972 71.2816 200.157 70.965 200.157 70.7926C200.157 70.6203 199.972 70.3037 199.452 69.9911C198.644 69.5523 197.735 69.334 196.816 69.3579Z" fill="#222222"/>
<path d="M210.41 100.31C209.331 100.269 208.31 99.811 207.562 99.0313C205.636 97.1676 204.707 93.6889 205.444 91.1159C205.868 89.6291 206.809 88.591 208.027 88.2664C209.245 87.9418 210.582 88.3666 211.692 89.4407C213.618 91.3003 214.548 94.779 213.811 97.356C213.386 98.8389 212.445 99.8769 211.227 100.206C210.961 100.276 210.686 100.311 210.41 100.31ZM208.848 90.9957H208.764C208.592 91.0438 208.335 91.3043 208.167 91.8894C207.719 93.4645 208.355 95.8451 209.533 96.9833C209.97 97.384 210.334 97.5003 210.49 97.4562C210.646 97.4121 210.919 97.1516 211.087 96.5665C211.536 94.9914 210.899 92.6108 209.721 91.4726C209.497 91.2139 209.187 91.0446 208.848 90.9957Z" fill="#222222"/>
<path d="M238.411 98.2978C237.331 98.2568 236.31 97.7969 235.563 97.0153C233.641 95.1517 232.708 91.677 233.444 89.1C233.869 87.6171 234.814 86.5791 236.032 86.2505C237.25 85.9219 238.583 86.3507 239.693 87.4248C241.619 89.2884 242.549 92.7631 241.816 95.3401C241.391 96.8229 240.446 97.8609 239.228 98.1896C238.962 98.2615 238.687 98.2979 238.411 98.2978ZM236.849 88.9798C236.821 88.9753 236.793 88.9753 236.765 88.9798C236.597 89.0239 236.34 89.2844 236.172 89.8695C235.72 91.4445 236.36 93.8251 237.534 94.9633C237.975 95.3641 238.335 95.4844 238.495 95.4363C238.655 95.3882 238.92 95.1317 239.088 94.5466C239.537 92.9715 238.9 90.5909 237.722 89.4527C237.497 89.1955 237.187 89.0277 236.849 88.9798Z" fill="#222222"/>
<path d="M260.641 119.174C260.37 119.173 260.101 119.136 259.84 119.066C258.638 118.741 257.681 117.703 257.256 116.216C256.519 113.639 257.448 110.165 259.375 108.301C260.484 107.231 261.818 106.802 263.036 107.127C264.253 107.451 265.199 108.494 265.623 109.976C266.36 112.553 265.427 116.032 263.504 117.892C262.754 118.677 261.726 119.137 260.641 119.174ZM262.203 109.86C261.863 109.909 261.553 110.08 261.33 110.341C260.152 111.479 259.515 113.86 259.964 115.435C260.132 116.02 260.388 116.281 260.556 116.329C260.725 116.377 261.081 116.277 261.518 115.852C262.695 114.714 263.332 112.333 262.88 110.758C262.715 110.173 262.455 109.912 262.287 109.868C262.259 109.861 262.231 109.858 262.203 109.86Z" fill="#222222"/>
<path d="M302.736 82.5474C302.466 82.546 302.197 82.5097 301.935 82.4392C300.734 82.1145 299.776 81.0725 299.352 79.5897C298.615 77.0127 299.544 73.538 301.471 71.6744C302.58 70.6043 303.914 70.1755 305.131 70.5001C306.349 70.8247 307.294 71.8667 307.719 73.3496C308.456 75.9266 307.523 79.4013 305.6 81.2649C304.85 82.0502 303.822 82.5106 302.736 82.5474ZM304.298 73.2294C303.958 73.2804 303.648 73.4526 303.425 73.7143C302.248 74.8525 301.611 77.2331 302.059 78.8081C302.228 79.3933 302.484 79.6538 302.652 79.6979C302.82 79.7419 303.177 79.6498 303.613 79.2249C304.791 78.0867 305.428 75.7062 304.975 74.1311C304.811 73.546 304.551 73.2855 304.382 73.2414C304.354 73.2382 304.326 73.2396 304.298 73.2454V73.2294Z" fill="#222222" fill-opacity="0.6"/>
<path d="M213.154 129.43C212.074 129.389 211.053 128.929 210.306 128.148C208.384 126.288 207.45 122.809 208.187 120.232C208.612 118.749 209.557 117.711 210.775 117.383C211.992 117.054 213.326 117.487 214.436 118.557C216.362 120.421 217.291 123.895 216.558 126.472C216.134 127.959 215.189 128.997 213.971 129.322C213.705 129.394 213.43 129.43 213.154 129.43ZM211.592 120.136C211.564 120.132 211.536 120.132 211.508 120.136C211.34 120.18 211.083 120.441 210.915 121.026C210.462 122.601 211.103 124.981 212.281 126.12C212.717 126.544 213.082 126.641 213.238 126.593C213.394 126.544 213.663 126.288 213.831 125.703C214.279 124.128 213.643 121.747 212.465 120.609C212.241 120.351 211.931 120.183 211.592 120.136Z" fill="#222222"/>
<path d="M160.396 53.1385C164.035 53.1385 166.985 51.3675 166.985 49.1828C166.985 46.9982 164.035 45.2272 160.396 45.2272C156.757 45.2272 153.807 46.9982 153.807 49.1828C153.807 51.3675 156.757 53.1385 160.396 53.1385Z" fill="#222222"/>
<path d="M242.366 50.3921C243.307 46.8751 242.361 43.5656 240.252 43.0002C238.143 42.4348 235.67 44.8275 234.728 48.3445C233.787 51.8615 234.733 55.171 236.842 55.7364C238.951 56.3019 241.424 53.9091 242.366 50.3921Z" fill="#222222" fill-opacity="0.6"/>
<path d="M187.696 137.538C185.541 135.454 183.118 136.103 182.293 138.989C181.468 141.874 182.553 145.91 184.696 147.994C186.839 150.078 189.274 149.429 190.099 146.543C190.924 143.658 189.847 139.622 187.696 137.538Z" fill="#222222"/>
<path d="M266.241 39.8032C268.35 39.2377 269.296 35.9283 268.354 32.4113C267.412 28.8943 264.939 26.5015 262.83 27.067C260.721 27.6324 259.775 30.9419 260.717 34.4589C261.659 37.9759 264.132 40.3686 266.241 39.8032Z" fill="#222222"/>
<path d="M277.531 45.2633C281.17 45.2633 284.12 43.4923 284.12 41.3076C284.12 39.123 281.17 37.352 277.531 37.352C273.892 37.352 270.942 39.123 270.942 41.3076C270.942 43.4923 273.892 45.2633 277.531 45.2633Z" fill="#222222"/>
<path d="M276.798 75.8464C280.437 75.8464 283.387 74.0754 283.387 71.8907C283.387 69.7061 280.437 67.9351 276.798 67.9351C273.159 67.9351 270.209 69.7061 270.209 71.8907C270.209 74.0754 273.159 75.8464 276.798 75.8464Z" fill="#222222"/>
<path d="M251.541 92.146C255.18 92.146 258.129 90.375 258.129 88.1903C258.129 86.0057 255.18 84.2347 251.541 84.2347C247.902 84.2347 244.952 86.0057 244.952 88.1903C244.952 90.375 247.902 92.146 251.541 92.146Z" fill="#222222" fill-opacity="0.6"/>
<path d="M290.708 115.587C294.347 115.587 297.297 113.816 297.297 111.632C297.297 109.447 294.347 107.676 290.708 107.676C287.07 107.676 284.12 109.447 284.12 111.632C284.12 113.816 287.07 115.587 290.708 115.587Z" fill="#222222" fill-opacity="0.6"/>
<path d="M199.38 107.712C203.019 107.712 205.968 105.941 205.968 103.756C205.968 101.572 203.019 99.8007 199.38 99.8007C195.741 99.8007 192.791 101.572 192.791 103.756C192.791 105.941 195.741 107.712 199.38 107.712Z" fill="#222222" fill-opacity="0.6"/>
<path d="M225.37 139.029C229.009 139.029 231.959 137.258 231.959 135.073C231.959 132.888 229.009 131.117 225.37 131.117C221.731 131.117 218.781 132.888 218.781 135.073C218.781 137.258 221.731 139.029 225.37 139.029Z" fill="#222222" fill-opacity="0.6"/>
<path d="M209.445 23.6534C213.084 23.6534 216.033 21.8824 216.033 19.6978C216.033 17.5131 213.084 15.7421 209.445 15.7421C205.806 15.7421 202.856 17.5131 202.856 19.6978C202.856 21.8824 205.806 23.6534 209.445 23.6534Z" fill="#222222"/>
<path d="M213.287 94.308L211.406 97.4508L237.602 113.145L239.483 110.002L213.287 94.308Z" fill="#222222"/>
<path d="M291.629 31.8985L289.724 35.0261L302.633 42.9018L304.539 39.7742L291.629 31.8985Z" fill="#222222"/>
<path d="M239.898 2.19665L237.062 2.2016L237.144 49.3447L239.98 49.3397L239.898 2.19665Z" fill="#222222" fill-opacity="0.6"/>
<path d="M252.201 86.9077L250.734 89.3364L263.703 97.1767L265.169 94.7481L252.201 86.9077Z" fill="#222222" fill-opacity="0.6"/>
<path d="M291.237 110.331L289.778 112.764L315.823 128.398L317.282 125.965L291.237 110.331Z" fill="#222222" fill-opacity="0.6"/>
<path d="M172.547 70.9982L159.45 78.8596L161.334 82.0008L174.43 74.1394L172.547 70.9982Z" fill="#222222" fill-opacity="0.6"/>
<path d="M200.81 101.78L161.715 125.434L163.618 128.584L202.714 104.93L200.81 101.78Z" fill="#222222" fill-opacity="0.6"/>
<path d="M226.374 133.386L224.49 136.528L263.487 159.937L265.37 156.795L226.374 133.386Z" fill="#222222" fill-opacity="0.6"/>
<path d="M266.288 33.6248H262.627V64.8091H266.288V33.6248Z" fill="#222222"/>
<path d="M301.725 56.9139L301.678 72.5601L305.339 72.5709L305.386 56.9248L301.725 56.9139Z" fill="#222222" fill-opacity="0.6"/>
<path d="M276.601 55.3154L237.525 78.7165L239.405 81.8596L278.481 58.4585L276.601 55.3154Z" fill="#222222" fill-opacity="0.6"/>
<path d="M280.09 59.3144C278.659 59.3387 277.246 58.9819 275.997 58.2804C274.675 57.4789 273.914 56.3046 273.914 55.0422C273.914 53.7797 274.675 52.6015 275.997 51.8079C278.292 50.4293 281.889 50.4293 284.184 51.8079C285.51 52.6095 286.267 53.7797 286.267 55.0422C286.267 56.3046 285.51 57.4869 284.184 58.2804C282.935 58.9822 281.522 59.3391 280.09 59.3144ZM280.09 53.6074C279.172 53.5859 278.264 53.8042 277.455 54.2406C276.934 54.5532 276.75 54.8699 276.75 55.0422C276.75 55.2145 276.934 55.5351 277.455 55.8437C278.861 56.6854 281.324 56.6854 282.726 55.8437C283.247 55.5311 283.431 55.2145 283.431 55.0422C283.431 54.8699 283.247 54.5532 282.726 54.2406C281.918 53.8033 281.009 53.585 280.09 53.6074Z" fill="#222222" fill-opacity="0.6"/>
<path d="M238.547 84.2707C242.186 84.2707 245.136 82.4997 245.136 80.315C245.136 78.1304 242.186 76.3594 238.547 76.3594C234.909 76.3594 231.959 78.1304 231.959 80.315C231.959 82.4997 234.909 84.2707 238.547 84.2707Z" fill="#222222" fill-opacity="0.6"/>
<path d="M185.541 144.403L158.638 128.252V45.8845L186.563 62.6128L237.602 31.8654L239.489 35.0034L186.571 66.8851L162.299 52.345V126.176L187.428 141.261L185.541 144.403Z" fill="#222222"/>
<path d="M238.547 37.3881C242.186 37.3881 245.136 35.617 245.136 33.4324C245.136 31.2478 242.186 29.4767 238.547 29.4767C234.909 29.4767 231.959 31.2478 231.959 33.4324C231.959 35.617 234.909 37.3881 238.547 37.3881Z" fill="#222222"/>
<path d="M278.484 42.8746L276.602 39.7366L287.092 33.4364L238.471 4.36015L226.455 11.6342L224.561 8.50016L238.463 0.0878906L294.217 33.4284L278.484 42.8746Z" fill="#222222"/>
<path d="M188.313 80.3551H184.652V111.596H188.313V80.3551Z" fill="#222222"/>
<path d="M186.983 121.739C185.903 121.699 184.882 121.239 184.136 120.457C182.209 118.593 181.28 115.118 182.017 112.541C182.441 111.058 183.383 110.02 184.6 109.692C185.818 109.363 187.156 109.792 188.265 110.866C190.192 112.73 191.121 116.204 190.384 118.781C189.959 120.264 189.018 121.302 187.8 121.631C187.534 121.703 187.259 121.739 186.983 121.739ZM185.417 112.421C185.389 112.417 185.361 112.417 185.333 112.421C185.161 112.465 184.905 112.726 184.736 113.311C184.288 114.886 184.925 117.266 186.102 118.405C186.539 118.805 186.903 118.926 187.059 118.878C187.216 118.83 187.488 118.573 187.652 117.988C188.105 116.413 187.468 114.032 186.29 112.894C186.065 112.637 185.756 112.469 185.417 112.421Z" fill="#222222"/>
<path d="M187.696 75.0889C185.541 73.0049 183.118 73.6542 182.293 76.5357C181.468 79.4173 182.553 83.4611 184.696 85.5452C186.839 87.6292 189.274 86.9759 190.099 84.0943C190.924 81.2128 189.847 77.173 187.696 75.0889Z" fill="#222222"/>
<path d="M240.378 177.327L210.671 159.492V127.214H214.331V157.416L236.713 170.854L236.637 96.0054L240.298 96.0014L240.378 177.327Z" fill="#222222"/>
<path d="M253.892 167.228C254.834 163.711 253.888 160.401 251.779 159.836C249.67 159.271 247.197 161.663 246.255 165.18C245.313 168.697 246.259 172.007 248.368 172.572C250.477 173.138 252.95 170.745 253.892 167.228Z" fill="#222222"/>
<path d="M178.306 74.1958C179.248 70.6788 178.302 67.3694 176.193 66.804C174.084 66.2385 171.611 68.6312 170.669 72.1483C169.727 75.6653 170.673 78.9747 172.782 79.5402C174.891 80.1056 177.364 77.7128 178.306 74.1958Z" fill="#222222" fill-opacity="0.6"/>
<path d="M276.602 149.105L250.584 164.723L252.468 167.864L278.485 152.246L276.602 149.105Z" fill="#222222"/>
<path d="M305.352 103.808H301.691V135.049H305.352V103.808Z" fill="#222222"/>
<path d="M307.339 100.938C308.28 97.4207 307.334 94.1112 305.225 93.5458C303.117 92.9804 300.643 95.3731 299.702 98.8902C298.76 102.407 299.706 105.717 301.815 106.282C303.924 106.847 306.397 104.455 307.339 100.938Z" fill="#222222"/>
<path d="M275.713 153.877V107.019L265.479 113.163L263.593 110.024L279.373 100.55V147.409L314.74 126.176V52.3489L278.5 74.107L276.618 70.9649L318.401 45.8804V128.252L275.713 153.877Z" fill="#222222"/>
<path d="M57.7494 110.046L31.6294 125.602L33.5017 128.749L59.6217 113.194L57.7494 110.046Z" fill="#222222"/>
<path d="M58.6976 176.209L44.6951 167.872L46.5695 164.726L58.6896 171.944L83.7948 156.871L85.6772 160.013L58.6976 176.209Z" fill="#222222"/>
<path d="M87.2875 160.727C85.8555 160.751 84.4428 160.394 83.1941 159.693C81.8683 158.891 81.1113 157.721 81.1113 156.458C81.1113 155.196 81.8683 154.018 83.1941 153.22C85.4891 151.841 89.0859 151.841 91.3809 153.22C92.7026 154.022 93.4636 155.196 93.4636 156.458C93.4636 157.721 92.7026 158.899 91.3809 159.693C90.1321 160.394 88.7194 160.751 87.2875 160.727ZM87.2875 155.024C86.3692 155 85.4607 155.217 84.652 155.653C84.1313 155.965 83.9471 156.282 83.9471 156.454C83.9471 156.627 84.1313 156.943 84.652 157.256C86.0538 158.101 88.5171 158.101 89.923 157.256C90.4437 156.943 90.6279 156.631 90.6279 156.454C90.6279 156.278 90.4437 155.961 89.923 155.653C89.114 155.218 88.2057 155.001 87.2875 155.024Z" fill="#222222"/>
<path d="M113.654 195.883C112.222 195.907 110.809 195.55 109.561 194.849C108.235 194.047 107.478 192.873 107.478 191.61C107.478 190.348 108.235 189.17 109.561 188.376C111.856 186.997 115.453 186.997 117.748 188.376C119.069 189.178 119.83 190.348 119.83 191.61C119.83 192.873 119.069 194.055 117.748 194.849C116.499 195.55 115.086 195.907 113.654 195.883ZM113.654 190.176C112.736 190.153 111.827 190.371 111.019 190.809C110.498 191.121 110.314 191.438 110.314 191.61C110.314 191.783 110.498 192.103 111.019 192.412C112.421 193.253 114.884 193.253 116.29 192.412C116.81 192.099 116.995 191.783 116.995 191.61C116.995 191.438 116.81 191.121 116.29 190.809C115.48 190.375 114.572 190.159 113.654 190.184V190.176Z" fill="#222222" fill-opacity="0.6"/>
<path d="M29.0984 133.257C27.6652 133.282 26.2513 132.925 25.001 132.223C23.6792 131.422 22.9222 130.252 22.9222 128.989C22.9222 127.727 23.6792 126.544 25.001 125.751C27.3 124.372 30.8968 124.372 33.1918 125.751C34.5136 126.552 35.2746 127.727 35.2746 128.989C35.2746 130.252 34.5136 131.43 33.1918 132.223C31.9428 132.924 30.5303 133.281 29.0984 133.257ZM29.0984 127.55C28.1798 127.528 27.2712 127.746 26.4629 128.184C25.9422 128.496 25.754 128.813 25.754 128.985C25.754 129.158 25.9422 129.474 26.4629 129.787C27.8648 130.628 30.328 130.628 31.7339 129.787C32.2546 129.474 32.4388 129.158 32.4388 128.985C32.4388 128.813 32.2546 128.492 31.7339 128.184C30.9252 127.747 30.017 127.529 29.0984 127.55Z" fill="#222222"/>
<path d="M67.8977 110C66.4658 110.025 65.053 109.668 63.8043 108.966C62.4786 108.165 61.7216 106.991 61.7216 105.728C61.7216 104.466 62.4786 103.287 63.8043 102.494C66.0994 101.115 69.6961 101.115 71.9911 102.494C73.3169 103.296 74.0739 104.466 74.0739 105.728C74.0739 106.991 73.3169 108.173 71.9911 108.966C70.7425 109.668 69.3297 110.025 67.8977 110ZM67.8977 104.293C66.9792 104.272 66.0708 104.49 65.2623 104.927C64.7416 105.239 64.5573 105.552 64.5573 105.728C64.5573 105.905 64.7416 106.221 65.2623 106.53C66.6681 107.371 69.1274 107.371 70.5332 106.53C71.0539 106.217 71.2382 105.901 71.2382 105.728C71.2382 105.556 71.0539 105.239 70.5332 104.927C69.7247 104.49 68.8163 104.272 67.8977 104.293Z" fill="#222222"/>
<path d="M152.822 140.948C151.389 140.973 149.975 140.616 148.724 139.914C147.403 139.113 146.646 137.943 146.646 136.68C146.646 135.418 147.403 134.235 148.724 133.442C151.024 132.063 154.62 132.063 156.915 133.442C158.237 134.243 158.998 135.418 158.998 136.68C158.998 137.943 158.237 139.121 156.915 139.914C155.666 140.616 154.254 140.973 152.822 140.948ZM152.822 135.241C151.903 135.219 150.995 135.437 150.186 135.875C149.666 136.187 149.482 136.504 149.482 136.676C149.482 136.848 149.666 137.165 150.186 137.478C151.588 138.323 154.052 138.323 155.457 137.478C155.978 137.165 156.162 136.852 156.162 136.676C156.162 136.5 155.978 136.183 155.457 135.875C154.649 135.438 153.74 135.22 152.822 135.241Z" fill="#222222"/>
<path d="M43.0048 168.786C41.5729 168.81 40.1604 168.453 38.9114 167.752C37.5896 166.951 36.8286 165.776 36.8286 164.514C36.8286 163.251 37.5896 162.073 38.9114 161.28C41.2064 159.901 44.8032 159.901 47.1022 161.28C48.4239 162.081 49.1809 163.251 49.1809 164.514C49.1809 165.776 48.4239 166.959 47.1022 167.752C45.8519 168.454 44.438 168.81 43.0048 168.786ZM43.0048 163.079C42.0862 163.058 41.1779 163.276 40.3693 163.712C39.8486 164.025 39.6644 164.342 39.6644 164.514C39.6644 164.686 39.8486 165.007 40.3693 165.315C41.7752 166.157 44.2384 166.157 45.6403 165.315C46.161 165.003 46.3492 164.686 46.3492 164.514C46.3492 164.342 46.161 164.025 45.6403 163.712C44.832 163.275 43.9234 163.057 43.0048 163.079Z" fill="#222222"/>
<path d="M56.5988 194.035C55.5202 193.994 54.5 193.534 53.7551 192.752C51.8285 190.889 50.8993 187.414 51.6323 184.837C52.0568 183.354 53.0021 182.316 54.2197 181.988C55.4373 181.659 56.7751 182.088 57.8845 183.162C59.8071 185.026 60.7403 188.5 60.0033 191.077C59.5788 192.56 58.6335 193.598 57.4159 193.927C57.1495 193.999 56.8748 194.035 56.5988 194.035ZM55.0408 184.717C55.0116 184.713 54.9819 184.713 54.9527 184.717C54.7844 184.761 54.5281 185.022 54.3599 185.607C53.9113 187.182 54.5481 189.562 55.7257 190.701C56.1623 191.101 56.5267 191.222 56.6829 191.173C56.8392 191.125 57.1075 190.869 57.2757 190.284C57.7283 188.709 57.0875 186.328 55.9139 185.19C55.6882 184.934 55.3787 184.766 55.0408 184.717Z" fill="#222222"/>
<path d="M84.6038 192.019C83.5239 191.979 82.5022 191.519 81.756 190.737C79.8295 188.877 78.9003 185.398 79.6373 182.821C80.0618 181.338 81.003 180.3 82.2206 179.972C83.4382 179.643 84.776 180.076 85.8855 181.146C87.812 183.01 88.7412 186.488 88.0043 189.061C87.5797 190.548 86.6385 191.586 85.4209 191.911C85.1544 191.983 84.8797 192.019 84.6038 192.019ZM83.0417 182.705H82.9576C82.7854 182.749 82.5291 183.01 82.3608 183.595C81.9122 185.17 82.5491 187.55 83.7266 188.689C84.1632 189.113 84.5277 189.21 84.6839 189.166C84.8401 189.121 85.1125 188.857 85.2807 188.276C85.7293 186.701 85.0924 184.32 83.9149 183.178C83.6905 182.92 83.3804 182.752 83.0417 182.705Z" fill="#222222"/>
<path d="M106.833 212.895C106.563 212.895 106.293 212.86 106.032 212.791C104.83 212.463 103.869 211.425 103.445 209.942C102.708 207.365 103.641 203.886 105.563 202.026C106.673 200.952 108.011 200.524 109.228 200.852C110.446 201.181 111.391 202.215 111.816 203.702C112.549 206.275 111.619 209.753 109.693 211.617C108.943 212.4 107.916 212.859 106.833 212.895ZM108.391 203.581C108.053 203.633 107.744 203.805 107.522 204.066C106.344 205.205 105.704 207.585 106.156 209.16C106.324 209.745 106.581 210.006 106.749 210.05C106.917 210.094 107.27 209.998 107.706 209.577C108.884 208.435 109.521 206.054 109.072 204.479C108.904 203.898 108.647 203.638 108.479 203.589L108.391 203.581Z" fill="#222222"/>
<path d="M148.929 176.269C148.659 176.267 148.39 176.232 148.128 176.164C146.926 175.836 145.965 174.798 145.54 173.311C144.803 170.738 145.737 167.259 147.659 165.4C148.769 164.326 150.106 163.897 151.324 164.225C152.542 164.554 153.487 165.588 153.908 167.075C154.644 169.648 153.715 173.127 151.789 174.986C151.04 175.772 150.013 176.232 148.929 176.269ZM150.487 166.955C150.147 167.007 149.838 167.179 149.614 167.44C148.44 168.578 147.799 170.958 148.252 172.533C148.42 173.115 148.677 173.375 148.845 173.423C149.013 173.471 149.366 173.371 149.802 172.95C150.98 171.808 151.616 169.427 151.168 167.852C151 167.271 150.743 167.011 150.575 166.963L150.487 166.955Z" fill="#222222" fill-opacity="0.6"/>
<path d="M59.3463 223.135C58.2664 223.095 57.2447 222.635 56.4986 221.853C54.5721 219.993 53.6428 216.514 54.3798 213.941C54.8044 212.455 55.7456 211.417 56.9632 211.092C58.1808 210.767 59.5186 211.192 60.628 212.266C62.5546 214.126 63.4838 217.605 62.7468 220.178C62.3223 221.664 61.3811 222.702 60.1634 223.031C59.8968 223.101 59.6221 223.136 59.3463 223.135ZM57.7843 213.821H57.7002C57.528 213.869 57.2716 214.13 57.1074 214.711C56.6548 216.286 57.2916 218.667 58.4692 219.809C58.9058 220.21 59.2703 220.326 59.4265 220.282C59.5827 220.238 59.855 219.977 60.0232 219.392C60.4718 217.817 59.835 215.436 58.6575 214.298C58.4305 214.045 58.1209 213.882 57.7843 213.837V213.821Z" fill="#222222"/>
<path d="M6.58456 146.86C10.2234 146.86 13.1733 145.089 13.1733 142.904C13.1733 140.719 10.2234 138.948 6.58456 138.948C2.94572 138.948 -0.00415039 140.719 -0.00415039 142.904C-0.00415039 145.089 2.94572 146.86 6.58456 146.86Z" fill="#222222"/>
<path d="M88.5552 144.113C89.497 140.596 88.5509 137.287 86.442 136.721C84.3331 136.156 81.86 138.549 80.9182 142.066C79.9764 145.583 80.9225 148.892 83.0314 149.458C85.1403 150.023 87.6134 147.63 88.5552 144.113Z" fill="#222222" fill-opacity="0.6"/>
<path d="M33.8849 231.263C31.73 229.179 29.3108 229.828 28.4857 232.71C27.6607 235.591 28.7421 239.631 30.8889 241.715C33.0358 243.799 35.467 243.15 36.2881 240.268C37.1092 237.387 36.0397 233.347 33.8849 231.263Z" fill="#222222"/>
<path d="M112.43 133.525C114.539 132.959 115.485 129.65 114.544 126.133C113.602 122.616 111.129 120.223 109.02 120.788C106.911 121.354 105.965 124.663 106.907 128.18C107.848 131.697 110.321 134.09 112.43 133.525Z" fill="#222222"/>
<path d="M123.72 138.985C127.358 138.985 130.308 137.214 130.308 135.029C130.308 132.844 127.358 131.073 123.72 131.073C120.081 131.073 117.131 132.844 117.131 135.029C117.131 137.214 120.081 138.985 123.72 138.985Z" fill="#222222"/>
<path d="M122.991 169.572C126.629 169.572 129.579 167.801 129.579 165.616C129.579 163.431 126.629 161.66 122.991 161.66C119.352 161.66 116.402 163.431 116.402 165.616C116.402 167.801 119.352 169.572 122.991 169.572Z" fill="#222222"/>
<path d="M97.7331 185.871C101.372 185.871 104.322 184.1 104.322 181.916C104.322 179.731 101.372 177.96 97.7331 177.96C94.0943 177.96 91.1444 179.731 91.1444 181.916C91.1444 184.1 94.0943 185.871 97.7331 185.871Z" fill="#222222" fill-opacity="0.6"/>
<path d="M136.897 209.313C140.536 209.313 143.486 207.542 143.486 205.357C143.486 203.172 140.536 201.401 136.897 201.401C133.258 201.401 130.308 203.172 130.308 205.357C130.308 207.542 133.258 209.313 136.897 209.313Z" fill="#222222" fill-opacity="0.6"/>
<path d="M45.5682 201.437C49.207 201.437 52.1569 199.666 52.1569 197.482C52.1569 195.297 49.207 193.526 45.5682 193.526C41.9294 193.526 38.9795 195.297 38.9795 197.482C38.9795 199.666 41.9294 201.437 45.5682 201.437Z" fill="#222222" fill-opacity="0.6"/>
<path d="M71.5585 232.754C75.1974 232.754 78.1472 230.983 78.1472 228.798C78.1472 226.614 75.1974 224.843 71.5585 224.843C67.9197 224.843 64.9698 226.614 64.9698 228.798C64.9698 230.983 67.9197 232.754 71.5585 232.754Z" fill="#222222" fill-opacity="0.6"/>
<path d="M55.6375 117.375C59.2764 117.375 62.2262 115.604 62.2262 113.419C62.2262 111.234 59.2764 109.463 55.6375 109.463C51.9987 109.463 49.0488 111.234 49.0488 113.419C49.0488 115.604 51.9987 117.375 55.6375 117.375Z" fill="#222222"/>
<path d="M59.4815 188.028L57.601 191.171L83.797 206.865L85.6775 203.722L59.4815 188.028Z" fill="#222222"/>
<path d="M137.808 125.622L135.902 128.75L148.812 136.625L150.717 133.498L137.808 125.622Z" fill="#222222"/>
<path d="M86.0937 95.9299L83.2579 95.9348L83.3402 143.078L86.1759 143.073L86.0937 95.9299Z" fill="#222222" fill-opacity="0.6"/>
<path d="M98.3972 180.628L96.9308 183.057L109.899 190.897L111.366 188.468L98.3972 180.628Z" fill="#222222" fill-opacity="0.6"/>
<path d="M137.439 204.052L135.98 206.485L162.025 222.12L163.484 219.686L137.439 204.052Z" fill="#222222" fill-opacity="0.6"/>
<path d="M18.7212 164.715L5.62488 172.576L7.50816 175.717L20.6045 167.856L18.7212 164.715Z" fill="#222222" fill-opacity="0.6"/>
<path d="M46.8028 196.419L7.70715 220.073L9.61078 223.223L48.7064 199.569L46.8028 196.419Z" fill="#222222" fill-opacity="0.6"/>
<path d="M72.5795 227.108L70.6962 230.249L109.693 253.658L111.576 250.517L72.5795 227.108Z" fill="#222222" fill-opacity="0.6"/>
<path d="M112.477 127.346H108.816V158.53H112.477V127.346Z" fill="#222222"/>
<path d="M147.922 150.636L147.875 166.282L151.536 166.293L151.582 150.647L147.922 150.636Z" fill="#222222" fill-opacity="0.6"/>
<path d="M122.805 149.044L83.7283 172.445L85.6083 175.588L124.685 152.187L122.805 149.044Z" fill="#222222" fill-opacity="0.6"/>
<path d="M126.283 153.036C124.851 153.06 123.438 152.704 122.19 152.002C120.864 151.2 120.107 150.03 120.107 148.767C120.107 147.505 120.864 146.323 122.19 145.529C124.485 144.151 128.081 144.151 130.376 145.529C131.698 146.331 132.459 147.505 132.459 148.767C132.459 150.03 131.698 151.208 130.376 152.002C129.128 152.703 127.715 153.06 126.283 153.036ZM126.283 147.329C125.364 147.306 124.456 147.525 123.648 147.962C123.127 148.274 122.943 148.591 122.943 148.763C122.943 148.936 123.127 149.252 123.648 149.565C125.049 150.411 127.513 150.411 128.918 149.565C129.439 149.252 129.623 148.936 129.623 148.763C129.623 148.591 129.439 148.27 128.918 147.962C128.11 147.525 127.202 147.307 126.283 147.329Z" fill="#222222" fill-opacity="0.6"/>
<path d="M84.7359 177.996C88.3748 177.996 91.3246 176.225 91.3246 174.04C91.3246 171.856 88.3748 170.085 84.7359 170.085C81.0971 170.085 78.1472 171.856 78.1472 174.04C78.1472 176.225 81.0971 177.996 84.7359 177.996Z" fill="#222222" fill-opacity="0.6"/>
<path d="M31.7339 238.128L4.82629 221.973V139.606L32.7552 156.338L83.7947 125.587L85.6812 128.725L32.7592 160.606L8.48713 146.07V219.901L33.6163 234.986L31.7339 238.128Z" fill="#222222"/>
<path d="M84.7359 131.113C88.3748 131.113 91.3246 129.342 91.3246 127.158C91.3246 124.973 88.3748 123.202 84.7359 123.202C81.0971 123.202 78.1472 124.973 78.1472 127.158C78.1472 129.342 81.0971 131.113 84.7359 131.113Z" fill="#222222"/>
<path d="M124.677 136.6L122.794 133.458L133.284 127.158L84.6641 98.0854L72.6482 105.355L70.7537 102.221L84.652 93.8091L140.41 127.154L124.677 136.6Z" fill="#222222"/>
<path d="M34.5057 174.076H30.8448V205.317H34.5057V174.076Z" fill="#222222"/>
<path d="M33.1718 215.46C32.0932 215.42 31.073 214.96 30.3281 214.178C28.4015 212.318 27.4723 208.84 28.2053 206.267C28.6298 204.78 29.5751 203.742 30.7927 203.413C32.0103 203.084 33.3481 203.517 34.4575 204.591C36.3801 206.451 37.3133 209.93 36.5763 212.503C36.1518 213.99 35.2065 215.028 33.9889 215.352C33.7225 215.424 33.4478 215.461 33.1718 215.46ZM31.6138 206.146H31.5256C31.3574 206.191 31.1011 206.451 30.9329 207.036C30.4843 208.611 31.1211 210.992 32.2987 212.13C32.7352 212.555 33.0997 212.651 33.2559 212.607C33.4121 212.563 33.6805 212.298 33.8487 211.717C34.3013 210.142 33.6605 207.762 32.4829 206.619C32.26 206.362 31.9512 206.193 31.6138 206.146Z" fill="#222222"/>
<path d="M33.8849 168.81C31.73 166.726 29.3108 167.379 28.4857 170.261C27.6607 173.143 28.7421 177.182 30.8889 179.266C33.0358 181.35 35.467 180.701 36.2881 177.82C37.1092 174.938 36.0397 170.894 33.8849 168.81Z" fill="#222222"/>
<path d="M86.5703 271.048L56.863 253.213V220.935H60.5239V251.137L82.9055 264.575L82.8254 189.731L86.4862 189.727L86.5703 271.048Z" fill="#222222"/>
<path d="M100.085 260.95C101.027 257.433 100.081 254.124 97.9722 253.558C95.8633 252.993 93.3901 255.386 92.4483 258.903C91.5065 262.42 92.4527 265.729 94.5616 266.295C96.6705 266.86 99.1436 264.467 100.085 260.95Z" fill="#222222"/>
<path d="M24.4996 167.918C25.4414 164.401 24.4952 161.092 22.3863 160.526C20.2774 159.961 17.8043 162.354 16.8625 165.871C15.9207 169.388 16.8668 172.697 18.9757 173.263C21.0847 173.828 23.5578 171.435 24.4996 167.918Z" fill="#222222" fill-opacity="0.6"/>
<path d="M122.78 242.821L96.7629 258.439L98.6462 261.58L124.664 245.963L122.78 242.821Z" fill="#222222"/>
<path d="M151.544 197.53H147.884V228.77H151.544V197.53Z" fill="#222222"/>
<path d="M153.528 194.655C154.47 191.138 153.524 187.829 151.415 187.263C149.306 186.698 146.833 189.09 145.891 192.607C144.95 196.124 145.896 199.434 148.005 199.999C150.113 200.565 152.587 198.172 153.528 194.655Z" fill="#222222"/>
<path d="M121.905 247.603V200.74L111.668 206.888L109.785 203.746L125.566 194.271V241.13L160.929 219.901V146.07L124.689 167.828L122.806 164.69L164.59 139.602V221.973L121.905 247.603Z" fill="#222222"/>
<path d="M213.959 203.092L187.839 218.647L189.712 221.795L215.831 206.239L213.959 203.092Z" fill="#222222"/>
<path d="M214.908 269.248L200.91 260.908L202.78 257.762L214.9 264.984L240.009 249.911L241.892 253.049L214.908 269.248Z" fill="#222222"/>
<path d="M243.494 253.767C242.062 253.791 240.649 253.434 239.401 252.733C238.079 251.931 237.318 250.761 237.318 249.498C237.318 248.236 238.079 247.054 239.401 246.26C241.696 244.881 245.292 244.881 247.587 246.26C248.913 247.062 249.67 248.236 249.67 249.498C249.67 250.761 248.913 251.939 247.587 252.733C246.339 253.434 244.926 253.791 243.494 253.767ZM243.494 248.059C242.575 248.038 241.667 248.256 240.858 248.693C240.338 249.005 240.153 249.322 240.153 249.494C240.153 249.667 240.338 249.983 240.858 250.296C242.264 251.137 244.728 251.137 246.129 250.296C246.65 249.983 246.834 249.667 246.834 249.494C246.834 249.322 246.65 249.001 246.129 248.693C245.321 248.256 244.412 248.038 243.494 248.059Z" fill="#222222"/>
<path d="M269.865 288.931C268.433 288.955 267.02 288.598 265.771 287.897C264.45 287.095 263.689 285.921 263.689 284.658C263.689 283.396 264.45 282.218 265.771 281.424C268.066 280.045 271.663 280.045 273.958 281.424C275.284 282.226 276.041 283.396 276.041 284.658C276.041 285.921 275.284 287.099 273.958 287.897C272.71 288.598 271.297 288.955 269.865 288.931ZM269.865 283.224C268.946 283.2 268.037 283.419 267.229 283.857C266.709 284.169 266.524 284.482 266.524 284.658C266.524 284.835 266.709 285.151 267.229 285.46C268.635 286.301 271.099 286.301 272.5 285.46C273.021 285.147 273.205 284.831 273.205 284.658C273.205 284.486 273.021 284.169 272.5 283.857C271.693 283.418 270.784 283.199 269.865 283.224Z" fill="#222222" fill-opacity="0.6"/>
<path d="M185.309 226.297C183.877 226.322 182.464 225.965 181.216 225.263C179.89 224.462 179.133 223.288 179.133 222.025C179.133 220.763 179.89 219.584 181.216 218.791C183.511 217.412 187.107 217.412 189.402 218.791C190.728 219.592 191.485 220.763 191.485 222.025C191.485 223.288 190.728 224.47 189.402 225.263C188.154 225.965 186.741 226.322 185.309 226.297ZM185.309 220.59C184.39 220.568 183.482 220.787 182.674 221.224C182.153 221.536 181.969 221.849 181.969 222.025C181.969 222.201 182.153 222.518 182.674 222.827C184.075 223.668 186.539 223.668 187.944 222.827C188.465 222.514 188.649 222.197 188.649 222.025C188.649 221.853 188.465 221.536 187.944 221.224C187.136 220.787 186.228 220.568 185.309 220.59Z" fill="#222222"/>
<path d="M224.108 203.036C222.677 203.06 221.264 202.703 220.015 202.002C218.693 201.201 217.932 200.031 217.932 198.768C217.932 197.506 218.693 196.327 220.015 195.53C222.31 194.151 225.907 194.151 228.206 195.53C229.528 196.331 230.285 197.506 230.285 198.768C230.285 200.031 229.528 201.209 228.206 202.002C226.956 202.704 225.542 203.061 224.108 203.036ZM224.108 197.333C223.19 197.311 222.282 197.528 221.473 197.963C220.952 198.275 220.768 198.592 220.768 198.764C220.768 198.936 220.952 199.253 221.473 199.566C222.879 200.411 225.342 200.411 226.744 199.566C227.265 199.253 227.453 198.941 227.453 198.764C227.453 198.588 227.265 198.271 226.744 197.963C225.935 197.527 225.027 197.31 224.108 197.333Z" fill="#222222"/>
<path d="M309.033 233.988C307.601 234.013 306.188 233.656 304.939 232.954C303.617 232.153 302.856 230.978 302.856 229.716C302.856 228.454 303.617 227.275 304.939 226.482C307.234 225.103 310.831 225.103 313.126 226.482C314.452 227.283 315.209 228.454 315.209 229.716C315.209 230.978 314.452 232.161 313.126 232.954C311.877 233.656 310.465 234.013 309.033 233.988ZM309.033 228.281C308.114 228.259 307.206 228.478 306.397 228.914C305.876 229.227 305.692 229.544 305.692 229.716C305.692 229.888 305.876 230.209 306.397 230.518C307.803 231.359 310.266 231.359 311.668 230.518C312.189 230.205 312.373 229.888 312.373 229.716C312.373 229.544 312.189 229.227 311.668 228.914C310.86 228.478 309.951 228.259 309.033 228.281Z" fill="#222222"/>
<path d="M199.22 261.826C197.788 261.851 196.375 261.494 195.126 260.792C193.8 259.991 193.043 258.816 193.043 257.554C193.043 256.291 193.8 255.113 195.126 254.32C197.421 252.941 201.018 252.941 203.313 254.32C204.635 255.121 205.396 256.291 205.396 257.554C205.396 258.816 204.635 259.999 203.313 260.792C202.064 261.493 200.651 261.85 199.22 261.826ZM199.22 256.119C198.301 256.095 197.392 256.313 196.584 256.752C196.063 257.065 195.879 257.378 195.879 257.554C195.879 257.73 196.063 258.047 196.584 258.355C197.986 259.197 200.449 259.197 201.855 258.355C202.376 258.043 202.56 257.726 202.56 257.554C202.56 257.382 202.376 257.065 201.855 256.752C201.047 256.314 200.138 256.095 199.22 256.119Z" fill="#222222"/>
<path d="M212.813 287.071C211.734 287.031 210.713 286.572 209.966 285.792C208.039 283.929 207.11 280.45 207.847 277.877C208.271 276.39 209.213 275.352 210.43 275.028C211.648 274.703 212.985 275.128 214.095 276.202C216.021 278.062 216.951 281.54 216.214 284.117C215.789 285.6 214.848 286.638 213.63 286.967C213.364 287.037 213.089 287.072 212.813 287.071ZM211.251 277.757H211.167C210.995 277.805 210.739 278.066 210.57 278.651C210.122 280.226 210.759 282.606 211.936 283.744C212.373 284.145 212.737 284.261 212.893 284.217C213.05 284.173 213.322 283.913 213.49 283.328C213.939 281.753 213.302 279.372 212.124 278.234C211.9 277.975 211.59 277.806 211.251 277.757Z" fill="#222222"/>
<path d="M240.814 285.059C239.735 285.018 238.713 284.558 237.967 283.777C236.044 281.913 235.111 278.438 235.848 275.861C236.272 274.378 237.218 273.34 238.435 273.012C239.653 272.683 240.987 273.112 242.096 274.186C244.023 276.05 244.952 279.524 244.219 282.101C243.794 283.584 242.849 284.622 241.631 284.951C241.365 285.023 241.09 285.059 240.814 285.059ZM239.252 275.741C239.224 275.736 239.196 275.736 239.168 275.741C239 275.785 238.744 276.046 238.575 276.631C238.123 278.206 238.764 280.586 239.937 281.725C240.378 282.125 240.738 282.246 240.898 282.197C241.059 282.149 241.323 281.893 241.491 281.308C241.94 279.733 241.303 277.352 240.125 276.214C239.9 275.957 239.59 275.789 239.252 275.741Z" fill="#222222"/>
<path d="M263.044 305.935C262.773 305.934 262.504 305.898 262.243 305.827C261.041 305.503 260.084 304.465 259.659 302.978C258.922 300.401 259.852 296.926 261.778 295.062C262.888 293.992 264.222 293.563 265.439 293.888C266.657 294.213 267.602 295.255 268.027 296.738C268.763 299.315 267.83 302.793 265.908 304.653C265.157 305.438 264.129 305.899 263.044 305.935ZM264.606 296.621C264.266 296.67 263.956 296.841 263.733 297.102C262.555 298.241 261.918 300.621 262.367 302.196C262.535 302.781 262.792 303.042 262.96 303.09C263.128 303.138 263.485 303.038 263.921 302.613C265.099 301.475 265.736 299.094 265.283 297.519C265.119 296.934 264.858 296.673 264.69 296.629C264.663 296.622 264.634 296.62 264.606 296.621Z" fill="#222222"/>
<path d="M305.139 269.309C304.869 269.307 304.6 269.271 304.338 269.2C303.137 268.876 302.179 267.834 301.755 266.351C301.018 263.774 301.947 260.299 303.874 258.436C304.983 257.365 306.317 256.937 307.535 257.261C308.752 257.586 309.697 258.628 310.122 260.111C310.859 262.688 309.926 266.162 308.003 268.026C307.253 268.811 306.225 269.272 305.139 269.309ZM306.702 259.991C306.362 260.042 306.051 260.214 305.828 260.475C304.651 261.614 304.014 263.994 304.463 265.569C304.631 266.154 304.887 266.415 305.055 266.459C305.224 266.503 305.58 266.411 306.017 265.986C307.194 264.848 307.831 262.467 307.378 260.892C307.214 260.307 306.954 260.047 306.786 260.003C306.758 259.999 306.729 260.001 306.702 260.007V259.991Z" fill="#222222" fill-opacity="0.6"/>
<path d="M215.557 316.191C214.477 316.15 213.456 315.69 212.709 314.909C210.787 313.049 209.853 309.57 210.59 306.993C211.015 305.511 211.96 304.473 213.178 304.144C214.395 303.815 215.729 304.248 216.839 305.318C218.765 307.182 219.694 310.657 218.961 313.234C218.537 314.72 217.592 315.758 216.374 316.083C216.108 316.155 215.833 316.191 215.557 316.191ZM213.995 306.877C213.967 306.873 213.939 306.873 213.911 306.877C213.743 306.921 213.486 307.182 213.318 307.767C212.865 309.342 213.506 311.723 214.684 312.861C215.12 313.286 215.485 313.382 215.641 313.334C215.797 313.286 216.066 313.029 216.234 312.444C216.682 310.869 216.046 308.488 214.868 307.35C214.641 307.1 214.331 306.939 213.995 306.897V306.877Z" fill="#222222"/>
<path d="M162.799 239.9C166.438 239.9 169.388 238.129 169.388 235.944C169.388 233.759 166.438 231.988 162.799 231.988C159.16 231.988 156.21 233.759 156.21 235.944C156.21 238.129 159.16 239.9 162.799 239.9Z" fill="#222222"/>
<path d="M246.902 235.986C247.848 232.454 246.898 229.131 244.78 228.563C242.662 227.995 240.178 230.397 239.232 233.929C238.286 237.461 239.236 240.784 241.354 241.353C243.472 241.921 245.956 239.518 246.902 235.986Z" fill="#222222" fill-opacity="0.6"/>
<path d="M190.099 324.299C187.945 322.215 185.521 322.864 184.696 325.75C183.871 328.635 184.957 332.671 187.099 334.755C189.242 336.839 191.678 336.19 192.503 333.304C193.328 330.419 192.25 326.383 190.099 324.299Z" fill="#222222"/>
<path d="M268.642 226.564C270.751 225.998 271.697 222.689 270.755 219.172C269.814 215.655 267.341 213.262 265.232 213.828C263.123 214.393 262.177 217.702 263.118 221.219C264.06 224.736 266.533 227.129 268.642 226.564Z" fill="#222222"/>
<path d="M279.934 232.024C283.573 232.024 286.523 230.253 286.523 228.069C286.523 225.884 283.573 224.113 279.934 224.113C276.295 224.113 273.345 225.884 273.345 228.069C273.345 230.253 276.295 232.024 279.934 232.024Z" fill="#222222"/>
<path d="M279.201 262.608C282.84 262.608 285.79 260.837 285.79 258.652C285.79 256.467 282.84 254.696 279.201 254.696C275.562 254.696 272.613 256.467 272.613 258.652C272.613 260.837 275.562 262.608 279.201 262.608Z" fill="#222222"/>
<path d="M253.944 278.907C257.583 278.907 260.533 277.136 260.533 274.952C260.533 272.767 257.583 270.996 253.944 270.996C250.305 270.996 247.355 272.767 247.355 274.952C247.355 277.136 250.305 278.907 253.944 278.907Z" fill="#222222" fill-opacity="0.6"/>
<path d="M293.112 302.349C296.75 302.349 299.7 300.577 299.7 298.393C299.7 296.208 296.75 294.437 293.112 294.437C289.473 294.437 286.523 296.208 286.523 298.393C286.523 300.577 289.473 302.349 293.112 302.349Z" fill="#222222" fill-opacity="0.6"/>
<path d="M201.783 294.473C205.422 294.473 208.372 292.702 208.372 290.518C208.372 288.333 205.422 286.562 201.783 286.562C198.144 286.562 195.194 288.333 195.194 290.518C195.194 292.702 198.144 294.473 201.783 294.473Z" fill="#222222" fill-opacity="0.6"/>
<path d="M227.773 325.79C231.412 325.79 234.362 324.019 234.362 321.834C234.362 319.649 231.412 317.878 227.773 317.878C224.134 317.878 221.184 319.649 221.184 321.834C221.184 324.019 224.134 325.79 227.773 325.79Z" fill="#222222" fill-opacity="0.6"/>
<path d="M211.848 210.415C215.487 210.415 218.437 208.644 218.437 206.459C218.437 204.274 215.487 202.503 211.848 202.503C208.209 202.503 205.259 204.274 205.259 206.459C205.259 208.644 208.209 210.415 211.848 210.415Z" fill="#222222"/>
<path d="M215.693 281.066L213.813 284.209L240.009 299.903L241.889 296.76L215.693 281.066Z" fill="#222222"/>
<path d="M294.027 218.675L292.121 221.803L305.031 229.679L306.937 226.551L294.027 218.675Z" fill="#222222"/>
<path d="M242.314 188.957L239.479 188.962L239.561 236.105L242.397 236.1L242.314 188.957Z" fill="#222222" fill-opacity="0.6"/>
<path d="M254.61 273.664L253.143 276.093L266.112 283.933L267.579 281.504L254.61 273.664Z" fill="#222222" fill-opacity="0.6"/>
<path d="M293.646 297.081L292.187 299.515L318.232 315.149L319.691 312.716L293.646 297.081Z" fill="#222222" fill-opacity="0.6"/>
<path d="M174.936 257.768L161.839 265.629L163.723 268.77L176.819 260.909L174.936 257.768Z" fill="#222222" fill-opacity="0.6"/>
<path d="M203.923 289.198L164.827 312.852L166.731 316.002L205.826 292.349L203.923 289.198Z" fill="#222222" fill-opacity="0.6"/>
<path d="M228.782 320.137L226.899 323.278L265.896 346.687L267.779 343.546L228.782 320.137Z" fill="#222222" fill-opacity="0.6"/>
<path d="M268.691 220.386H265.03V251.57H268.691V220.386Z" fill="#222222"/>
<path d="M304.126 243.672L304.08 259.318L307.741 259.329L307.787 243.683L304.126 243.672Z" fill="#222222" fill-opacity="0.6"/>
<path d="M279.02 242.067L239.943 265.468L241.823 268.612L280.9 245.211L279.02 242.067Z" fill="#222222" fill-opacity="0.6"/>
<path d="M282.493 246.076C281.062 246.1 279.649 245.743 278.4 245.042C277.078 244.24 276.317 243.066 276.317 241.803C276.317 240.541 277.078 239.363 278.4 238.569C280.695 237.19 284.292 237.19 286.587 238.569C287.913 239.371 288.67 240.541 288.67 241.803C288.67 243.066 287.913 244.248 286.587 245.042C285.338 245.744 283.925 246.1 282.493 246.076ZM282.493 240.369C281.575 240.347 280.667 240.565 279.858 241.002C279.337 241.314 279.153 241.631 279.153 241.803C279.153 241.976 279.337 242.296 279.858 242.605C281.264 243.447 283.727 243.447 285.129 242.605C285.65 242.292 285.834 241.976 285.834 241.803C285.834 241.631 285.65 241.314 285.129 241.002C284.321 240.565 283.412 240.346 282.493 240.369Z" fill="#222222" fill-opacity="0.6"/>
<path d="M240.95 271.032C244.589 271.032 247.539 269.261 247.539 267.076C247.539 264.892 244.589 263.121 240.95 263.121C237.312 263.121 234.362 264.892 234.362 267.076C234.362 269.261 237.312 271.032 240.95 271.032Z" fill="#222222" fill-opacity="0.6"/>
<path d="M187.945 331.164L161.041 315.013V232.646L188.966 249.374L240.005 218.627L241.892 221.765L188.974 253.646L164.702 239.106V312.937L189.831 328.022L187.945 331.164Z" fill="#222222"/>
<path d="M240.95 224.149C244.589 224.149 247.539 222.378 247.539 220.194C247.539 218.009 244.589 216.238 240.95 216.238C237.312 216.238 234.362 218.009 234.362 220.194C234.362 222.378 237.312 224.149 240.95 224.149Z" fill="#222222"/>
<path d="M280.887 229.636L279.005 226.498L289.495 220.198L240.874 191.121L228.858 198.395L226.964 195.261L240.866 186.849L296.62 220.194L280.887 229.636Z" fill="#222222"/>
<path d="M190.716 267.116H187.055V298.357H190.716V267.116Z" fill="#222222"/>
<path d="M189.386 308.5C188.306 308.46 187.285 308 186.539 307.218C184.612 305.354 183.683 301.88 184.42 299.303C184.844 297.82 185.786 296.782 187.003 296.453C188.221 296.124 189.559 296.553 190.668 297.627C192.595 299.491 193.524 302.966 192.787 305.543C192.362 307.026 191.421 308.064 190.203 308.392C189.937 308.464 189.662 308.5 189.386 308.5ZM187.824 299.182C187.796 299.178 187.768 299.178 187.74 299.182C187.568 299.226 187.312 299.487 187.143 300.072C186.695 301.647 187.332 304.028 188.509 305.166C188.946 305.567 189.31 305.687 189.466 305.639C189.623 305.591 189.895 305.334 190.059 304.749C190.512 303.174 189.875 300.794 188.697 299.655C188.471 299.397 188.16 299.229 187.82 299.182H187.824Z" fill="#222222"/>
<path d="M190.099 261.85C187.945 259.766 185.521 260.415 184.696 263.297C183.871 266.179 184.957 270.222 187.099 272.306C189.242 274.39 191.678 273.737 192.503 270.856C193.328 267.974 192.25 263.934 190.099 261.85Z" fill="#222222"/>
<path d="M242.781 364.088L213.074 346.253V313.975H216.735V344.177L239.116 357.615L239.04 282.767H242.701L242.781 364.088Z" fill="#222222"/>
<path d="M256.293 353.991C257.235 350.474 256.288 347.164 254.18 346.599C252.071 346.033 249.598 348.426 248.656 351.943C247.714 355.46 248.66 358.77 250.769 359.335C252.878 359.9 255.351 357.508 256.293 353.991Z" fill="#222222"/>
<path d="M180.707 260.955C181.649 257.438 180.702 254.128 178.594 253.563C176.485 252.997 174.012 255.39 173.07 258.907C172.128 262.424 173.074 265.734 175.183 266.299C177.292 266.864 179.765 264.472 180.707 260.955Z" fill="#222222" fill-opacity="0.6"/>
<path d="M278.995 335.871L252.977 351.488L254.86 354.629L280.878 339.012L278.995 335.871Z" fill="#222222"/>
<path d="M307.755 290.57H304.094V321.81H307.755V290.57Z" fill="#222222"/>
<path d="M309.74 287.697C310.681 284.18 309.735 280.87 307.626 280.305C305.517 279.739 303.044 282.132 302.102 285.649C301.161 289.166 302.107 292.475 304.216 293.041C306.325 293.606 308.798 291.214 309.74 287.697Z" fill="#222222"/>
<path d="M278.116 340.639V293.78L267.882 299.924L265.996 296.786L281.777 287.311V334.17L317.143 312.937V239.11L280.903 260.868L279.021 257.726L320.804 232.642V315.013L278.116 340.639Z" fill="#222222"/>
</g>
<defs>
<clipPath id="clip0_1141_553505">
<rect width="475" height="364" fill="white" transform="translate(0 0.0878906)"/>
</clipPath>
</defs>
</svg>
