<svg width="247" height="166" viewBox="0 0 247 166" fill="none" xmlns="http://www.w3.org/2000/svg">
<g opacity="0.37" filter="url(#filter0_f_3_193136)">
<mask id="mask0_3_193136" style="mask-type:alpha" maskUnits="userSpaceOnUse" x="32" y="31" width="183" height="103">
<path d="M123.5 133.97C174.034 133.97 215 111.137 215 82.9705C215 54.8039 174.034 31.9705 123.5 31.9705C72.9659 31.9705 32 54.8039 32 82.9705C32 111.137 72.9659 133.97 123.5 133.97Z" fill="#FFCC00"/>
</mask>
<g mask="url(#mask0_3_193136)">
<path d="M123.499 133.929C173.993 133.929 214.926 111.114 214.926 82.9702C214.926 54.8262 173.993 32.011 123.499 32.011C73.0058 32.011 32.0726 54.8262 32.0726 82.9702C32.0726 111.114 73.0058 133.929 123.499 133.929Z" fill="#FFCF00"/>
<path d="M165.845 91.8956L163.502 83.8359L208.368 103.467L196.085 123.634L174.842 131.405L140.319 138.991L84.2201 115.309H149.614L165.153 108.022L165.845 91.8956Z" fill="#EBBD0B"/>
<path d="M167.87 98.841L165.879 109.757L139.185 99.4165L139.112 87.4878L160.567 86.9997L165.878 91.07L167.87 98.841Z" fill="#F1C000"/>
<path d="M155.52 108.937L150.613 112.018L116.793 99.4646V85.8023L138.243 87.0458L130.834 99.4646L155.52 108.937Z" fill="#F1C000"/>
<path d="M225.765 81.8966L221.977 91.6713L170.376 68.9973L167.042 57.5694L157.06 51.0525C157.06 51.0525 159.404 51.5666 160.236 51.9402C161.069 52.3139 163.09 52.976 164.152 53.5679C165.214 54.1597 225.765 81.8966 225.765 81.8966Z" fill="#F1C000"/>
<path d="M160.171 107.505L158.659 110.312L130.776 99.3963H139.113L158.114 106.691L160.171 107.505Z" fill="#E5B700"/>
<path d="M116.792 99.4647L150.547 111.944L143.513 113.017L136.378 110.381L108.494 99.4647H116.792Z" fill="#E5B700"/>
<path d="M194.077 131.758L140.318 138.991L84.2201 115.308L137.398 116.332L145.549 113.057L194.077 131.758Z" fill="#E5B700"/>
<path d="M132.203 113.215L129.739 115.001H111.257L93.2672 112.391L87.498 106.958V96.0418L88.525 95.8809L132.203 113.215Z" fill="#E5B700"/>
<path d="M156.709 69.0108L201.396 88.5728L224.154 98.788L225.136 92.7668L170.408 69.0067L156.709 69.0108Z" fill="#E5B700"/>
<path d="M139.197 65.9755L183.887 85.52L236.69 109.095L218.701 106.073L211.308 104.974L165.718 84.9206L139.207 80.26L139.197 65.9755Z" fill="#E5B700"/>
<path d="M116.792 65.9236L161.564 85.5198L145.928 84.8462L116.792 79.2218V65.9236Z" fill="#E5B700"/>
<path d="M74.8616 95.8967H88.5724V97.1859C88.5724 101.268 89.123 104.275 90.2242 106.209C91.3254 108.142 93.1424 109.508 95.6753 110.306C97.6575 110.92 100.713 111.357 104.843 111.618C108.973 111.879 117.48 112.01 130.364 112.01C137.357 112.01 142.781 111.757 146.635 111.25C150.489 110.744 153.353 109.923 155.225 108.787C156.271 108.173 157.042 107.13 157.538 105.657C158.034 104.183 158.282 102.189 158.281 99.6721C158.281 94.5775 157.359 91.378 155.514 90.0737C153.67 88.7693 150.021 87.9942 144.57 87.7484L106.66 86.0911C95.317 85.6 87.4707 84.0195 83.1207 81.3493C78.7708 78.6792 76.5958 74.1831 76.5958 67.8609C76.5958 63.8712 77.3116 60.664 78.7432 58.2395C80.1748 55.8149 82.4874 53.8049 85.681 52.2092C88.1587 50.9815 91.6276 50.1145 96.0877 49.6082C100.548 49.1019 108.422 48.8487 119.709 48.8486H124.087C136.696 48.8486 145.575 49.1862 150.723 49.8615C155.871 50.5367 160.18 51.7029 163.649 53.3601C166.016 54.465 167.765 56.0379 168.893 58.0787C170.022 60.1196 170.586 62.6592 170.586 65.6976C170.586 66.5875 170.573 67.2704 170.545 67.7461C170.518 68.2219 170.476 68.6438 170.421 69.0121H156.711V67.3088C156.711 64.7922 156.449 62.8664 155.926 61.5315C155.403 60.1966 154.564 59.2068 153.407 58.5622C151.7 57.6108 148.658 56.9433 144.281 56.5597C139.903 56.1762 131.603 55.9841 119.379 55.9837C106.715 55.9837 98.7584 56.7816 95.5097 58.3775C92.261 59.9733 90.6367 63.1653 90.6368 67.9532C90.6368 71.8816 91.6967 74.59 93.8166 76.0785C95.9364 77.567 100.025 78.4493 106.082 78.7256L144.735 80.5208C154.866 81.0118 161.969 82.5693 166.044 85.1932C170.118 87.8171 172.156 92.1981 172.156 98.3363C172.156 102.817 171.633 106.186 170.587 108.441C169.54 110.697 167.806 112.576 165.383 114.08C162.41 115.953 158.404 117.265 153.366 118.017C148.327 118.768 139.146 119.144 125.821 119.144H119.709C108.367 119.144 100.341 118.822 95.6337 118.178C90.9259 117.533 87.0028 116.413 83.8641 114.817C80.7807 113.344 78.5094 111.349 77.0503 108.833C75.5911 106.316 74.8616 103.124 74.8616 99.2572V95.8967Z" fill="#333333"/>
<path d="M130.792 65.9447H139.285V99.4472H130.792V65.9447Z" fill="#333333"/>
<path d="M108.369 65.9447H116.863V99.4472H108.369V65.9447Z" fill="#333333"/>
</g>
</g>
<mask id="mask1_3_193136" style="mask-type:alpha" maskUnits="userSpaceOnUse" x="60" y="18" width="128" height="129">
<path d="M124 146.97C159.346 146.97 188 118.317 188 82.9705C188 47.6242 159.346 18.9705 124 18.9705C88.6538 18.9705 60 47.6242 60 82.9705C60 118.317 88.6538 146.97 124 146.97Z" fill="#FFCC00"/>
</mask>
<g mask="url(#mask1_3_193136)">
<path d="M124 146.919C159.318 146.919 187.948 118.288 187.948 82.97C187.948 47.6521 159.318 19.0212 124 19.0212C88.6816 19.0212 60.0508 47.6521 60.0508 82.97C60.0508 118.288 88.6816 146.919 124 146.919Z" fill="#FFCF00"/>
<path d="M153.618 94.1705L151.98 84.0564L183.362 108.691L174.77 134L159.911 143.751L135.764 153.271L96.5256 123.551H142.265L153.135 114.408L153.618 94.1705Z" fill="#EBBD0B"/>
<path d="M155.035 102.886L153.642 116.585L134.971 103.609L134.92 88.6392L149.926 88.0267L153.642 93.1346L155.035 102.886Z" fill="#F1C000"/>
<path d="M146.397 115.555L142.964 119.422L119.309 103.669V86.5241L134.312 88.0846L129.13 103.669L146.397 115.555Z" fill="#F1C000"/>
<path d="M195.53 81.6229L192.88 93.8891L156.788 65.4355L154.456 51.0946L147.474 42.9165C147.474 42.9165 149.113 43.5616 149.695 44.0305C150.278 44.4994 151.691 45.3304 152.434 46.0731C153.177 46.8158 195.53 81.6229 195.53 81.6229Z" fill="#F1C000"/>
<path d="M149.65 113.759L148.592 117.281L129.089 103.583H134.921L148.211 112.738L149.65 113.759Z" fill="#E5B700"/>
<path d="M119.308 103.669L142.918 119.33L137.998 120.676L133.008 117.369L113.504 103.669H119.308Z" fill="#E5B700"/>
<path d="M173.365 144.194L135.764 153.27L96.5256 123.551L133.721 124.836L139.422 120.726L173.365 144.194Z" fill="#E5B700"/>
<path d="M130.088 120.925L128.364 123.166H115.436L102.854 119.891L98.8184 113.073V99.3738L99.5367 99.1719L130.088 120.925Z" fill="#E5B700"/>
<path d="M147.228 65.4525L178.485 90.0009L194.403 102.82L195.09 95.264L156.81 65.4474L147.228 65.4525Z" fill="#E5B700"/>
<path d="M134.98 61.6435L166.238 86.17L203.172 115.754L190.589 111.962L185.417 110.583L153.53 85.4177L134.987 79.5691L134.98 61.6435Z" fill="#E5B700"/>
<path d="M119.308 61.5784L150.624 86.1696L139.687 85.3244L119.308 78.2663V61.5784Z" fill="#E5B700"/>
<path d="M89.9797 99.1915H99.5698V100.809C99.5698 105.932 99.9549 109.706 100.725 112.132C101.495 114.559 102.766 116.273 104.538 117.274C105.924 118.044 108.062 118.593 110.95 118.92C113.839 119.248 119.789 119.412 128.801 119.412C133.692 119.412 137.486 119.094 140.182 118.459C142.878 117.823 144.881 116.793 146.19 115.368C146.922 114.597 147.461 113.288 147.808 111.439C148.155 109.591 148.328 107.087 148.328 103.929C148.328 97.5361 147.683 93.5211 146.393 91.8843C145.102 90.2475 142.551 89.2748 138.737 88.9663L112.221 86.8866C104.287 86.2703 98.7992 84.2868 95.7566 80.9361C92.7141 77.5854 91.1928 71.9431 91.1928 64.0094C91.1928 59.0027 91.6934 54.9781 92.6948 51.9355C93.6961 48.8929 95.3137 46.3704 97.5474 44.3681C99.2805 42.8275 101.707 41.7395 104.826 41.1041C107.946 40.4688 113.453 40.151 121.349 40.1509H124.41C133.23 40.1509 139.44 40.5745 143.041 41.4219C146.642 42.2692 149.656 43.7327 152.082 45.8124C153.738 47.1989 154.961 49.1727 155.751 51.7338C156.54 54.2948 156.935 57.4818 156.935 61.2946C156.935 62.4115 156.925 63.2684 156.906 63.8654C156.887 64.4624 156.858 64.9919 156.819 65.454H147.23V63.3165C147.23 60.1584 147.047 57.7418 146.681 56.0666C146.315 54.3914 145.728 53.1494 144.919 52.3405C143.725 51.1466 141.597 50.3089 138.535 49.8276C135.473 49.3462 129.668 49.1052 121.118 49.1046C112.26 49.1046 106.694 50.106 104.422 52.1086C102.15 54.1113 101.014 58.1169 101.014 64.1253C101.014 69.055 101.755 72.4537 103.238 74.3217C104.721 76.1896 107.58 77.2969 111.817 77.6435L138.853 79.8963C145.939 80.5126 150.908 82.467 153.758 85.7597C156.607 89.0524 158.032 94.5502 158.032 102.253C158.032 107.876 157.667 112.103 156.935 114.934C156.203 117.764 154.99 120.123 153.295 122.01C151.216 124.36 148.414 126.006 144.89 126.95C141.365 127.893 134.944 128.365 125.624 128.365H121.349C113.415 128.365 107.802 127.961 104.509 127.152C101.216 126.343 98.4719 124.938 96.2766 122.935C94.1199 121.086 92.5312 118.583 91.5106 115.425C90.49 112.267 89.9797 108.261 89.9797 103.409V99.1915Z" fill="#333333"/>
<path d="M129.1 61.6048H135.041V103.647H129.1V61.6048Z" fill="#333333"/>
<path d="M113.417 61.6048H119.357V103.647H113.417V61.6048Z" fill="#333333"/>
</g>
<defs>
<filter id="filter0_f_3_193136" x="0" y="-0.029541" width="247" height="166" filterUnits="userSpaceOnUse" color-interpolation-filters="sRGB">
<feFlood flood-opacity="0" result="BackgroundImageFix"/>
<feBlend mode="normal" in="SourceGraphic" in2="BackgroundImageFix" result="shape"/>
<feGaussianBlur stdDeviation="16" result="effect1_foregroundBlur_3_193136"/>
</filter>
</defs>
</svg>
