<svg width="247" height="167" viewBox="0 0 247 167" fill="none" xmlns="http://www.w3.org/2000/svg">
<g opacity="0.37" clip-path="url(#clip0_3_193136)" filter="url(#filter0_f_3_193136)">
<path d="M123.5 32.9705C159.682 32.9705 190.96 44.6762 205.789 61.6432C211.868 68.5978 215.019 76.2342 215 83.9704C215 112.137 174.034 134.97 123.5 134.97C72.9667 134.97 32 112.137 32 83.9705C32 55.804 72.9664 32.9705 123.5 32.9705Z" fill="#FF0000"/>
<mask id="mask0_3_193136" style="mask-type:alpha" maskUnits="userSpaceOnUse" x="32" y="32" width="184" height="103">
<path d="M123.5 32.9705C159.682 32.9705 190.96 44.6762 205.789 61.6432C211.868 68.5978 215.019 76.2342 215 83.9704C215 112.137 174.034 134.97 123.5 134.97C72.9667 134.97 32 112.137 32 83.9705C32 55.804 72.9664 32.9705 123.5 32.9705Z" fill="#FF0000"/>
</mask>
<g mask="url(#mask0_3_193136)">
<path d="M141.975 97.6782L156.668 86.4631L157.48 86.8913L157.996 87.3237L199.805 112.781L187.191 120.91L152.38 100.317L150.32 99.418C150.32 99.418 148.987 99.8059 148.118 99.7835C147.249 99.761 147.36 99.8087 146.268 99.6109C145.176 99.4132 141.975 97.6782 141.975 97.6782Z" fill="#E20000"/>
<path d="M113.33 132.532L123.292 116.398L126.814 111.938L163.418 133.888L137.079 144.146L134.493 142.873L113.33 132.532Z" fill="#C50000"/>
<path d="M136.455 120.622L146.416 104.488L149.939 100.027L186.543 121.978L160.204 132.235L157.618 130.962L136.455 120.622Z" fill="#E20000"/>
<path d="M73.2318 117.941C75.4669 114.507 76.2703 113.033 76.0389 112.793C75.8605 112.607 74.0986 111.093 72.1236 109.427C70.1486 107.76 67.7442 105.717 66.7795 104.885C65.8148 104.052 64.467 102.894 63.7811 102.311C62.5418 101.257 62.5379 101.247 63.0802 100.393C69.848 89.7157 71.0332 88.1088 73.0784 86.8384C75.3822 85.4074 80.7069 84.0862 84.154 84.0899C86.0639 84.0923 91.1289 84.9977 103.353 87.5225L107.338 88.3457C108.181 88.5053 109.001 88.7008 109.791 88.9304C110.247 89.1502 108.226 90.9672 106.397 91.9814C103.471 93.6029 98.7976 94.5466 94.8283 94.3154C93.7013 94.2501 90.8585 93.8201 88.5113 93.3609C83.6363 92.4064 84.086 92.3122 82.7103 94.5807C81.8408 96.0149 81.827 96.1045 82.4299 96.4171C82.7804 96.5976 87.907 98.3546 93.8248 100.322C102.645 103.254 104.917 104.102 106.432 105.025C108.646 106.376 109.933 107.725 110.826 109.629C111.672 111.436 111.662 112.687 110.786 114.568C110.523 115.073 110.313 115.586 110.158 116.105C110.876 116.37 111.695 116.537 112.549 116.594C113.699 116.594 114.824 114.352 114.827 112.049C114.832 109.336 113.292 106.806 110.204 104.459C108.267 102.988 106.505 102.278 96.5196 98.9468C91.6348 97.3174 87.261 95.8088 86.8005 95.5948C85.9797 95.2135 85.9783 95.2055 86.7213 95.199C87.1385 95.1951 88.4423 95.3909 89.6193 95.6335C91.3658 95.9935 92.557 96.0762 96.1056 96.0828C100.094 96.091 100.646 96.0438 102.807 95.5222C104.463 95.0922 106.046 94.5802 107.538 93.9924C109.647 93.1406 110.179 93.0205 112.257 92.9275C113.584 92.8692 114.884 92.6892 116.105 92.3948L117.61 91.9667L118.766 93.0933C120.971 95.2423 123.728 96.3238 127.555 96.5427C128.995 96.6252 130.091 96.5259 132.284 96.1155C133.854 95.8218 135.161 95.6076 135.189 95.6386C137.208 97.9245 139.113 99.0471 141.994 99.6477C143.664 99.9707 145.034 100.205 146.801 100.231C146.801 100.231 147.847 100.205 148.505 100.174C148.988 100.146 149.466 100.1 149.937 100.035C149.972 100.104 139.101 116.767 136.509 120.631C133.224 122.513 127.809 122.03 126.047 124.779C125.581 125.552 118.161 135.288 118.009 135.204C113.173 135.449 108.303 135.397 103.486 135.052C98.246 134.7 93.1071 133.98 88.1911 132.91C82.5064 131.777 73.6566 129.045 67.8187 125.981C67.894 125.981 70.6103 121.966 73.2331 117.941L73.2318 117.941ZM142.362 97.7829C141.116 97.5207 140.041 96.7061 139.318 95.927C137.816 94.3091 138.055 93.6299 142.4 87.151C142.847 86.484 143.294 85.9859 143.744 85.4555C144.748 83.9084 148.052 84.6893 148.026 84.6893C151.41 85.2787 151.991 85.4406 155.314 86.1015C155.322 86.1332 158.837 86.5747 157.667 88.3481C157.667 88.3481 156.74 89.6103 155.955 90.8389C155.171 92.0676 154.295 93.436 154.01 93.8802C153.725 94.3245 153.313 95.9373 149.086 97.5393C147.093 98.3054 143.404 98.0015 142.362 97.7821L142.362 97.7829ZM125.425 94.2052C123.416 93.6973 121.761 92.522 121.246 91.2391L120.826 90.1896L124.757 84.161C127.2 80.4166 128.996 77.9604 129.499 77.6783C130.095 77.3431 130.731 77.2241 131.918 77.2241C133.82 77.2241 139.444 78.2974 141.101 78.9766C143.23 79.8489 143.134 80.2737 139.569 85.7639C135.343 92.2711 134.832 92.929 133.52 93.5511C132.417 94.0727 131.072 94.4106 129.641 94.5263C128.209 94.642 126.747 94.5308 125.424 94.2053L125.425 94.2052ZM112.592 90.7722C112.869 90.232 113.211 89.7028 113.616 89.1883L114.641 87.7851L113.526 87.537C112.912 87.4003 110.781 86.9719 108.788 86.5843C106.796 86.1967 104.974 85.772 104.74 85.6403C104.413 85.4567 105.28 83.9228 108.467 79.046C110.753 75.5463 112.959 72.4897 113.374 72.2424C114.635 71.4944 115.827 71.4848 119.532 72.1928C124.517 73.1461 125.595 73.4934 126.246 74.359C126.849 75.16 126.727 75.4316 123.691 80.0508C123.216 80.7726 121.731 83.0438 120.39 85.0982C119.05 87.1526 117.718 89.0395 117.431 89.2913C116.332 90.2585 112.59 91.4027 112.59 90.7719L112.592 90.7722ZM93.9368 83.5953C88.6864 82.5811 87.3959 82.2587 87.3104 81.9401C87.2175 81.5943 89.5834 77.6032 91.9271 74.1534C92.8002 72.8679 94.3991 71.9744 95.8263 71.9744C97.1459 71.9744 104.79 73.5593 105.667 74.0149C106.713 74.5577 106.964 75.5885 106.305 76.6411C106.001 77.1281 104.993 78.7078 104.067 80.1513C103.141 81.5947 102.141 83.1564 101.846 83.6216C101.552 84.0868 101.118 84.5544 100.884 84.6611C100.597 84.7912 98.3142 84.4408 93.9372 83.5952L93.9368 83.5953Z" fill="white"/>
<path d="M134.303 71.5703L164.418 78.279C166.677 78.7821 175.038 74.8807 172.349 74.2816L101.84 58.5746C99.1513 57.9756 99.61 63.8417 101.868 64.3448L134.303 71.5703Z" fill="white"/>
<path d="M143.64 61.2769L139.534 60.4167L133.32 67.6393L137.426 68.4995L143.64 61.2769Z" fill="white"/>
<path d="M179.911 66.25L178.076 68.5262C178.076 68.5262 176.52 70.881 173.103 70.117L106.392 55.2017C102.974 54.4381 105.11 52.2123 105.11 52.2123L106.944 49.9362L179.911 66.25Z" fill="white"/>
<path d="M143.647 57.1655C182.435 65.6494 202.394 63.4039 202.394 63.4039C202.394 63.4039 202.735 62.2488 203.606 57.9808C186.816 61.0729 146.76 53.3882 146.76 53.3882L146.865 53.4112C146.865 53.4112 108.312 43.9026 100.968 35.5315C95.6142 38.8189 94.2384 39.7476 94.2384 39.7476C94.2384 39.7476 104.965 48.7046 143.753 57.1885L143.648 57.1654L143.647 57.1655Z" fill="white"/>
</g>
</g>
<g clip-path="url(#clip1_3_193136)">
<path d="M124 19.9705C149.308 19.9705 171.185 34.66 181.557 55.9519C185.81 64.6793 188.013 74.2623 188 83.9704C188 119.317 159.346 147.97 124 147.97C88.6543 147.97 60 119.317 60 83.9705C60 48.6243 88.6541 19.9705 124 19.9705Z" fill="#FF0000"/>
<mask id="mask1_3_193136" style="mask-type:alpha" maskUnits="userSpaceOnUse" x="60" y="19" width="129" height="129">
<path d="M124 19.9705C149.308 19.9705 171.185 34.66 181.557 55.9519C185.81 64.6793 188.013 74.2623 188 83.9704C188 119.317 159.346 147.97 124 147.97C88.6543 147.97 60 119.317 60 83.9705C60 48.6243 88.6541 19.9705 124 19.9705Z" fill="#FF0000"/>
</mask>
<g mask="url(#mask1_3_193136)">
<path d="M136.923 101.172L147.2 87.0984L147.767 87.6357L148.129 88.1783L177.372 120.124L168.549 130.326L144.2 104.484L142.76 103.355C142.76 103.355 141.827 103.842 141.219 103.814C140.612 103.786 140.689 103.846 139.925 103.598C139.162 103.349 136.923 101.172 136.923 101.172Z" fill="#E20000"/>
<path d="M116.887 144.911L123.854 124.663L126.318 119.066L151.921 146.612L133.498 159.484L131.689 157.887L116.887 144.911Z" fill="#C50000"/>
<path d="M133.062 129.965L140.029 109.717L142.493 104.12L168.095 131.666L149.673 144.538L147.864 142.941L133.062 129.965Z" fill="#E20000"/>
<path d="M88.8398 126.6C90.4032 122.291 90.9651 120.441 90.8032 120.139C90.6784 119.906 89.4461 118.007 88.0647 115.916C86.6832 113.825 85.0015 111.26 84.3267 110.216C83.652 109.171 82.7092 107.717 82.2295 106.986C81.3626 105.664 81.36 105.651 81.7393 104.579C86.473 91.1802 87.302 89.1637 88.7325 87.5695C90.3439 85.7738 94.0683 84.1157 96.4794 84.1204C97.8153 84.1234 101.358 85.2596 109.908 88.428L112.695 89.461C113.285 89.6613 113.859 89.9066 114.411 90.1947C114.73 90.4705 113.317 92.7507 112.037 94.0235C109.991 96.0582 106.722 97.2426 103.946 96.9524C103.157 96.8705 101.169 96.3308 99.5271 95.7546C96.1173 94.5568 96.4318 94.4386 95.4696 97.2854C94.8614 99.0851 94.8518 99.1976 95.2734 99.5898C95.5186 99.8163 99.1044 102.021 103.244 104.49C109.413 108.169 111.002 109.233 112.062 110.392C113.61 112.087 114.511 113.78 115.135 116.17C115.727 118.437 115.72 120.007 115.107 122.367C114.923 123.001 114.777 123.645 114.668 124.296C115.17 124.628 115.743 124.838 116.34 124.909C117.145 124.909 117.932 122.096 117.934 119.207C117.938 115.802 116.86 112.627 114.7 109.682C113.345 107.835 112.113 106.945 105.129 102.764C101.712 100.72 98.6526 98.8265 98.3305 98.558C97.7564 98.0795 97.7554 98.0693 98.2751 98.0612C98.5669 98.0563 99.4788 98.302 100.302 98.6065C101.524 99.0583 102.357 99.162 104.839 99.1704C107.629 99.1806 108.015 99.1213 109.526 98.4667C110.684 97.9272 111.792 97.2847 112.835 96.5471C114.31 95.4782 114.683 95.3274 116.136 95.2107C117.064 95.1375 117.973 94.9117 118.827 94.5422L119.88 94.005L120.689 95.4188C122.231 98.1155 124.159 99.4728 126.836 99.7474C127.843 99.8509 128.611 99.7263 130.144 99.2113C131.242 98.8428 132.157 98.5739 132.176 98.6129C133.589 101.481 134.921 102.89 136.936 103.644C138.104 104.049 139.062 104.343 140.298 104.375C140.298 104.375 141.029 104.343 141.49 104.305C141.828 104.27 142.162 104.211 142.492 104.13C142.516 104.217 134.912 125.127 133.099 129.976C130.802 132.338 127.014 131.731 125.782 135.182C125.456 136.151 120.266 148.369 120.16 148.264C116.777 148.57 113.37 148.506 110.001 148.072C106.336 147.631 102.742 146.727 99.3031 145.384C95.327 143.963 89.1369 140.535 85.0536 136.689C85.1063 136.689 87.0062 131.652 88.8407 126.6L88.8398 126.6ZM137.193 101.304C136.322 100.975 135.57 99.9525 135.064 98.9748C134.014 96.9445 134.181 96.0921 137.22 87.9618C137.533 87.1248 137.845 86.4997 138.16 85.8341C138.862 83.8927 141.173 84.8726 141.155 84.8726C143.522 85.6122 143.928 85.8154 146.252 86.6448C146.258 86.6845 148.717 87.2385 147.898 89.464C147.898 89.464 147.25 91.0479 146.701 92.5897C146.152 94.1316 145.54 95.8488 145.34 96.4063C145.141 96.9638 144.853 98.9877 141.896 100.998C140.502 101.959 137.922 101.578 137.193 101.303L137.193 101.304ZM125.346 96.814C123.941 96.1767 122.784 94.7018 122.424 93.0919L122.129 91.775L124.88 84.2096C126.588 79.5107 127.844 76.4285 128.196 76.0745C128.613 75.6538 129.058 75.5045 129.888 75.5045C131.219 75.5045 135.152 76.8514 136.311 77.7037C137.8 78.7983 137.733 79.3314 135.24 86.2211C132.283 94.387 131.926 95.2126 131.009 95.9932C130.237 96.6478 129.297 97.0719 128.295 97.2171C127.294 97.3623 126.272 97.2227 125.346 96.8142L125.346 96.814ZM116.37 92.506C116.564 91.8281 116.803 91.164 117.087 90.5183L117.803 88.7575L117.023 88.4462C116.594 88.2746 115.103 87.737 113.71 87.2506C112.316 86.7642 111.042 86.2313 110.878 86.066C110.65 85.8356 111.256 83.9107 113.485 77.7908C115.084 73.3991 116.627 69.5633 116.917 69.253C117.8 68.3143 118.633 68.3022 121.225 69.1907C124.712 70.3869 125.466 70.8228 125.921 71.9091C126.342 72.9142 126.257 73.255 124.133 79.0517C123.801 79.9575 122.763 82.8076 121.825 85.3857C120.887 87.9637 119.956 90.3316 119.755 90.6476C118.986 91.8614 116.369 93.2972 116.369 92.5057L116.37 92.506ZM103.322 83.4998C99.6496 82.227 98.747 81.8224 98.6872 81.4226C98.6222 80.9887 100.277 75.9802 101.916 71.651C102.527 70.0379 103.645 68.9167 104.644 68.9167C105.567 68.9167 110.913 70.9056 111.527 71.4773C112.258 72.1584 112.434 73.452 111.973 74.7729C111.76 75.3841 111.056 77.3664 110.408 79.1778C109.76 80.9892 109.061 82.949 108.854 83.5327C108.648 84.1165 108.345 84.7034 108.181 84.8372C107.981 85.0004 106.384 84.5607 103.322 83.4996L103.322 83.4998Z" fill="white"/>
<path d="M131.994 67.6277L153.412 76.7204C155.018 77.4023 160.07 74.2206 158.157 73.4086L108.012 52.1201C106.1 51.3082 107.32 57.1528 108.926 57.8346L131.994 67.6277Z" fill="white"/>
<path d="M138.087 55.921L134.534 54.4128L130.868 63.0477L134.421 64.5558L138.087 55.921Z" fill="white"/>
<path d="M163.457 63.2642L162.568 65.3574C162.568 65.3574 161.88 67.5507 159.453 66.5202L112.068 46.4034C109.64 45.3732 110.74 43.3542 110.74 43.3542L111.628 41.2611L163.457 63.2642Z" fill="white"/>
<path d="M138.998 48.7316C166.778 60.5256 180.021 59.8816 180.021 59.8816C180.021 59.8816 180.07 58.7367 179.984 54.4745C169.035 56.2378 140.518 45.1513 140.518 45.1513L140.593 45.1834C140.593 45.1834 112.81 32.3681 106.473 23.2662C103.348 26.1652 102.558 26.9955 102.558 26.9955C102.558 26.9955 111.293 36.9697 139.074 48.7636L138.998 48.7316L138.998 48.7316Z" fill="white"/>
</g>
</g>
<defs>
<filter id="filter0_f_3_193136" x="0" y="0.970459" width="247" height="166" filterUnits="userSpaceOnUse" color-interpolation-filters="sRGB">
<feFlood flood-opacity="0" result="BackgroundImageFix"/>
<feBlend mode="normal" in="SourceGraphic" in2="BackgroundImageFix" result="shape"/>
<feGaussianBlur stdDeviation="16" result="effect1_foregroundBlur_3_193136"/>
</filter>
<clipPath id="clip0_3_193136">
<rect width="183" height="102" fill="white" transform="translate(32 32.9705)"/>
</clipPath>
<clipPath id="clip1_3_193136">
<rect width="128" height="128" fill="white" transform="translate(60 19.9705)"/>
</clipPath>
</defs>
</svg>
