<svg width="247" height="167" viewBox="0 0 247 167" fill="none" xmlns="http://www.w3.org/2000/svg">
<g opacity="0.37" clip-path="url(#clip0_3_193136)" filter="url(#filter0_f_3_193136)">
<path d="M123.5 32.9705C174.034 32.9705 215 55.8039 215 83.9705C215 112.137 174.034 134.97 123.5 134.97C72.9659 134.97 32 112.137 32 83.9705C32 55.8039 72.9659 32.9705 123.5 32.9705Z" fill="#FFCC00"/>
<path d="M175.783 86.3254C175.783 86.3254 205.645 106.577 205.524 106.645C205.403 106.712 201.842 110.263 201.842 110.278C201.842 110.293 194.086 117.325 185.908 121.279C177.73 125.233 167.681 130.261 149.151 132.885C130.622 135.509 123.56 134.903 123.44 134.903C123.319 134.903 175.783 86.3254 175.783 86.3254Z" fill="#EBBD03"/>
<path d="M185.791 67.9368C185.791 67.9368 214.11 90.7697 214.183 90.8079C214.183 90.9347 212.918 95.2044 212.288 96.3038C210.829 99.5282 210.713 99.297 210.05 100.572C208.229 103.386 206.453 105.543 206.453 105.543L176.221 84.5356C175.004 84.9258 173.603 85.0997 172.205 85.0343C169.98 84.9024 169.151 85.0851 166.335 84.0315C163.519 82.9779 162.689 82.0273 162.689 82.0273L185.791 67.9368Z" fill="#EBBD03"/>
<path d="M70.1195 110.977C73.1986 106.246 74.3053 104.216 73.9866 103.884C73.7409 103.629 71.3136 101.543 68.5927 99.2474C65.8719 96.952 62.5595 94.1366 61.2312 92.9901C59.9029 91.8436 58.0444 90.2474 57.0999 89.4446C55.3926 87.9929 55.3873 87.9789 56.1342 86.8023C65.4576 72.0928 67.0906 69.8792 69.908 68.129C73.0818 66.1576 80.4172 64.3375 85.1661 64.3426C87.7971 64.3459 94.7748 65.5933 111.616 69.0715L117.105 70.2056C118.267 70.4255 119.397 70.6948 120.485 71.0111C121.112 71.3139 118.329 73.8171 115.808 75.2144C111.777 77.4482 105.34 78.7483 99.8712 78.4297C98.3184 78.3392 94.4025 77.7474 91.1688 77.1144C84.4529 75.8 85.0724 75.6698 83.1772 78.7949C81.9792 80.7706 81.9604 80.8941 82.7909 81.3247C83.2738 81.5734 90.3364 83.9939 98.4888 86.7041C110.639 90.7432 113.77 91.9112 115.856 93.1836C118.907 95.0438 120.681 96.9027 121.91 99.5259C123.076 102.015 123.062 103.739 121.855 106.33C121.493 107.026 121.204 107.733 120.991 108.448C121.979 108.812 123.107 109.043 124.284 109.12C125.869 109.12 127.418 106.032 127.422 102.86C127.43 99.1219 125.307 95.6364 121.054 92.4034C118.384 90.3763 115.957 89.3989 102.201 84.8097C95.471 82.5649 89.4455 80.4866 88.8111 80.1919C87.6802 79.6666 87.6783 79.6556 88.702 79.6467C89.2766 79.6413 91.0728 79.911 92.6942 80.2452C95.1002 80.7412 96.7414 80.8551 101.63 80.8642C107.125 80.8753 107.885 80.8104 110.862 80.0918C113.143 79.4995 115.325 78.7943 117.38 77.9845C120.286 76.8111 121.02 76.6456 123.882 76.5175C125.71 76.4372 127.5 76.1892 129.183 75.7836L131.256 75.1939L132.849 76.746C135.887 79.7064 139.686 81.1961 144.957 81.498C146.941 81.6116 148.452 81.4749 151.472 80.9094C153.635 80.5044 155.436 80.2097 155.475 80.2525C158.256 83.4013 160.879 84.948 164.849 85.7756C167.149 86.2205 169.558 86.4652 171.992 86.5009C172.018 86.5025 175.803 86.3243 175.791 86.309C175.839 86.4043 160.863 109.36 157.292 114.683C152.767 117.276 145.306 116.61 142.88 120.398C142.237 121.461 132.015 134.875 131.806 134.759C125.143 135.096 118.434 135.025 111.799 134.549C104.58 134.064 97.5007 133.073 90.7285 131.598C82.8971 130.037 70.7052 126.274 62.6629 122.052C62.7667 122.052 66.5087 116.522 70.1219 110.977L70.1195 110.977ZM165.355 83.2065C163.639 82.8453 162.158 81.7225 161.162 80.6497C159.093 78.4208 159.422 77.485 165.407 68.5596C166.024 67.6408 166.64 66.9545 167.259 66.2239C168.643 64.0926 173.194 65.1683 173.158 65.1683C177.82 65.9803 178.621 66.2034 183.198 67.1139C183.209 67.1575 188.052 67.7662 186.439 70.2089C186.439 70.2089 185.162 71.9477 184.082 73.6403C183.001 75.3328 181.795 77.2181 181.402 77.8301C181.009 78.4421 180.442 80.664 174.619 82.8709C171.873 83.9264 166.791 83.5076 165.355 83.2054L165.355 83.2065ZM142.022 78.2776C139.255 77.5779 136.975 75.9588 136.266 74.1914L135.686 72.7457L141.103 64.4406C144.467 59.2817 146.942 55.8984 147.635 55.5098C148.456 55.048 149.331 54.8841 150.966 54.8841C153.587 54.8841 161.335 56.3627 163.617 57.2984C166.55 58.5001 166.418 59.0857 161.507 66.6488C155.685 75.6132 154.981 76.5197 153.174 77.3766C151.654 78.0951 149.802 78.5607 147.83 78.7201C145.857 78.8795 143.844 78.7263 142.021 78.2779L142.022 78.2776ZM124.343 73.5482C124.724 72.804 125.196 72.075 125.754 71.3661L127.165 69.4332L125.629 69.0914C124.784 68.903 121.848 68.3128 119.103 67.7789C116.359 67.2449 113.849 66.6598 113.526 66.4785C113.076 66.2255 114.27 64.1123 118.66 57.394C121.81 52.5731 124.848 48.3617 125.42 48.0213C127.158 46.9908 128.8 46.9776 133.904 47.9529C140.772 49.266 142.257 49.7445 143.154 50.937C143.985 52.0405 143.816 52.4146 139.634 58.7781C138.98 59.7726 136.934 62.9015 135.087 65.7316C133.24 68.5618 131.406 71.1613 131.011 71.5085C129.496 72.8409 124.341 74.4172 124.341 73.5482H124.343ZM98.6434 63.6612C91.4103 62.2639 89.6324 61.8198 89.5146 61.3809C89.3866 60.9045 92.6459 55.4062 95.8747 50.6536C97.0775 48.8828 99.2802 47.652 101.246 47.652C103.064 47.652 113.595 49.8355 114.804 50.4631C116.244 51.2107 116.59 52.6309 115.682 54.081C115.263 54.7519 113.875 56.9281 112.599 58.9167C111.323 60.9053 109.946 63.0567 109.54 63.6975C109.134 64.3383 108.536 64.9826 108.213 65.1296C107.819 65.3088 104.674 64.8263 98.6438 63.6612H98.6434Z" fill="#333333"/>
</g>
<g clip-path="url(#clip1_3_193136)">
<path d="M121 19.9705C156.346 19.9705 185 48.6242 185 83.9705C185 119.317 156.346 147.97 121 147.97C85.6538 147.97 57 119.317 57 83.9705C57 48.6242 85.6538 19.9705 121 19.9705Z" fill="#FFCC00"/>
<path d="M157.57 86.9255C157.57 86.9255 178.456 112.34 178.372 112.424C178.288 112.509 175.797 116.964 175.797 116.984C175.797 117.003 170.372 125.826 164.652 130.788C158.932 135.75 151.902 142.06 138.942 145.353C125.982 148.646 121.042 147.886 120.958 147.886C120.873 147.886 157.57 86.9255 157.57 86.9255Z" fill="#EBBD03"/>
<path d="M164.57 63.8499C164.57 63.8499 184.378 92.5029 184.429 92.5509C184.429 92.7099 183.544 98.068 183.103 99.4477C182.083 103.494 182.002 103.204 181.538 104.804C180.264 108.335 179.022 111.042 179.022 111.042L157.876 84.6797C157.025 85.1694 156.045 85.3877 155.067 85.3055C153.51 85.1401 152.93 85.3694 150.961 84.0472C148.991 82.7249 148.411 81.5321 148.411 81.5321L164.57 63.8499Z" fill="#EBBD03"/>
<path d="M83.6628 117.861C85.8165 111.924 86.5906 109.376 86.3677 108.96C86.1958 108.639 84.498 106.022 82.5949 103.141C80.6918 100.261 78.375 96.728 77.4459 95.2893C76.5168 93.8505 75.2169 91.8474 74.5563 90.84C73.362 89.0183 73.3583 89.0007 73.8808 87.5242C80.402 69.0651 81.5442 66.2873 83.5149 64.091C85.7348 61.6172 90.8656 59.3331 94.1872 59.3395C96.0275 59.3435 100.908 60.9089 112.687 65.2738L116.527 66.697C117.339 66.9729 118.13 67.3108 118.891 67.7078C119.33 68.0877 117.383 71.229 115.62 72.9825C112.801 75.7856 108.298 77.4172 104.473 77.0173C103.387 76.9039 100.648 76.1612 98.3859 75.3669C93.6884 73.7174 94.1217 73.5539 92.7961 77.4756C91.9582 79.9549 91.945 80.1099 92.5259 80.6503C92.8636 80.9624 97.8036 83.9999 103.506 87.4009C112.005 92.4695 114.194 93.9353 115.654 95.5321C117.787 97.8665 119.028 100.199 119.888 103.491C120.703 106.614 120.694 108.778 119.85 112.029C119.596 112.902 119.394 113.79 119.245 114.687C119.936 115.144 120.725 115.433 121.548 115.531C122.657 115.531 123.74 111.656 123.743 107.675C123.749 102.984 122.264 98.6101 119.289 94.553C117.422 92.0092 115.724 90.7826 106.102 85.0236C101.395 82.2066 97.1805 79.5986 96.7367 79.2288C95.9458 78.5695 95.9444 78.5557 96.6604 78.5446C97.0623 78.5378 98.3187 78.8762 99.4528 79.2957C101.136 79.9181 102.284 80.061 105.703 80.0725C109.547 80.0863 110.078 80.0049 112.16 79.1032C113.756 78.3599 115.282 77.4749 116.72 76.4587C118.752 74.9862 119.265 74.7785 121.267 74.6178C122.545 74.517 123.798 74.2058 124.975 73.6968L126.425 72.9568L127.539 74.9045C129.664 78.6195 132.321 80.4889 136.008 80.8678C137.396 81.0103 138.453 80.8388 140.565 80.1292C142.078 79.6209 143.338 79.2511 143.365 79.3048C145.31 83.2562 147.145 85.1972 149.922 86.2357C151.53 86.7941 153.215 87.1011 154.918 87.1459C154.936 87.1479 157.583 86.9243 157.575 86.9051C157.609 87.0246 147.134 115.832 144.636 122.511C141.471 125.765 136.253 124.93 134.555 129.683C134.106 131.018 126.956 147.851 126.81 147.705C122.149 148.128 117.457 148.039 112.815 147.441C107.766 146.833 102.815 145.589 98.0779 143.738C92.6002 141.78 84.0725 137.058 78.4472 131.759C78.5199 131.759 81.1373 124.82 83.6645 117.86L83.6628 117.861ZM150.276 83.0117C149.075 82.5585 148.039 81.1495 147.343 79.8033C145.895 77.0062 146.125 75.8319 150.312 64.6314C150.743 63.4784 151.174 62.6172 151.607 61.7002C152.575 59.0257 155.759 60.3757 155.734 60.3757C158.994 61.3946 159.554 61.6746 162.756 62.8171C162.763 62.8718 166.151 63.6358 165.023 66.701C165.023 66.701 164.13 68.8831 163.374 71.0071C162.618 73.1311 161.775 75.4969 161.5 76.2649C161.225 77.0329 160.828 79.8212 156.755 82.5906C154.835 83.9152 151.28 83.3896 150.276 83.0104L150.276 83.0117ZM133.955 76.8265C132.02 75.9484 130.425 73.9166 129.929 71.6988L129.524 69.8845L133.312 59.4624C135.666 52.9885 137.396 48.7428 137.881 48.2552C138.455 47.6756 139.068 47.4699 140.211 47.4699C142.044 47.4699 147.464 49.3254 149.06 50.4997C151.112 52.0077 151.019 52.7426 147.584 62.2335C143.512 73.483 143.02 74.6205 141.756 75.6958C140.693 76.5975 139.397 77.1818 138.018 77.3818C136.638 77.5818 135.23 77.3895 133.954 76.8269L133.955 76.8265ZM121.589 70.8916C121.856 69.9577 122.186 69.0428 122.577 68.1533L123.564 65.7277L122.489 65.2988C121.898 65.0623 119.844 64.3217 117.925 63.6516C116.005 62.9816 114.249 62.2474 114.024 62.0197C113.709 61.7023 114.544 59.0504 117.615 50.6196C119.818 44.5698 121.943 39.285 122.343 38.8578C123.559 37.5646 124.707 37.5481 128.277 38.772C133.081 40.4198 134.12 41.0203 134.747 42.5168C135.328 43.9015 135.21 44.3709 132.285 52.3566C131.828 53.6045 130.397 57.5309 129.105 61.0825C127.813 64.6341 126.53 67.8962 126.254 68.3319C125.194 70.004 121.588 71.9821 121.588 70.8916H121.589ZM103.614 58.4844C98.5547 56.7309 97.3112 56.1736 97.2288 55.6228C97.1393 55.025 99.419 48.1251 101.677 42.1611C102.519 39.9389 104.059 38.3944 105.435 38.3944C106.706 38.3944 114.072 41.1344 114.917 41.922C115.925 42.8603 116.167 44.6425 115.532 46.4622C115.239 47.3041 114.268 50.035 113.375 52.5305C112.483 55.026 111.52 57.7258 111.236 58.53C110.951 59.3341 110.534 60.1426 110.308 60.327C110.032 60.5519 107.832 59.9464 103.614 58.4844H103.614Z" fill="#333333"/>
</g>
<defs>
<filter id="filter0_f_3_193136" x="0" y="0.970459" width="247" height="166" filterUnits="userSpaceOnUse" color-interpolation-filters="sRGB">
<feFlood flood-opacity="0" result="BackgroundImageFix"/>
<feBlend mode="normal" in="SourceGraphic" in2="BackgroundImageFix" result="shape"/>
<feGaussianBlur stdDeviation="16" result="effect1_foregroundBlur_3_193136"/>
</filter>
<clipPath id="clip0_3_193136">
<rect width="183" height="102" fill="white" transform="translate(32 32.9705)"/>
</clipPath>
<clipPath id="clip1_3_193136">
<rect width="128" height="128" fill="white" transform="translate(57 19.9705)"/>
</clipPath>
</defs>
</svg>
